%TF.GenerationSoftware,KiCad,Pcbnew,8.0.7*%
%TF.CreationDate,2025-05-23T18:18:51-03:00*%
%TF.ProjectId,uDAQ,75444151-2e6b-4696-9361-645f70636258,rev?*%
%TF.SameCoordinates,Original*%
%TF.FileFunction,Copper,L2,Inr*%
%TF.FilePolarity,Positive*%
%FSLAX46Y46*%
G04 Gerber Fmt 4.6, Leading zero omitted, Abs format (unit mm)*
G04 Created by KiCad (PCBNEW 8.0.7) date 2025-05-23 18:18:51*
%MOMM*%
%LPD*%
G01*
G04 APERTURE LIST*
%TA.AperFunction,ComponentPad*%
%ADD10O,1.800000X1.000000*%
%TD*%
%TA.AperFunction,ComponentPad*%
%ADD11O,2.100000X1.000000*%
%TD*%
%TA.AperFunction,ComponentPad*%
%ADD12C,0.650000*%
%TD*%
%TA.AperFunction,ComponentPad*%
%ADD13C,6.400000*%
%TD*%
%TA.AperFunction,ComponentPad*%
%ADD14C,3.090000*%
%TD*%
%TA.AperFunction,ComponentPad*%
%ADD15C,1.509000*%
%TD*%
%TA.AperFunction,ViaPad*%
%ADD16C,0.800000*%
%TD*%
%TA.AperFunction,ViaPad*%
%ADD17C,0.700000*%
%TD*%
G04 APERTURE END LIST*
D10*
%TO.N,unconnected-(J201-SHIELD-PadS1)*%
%TO.C,J201*%
X110650000Y-110180000D03*
D11*
%TO.N,unconnected-(J201-SHIELD-PadS1)_1*%
X106470000Y-110180000D03*
D10*
%TO.N,unconnected-(J201-SHIELD-PadS1)_3*%
X110650000Y-118820000D03*
D11*
%TO.N,unconnected-(J201-SHIELD-PadS1)_2*%
X106470000Y-118820000D03*
D12*
%TO.N,*%
X106970000Y-111610000D03*
X106970000Y-117400000D03*
%TD*%
D13*
%TO.N,GND*%
%TO.C,MH4*%
X50075000Y-94000000D03*
%TD*%
%TO.N,GND*%
%TO.C,MH3*%
X107075000Y-94000000D03*
%TD*%
%TO.N,GND*%
%TO.C,MH2*%
X107000000Y-161000000D03*
%TD*%
%TO.N,GND*%
%TO.C,MH1*%
X50000000Y-161000000D03*
%TD*%
D14*
%TO.N,GND*%
%TO.C,J401*%
X88840000Y-156380000D03*
D15*
X96460000Y-151300000D03*
D14*
X99000000Y-156380000D03*
D15*
%TO.N,/DAC/OUT*%
X93920000Y-151300000D03*
%TD*%
D14*
%TO.N,GND*%
%TO.C,J301*%
X57840000Y-156380000D03*
D15*
X65460000Y-151300000D03*
D14*
X68000000Y-156380000D03*
D15*
%TO.N,/ADC/IN*%
X62920000Y-151300000D03*
%TD*%
D16*
%TO.N,GND*%
X85000000Y-115000000D03*
X88000000Y-117000000D03*
X90000000Y-119000000D03*
X93000000Y-121000000D03*
X94000000Y-123000000D03*
X89000000Y-137000000D03*
X91000000Y-141000000D03*
X89000000Y-141000000D03*
X79000000Y-142000000D03*
X66000000Y-139000000D03*
X65000000Y-137000000D03*
X77000000Y-130000000D03*
X76000000Y-137000000D03*
X69000000Y-120000000D03*
X67000000Y-119000000D03*
X67000000Y-121000000D03*
X85000000Y-104000000D03*
X85000000Y-102000000D03*
X85000000Y-100000000D03*
X77000000Y-94000000D03*
X77000000Y-96000000D03*
X74000000Y-104000000D03*
X72000000Y-104000000D03*
X70000000Y-104000000D03*
X63000000Y-107000000D03*
X63000000Y-109000000D03*
X63000000Y-111000000D03*
X65000000Y-116000000D03*
X63000000Y-115000000D03*
X65000000Y-118000000D03*
X63000000Y-117000000D03*
X63000000Y-119000000D03*
X63000000Y-121000000D03*
X65000000Y-120000000D03*
X65000000Y-124000000D03*
X69000000Y-124000000D03*
X67000000Y-125000000D03*
X65000000Y-126000000D03*
X63000000Y-127000000D03*
X61000000Y-130000000D03*
X61000000Y-128000000D03*
X87000000Y-123000000D03*
X89000000Y-124000000D03*
X90000000Y-127000000D03*
X92000000Y-127000000D03*
X91968304Y-128991726D03*
X88000000Y-134000000D03*
X90000000Y-132000000D03*
X90000000Y-130000000D03*
X88000000Y-129000000D03*
X86000000Y-126000000D03*
X84000000Y-124000000D03*
X82000000Y-124000000D03*
X84000000Y-126000000D03*
X82000000Y-128000000D03*
X78000000Y-131000000D03*
X82000000Y-132000000D03*
X80000000Y-132000000D03*
X80000000Y-128000000D03*
X80000000Y-126000000D03*
X91000000Y-147000000D03*
X105000000Y-108000000D03*
X103000000Y-109000000D03*
X103000000Y-99000000D03*
X109000000Y-100000000D03*
X105000000Y-100000000D03*
X103000000Y-101000000D03*
X107000000Y-101000000D03*
X109000000Y-102000000D03*
X105000000Y-102000000D03*
X103000000Y-103000000D03*
X103000000Y-105000000D03*
X105000000Y-104000000D03*
X107000000Y-103000000D03*
X109000000Y-104000000D03*
X107000000Y-105000000D03*
X105000000Y-106000000D03*
X103000000Y-107000000D03*
X101000000Y-108000000D03*
X99000000Y-109000000D03*
X97000000Y-110000000D03*
X91000000Y-111000000D03*
X93000000Y-112000000D03*
X95000000Y-117000000D03*
X95000000Y-115000000D03*
X91000000Y-115000000D03*
X93000000Y-116000000D03*
X105000000Y-120000000D03*
X103000000Y-119000000D03*
X107000000Y-123000000D03*
X105000000Y-122000000D03*
X97000000Y-120000000D03*
X97000000Y-122000000D03*
X99000000Y-121000000D03*
X101000000Y-122000000D03*
X103000000Y-121000000D03*
X103000000Y-123000000D03*
X105000000Y-124000000D03*
X103000000Y-125000000D03*
X105000000Y-126000000D03*
X107000000Y-125000000D03*
X99000000Y-145000000D03*
X99000000Y-149000000D03*
X99000000Y-151000000D03*
X99000000Y-153000000D03*
X85000000Y-148000000D03*
X83000000Y-149000000D03*
X87000000Y-149000000D03*
X91000000Y-151000000D03*
X89000000Y-150000000D03*
X87000000Y-151000000D03*
X89000000Y-152000000D03*
X87000000Y-153000000D03*
X89000000Y-154000000D03*
X91000000Y-153000000D03*
X95000000Y-153000000D03*
X97000000Y-154000000D03*
X95000000Y-155000000D03*
X93000000Y-154000000D03*
X91000000Y-155000000D03*
X93000000Y-156000000D03*
X101000000Y-148000000D03*
X101000000Y-144000000D03*
X101000000Y-142000000D03*
X101000000Y-146000000D03*
X101000000Y-152000000D03*
X101000000Y-150000000D03*
X101000000Y-154000000D03*
X105000000Y-134000000D03*
X105000000Y-130000000D03*
X105000000Y-128000000D03*
X105000000Y-132000000D03*
X103000000Y-139000000D03*
X103000000Y-135000000D03*
X103000000Y-133000000D03*
X105000000Y-142000000D03*
X105000000Y-138000000D03*
X105000000Y-136000000D03*
X105000000Y-140000000D03*
X103000000Y-147000000D03*
X103000000Y-143000000D03*
X103000000Y-141000000D03*
X103000000Y-145000000D03*
X105000000Y-150000000D03*
X105000000Y-146000000D03*
X105000000Y-144000000D03*
X105000000Y-148000000D03*
X103000000Y-155000000D03*
X103000000Y-151000000D03*
X103000000Y-149000000D03*
X103000000Y-153000000D03*
X107000000Y-129000000D03*
X107000000Y-127000000D03*
X109000000Y-126000000D03*
X109000000Y-124000000D03*
X109000000Y-134000000D03*
X109000000Y-130000000D03*
X109000000Y-128000000D03*
X109000000Y-132000000D03*
X109000000Y-142000000D03*
X109000000Y-138000000D03*
X109000000Y-136000000D03*
X109000000Y-140000000D03*
X109000000Y-150000000D03*
X109000000Y-146000000D03*
X109000000Y-144000000D03*
X109000000Y-148000000D03*
X109000000Y-154000000D03*
X109000000Y-152000000D03*
X109000000Y-156000000D03*
X107000000Y-157000000D03*
X107000000Y-155000000D03*
X105000000Y-154000000D03*
X105000000Y-152000000D03*
X105000000Y-156000000D03*
X103000000Y-163000000D03*
X103000000Y-159000000D03*
X103000000Y-157000000D03*
X101000000Y-164000000D03*
X101000000Y-160000000D03*
X101000000Y-158000000D03*
X101000000Y-162000000D03*
X99000000Y-163000000D03*
X99000000Y-159000000D03*
X99000000Y-161000000D03*
X97000000Y-164000000D03*
X97000000Y-160000000D03*
X97000000Y-158000000D03*
X97000000Y-162000000D03*
X95000000Y-163000000D03*
X95000000Y-159000000D03*
X95000000Y-157000000D03*
X95000000Y-161000000D03*
X93000000Y-164000000D03*
X93000000Y-160000000D03*
X93000000Y-158000000D03*
X93000000Y-162000000D03*
X91000000Y-163000000D03*
X91000000Y-159000000D03*
X91000000Y-157000000D03*
X91000000Y-161000000D03*
X89000000Y-164000000D03*
X89000000Y-160000000D03*
X89000000Y-162000000D03*
X87000000Y-163000000D03*
X87000000Y-159000000D03*
X87000000Y-161000000D03*
X73000000Y-164000000D03*
X75000000Y-163000000D03*
X77000000Y-164000000D03*
X77000000Y-162000000D03*
X79000000Y-163000000D03*
X79000000Y-161000000D03*
X81000000Y-162000000D03*
X81000000Y-160000000D03*
X81000000Y-164000000D03*
X83000000Y-161000000D03*
X83000000Y-159000000D03*
X83000000Y-163000000D03*
X85000000Y-164000000D03*
X85000000Y-160000000D03*
X85000000Y-158000000D03*
X85000000Y-162000000D03*
X71000000Y-155000000D03*
X71000000Y-151000000D03*
X71000000Y-149000000D03*
X71000000Y-153000000D03*
X81160000Y-150557836D03*
X81160000Y-148557836D03*
X79000000Y-151000000D03*
X79000000Y-147000000D03*
X79000000Y-149000000D03*
X77000000Y-152000000D03*
X77000000Y-148000000D03*
X77000000Y-146000000D03*
X77000000Y-150000000D03*
X75000000Y-153000000D03*
X75000000Y-149000000D03*
X75000000Y-147000000D03*
X75000000Y-151000000D03*
X73000000Y-154000000D03*
X73000000Y-150000000D03*
X73000000Y-148000000D03*
X73000000Y-152000000D03*
X85000000Y-156000000D03*
X85000000Y-152000000D03*
X85000000Y-150000000D03*
X85000000Y-154000000D03*
X83000000Y-157000000D03*
X83000000Y-153000000D03*
X83000000Y-151000000D03*
X83000000Y-155000000D03*
X81000000Y-158000000D03*
X81000000Y-154000000D03*
X81000000Y-152000000D03*
X81000000Y-156000000D03*
X79000000Y-159000000D03*
X79000000Y-155000000D03*
X79000000Y-153000000D03*
X79000000Y-157000000D03*
X77000000Y-160000000D03*
X77000000Y-156000000D03*
X77000000Y-154000000D03*
X77000000Y-158000000D03*
X75000000Y-161000000D03*
X75000000Y-157000000D03*
X75000000Y-155000000D03*
X75000000Y-159000000D03*
X73000000Y-162000000D03*
X73000000Y-158000000D03*
X73000000Y-156000000D03*
X73000000Y-160000000D03*
X71000000Y-157000000D03*
X71000000Y-161000000D03*
X71000000Y-163000000D03*
X71000000Y-159000000D03*
X69000000Y-148000000D03*
X69000000Y-150000000D03*
X67000000Y-151000000D03*
X69000000Y-152000000D03*
X67000000Y-153000000D03*
X69000000Y-154000000D03*
X69000000Y-164000000D03*
X69000000Y-162000000D03*
X69000000Y-160000000D03*
X67000000Y-159000000D03*
X67000000Y-161000000D03*
X67000000Y-163000000D03*
X65000000Y-154000000D03*
X65000000Y-156000000D03*
X65000000Y-158000000D03*
X65000000Y-160000000D03*
X65000000Y-162000000D03*
X65000000Y-164000000D03*
X63000000Y-163000000D03*
X63000000Y-161000000D03*
X63000000Y-159000000D03*
X63000000Y-153000000D03*
X63000000Y-155000000D03*
X63000000Y-157000000D03*
X61000000Y-158000000D03*
X61000000Y-156000000D03*
X61000000Y-154000000D03*
X61000000Y-152000000D03*
X61000000Y-146000000D03*
X61000000Y-144000000D03*
X59000000Y-143000000D03*
X59000000Y-145000000D03*
X59000000Y-147000000D03*
X59000000Y-151000000D03*
X59000000Y-153000000D03*
X57000000Y-154000000D03*
X57000000Y-152000000D03*
X57000000Y-150000000D03*
X61000000Y-164000000D03*
X61000000Y-162000000D03*
X61000000Y-160000000D03*
X59000000Y-159000000D03*
X59000000Y-161000000D03*
X59000000Y-163000000D03*
X57000000Y-164000000D03*
X57000000Y-162000000D03*
X57000000Y-160000000D03*
X55000000Y-163000000D03*
X55000000Y-161000000D03*
X55000000Y-159000000D03*
X55000000Y-157000000D03*
X55000000Y-155000000D03*
X55000000Y-153000000D03*
X55000000Y-151000000D03*
X55000000Y-149000000D03*
X49000000Y-156000000D03*
X53000000Y-156000000D03*
X51000000Y-155000000D03*
X53000000Y-154000000D03*
X49000000Y-154000000D03*
X47000000Y-157000000D03*
X47000000Y-155000000D03*
X47000000Y-153000000D03*
X53000000Y-152000000D03*
X53000000Y-150000000D03*
X47000000Y-151000000D03*
X55000000Y-147000000D03*
X53000000Y-148000000D03*
X47000000Y-149000000D03*
X57000000Y-138000000D03*
X57000000Y-148000000D03*
X57000000Y-132000000D03*
X57000000Y-140000000D03*
X57000000Y-146000000D03*
X57000000Y-134000000D03*
X57000000Y-142000000D03*
X57000000Y-136000000D03*
X57000000Y-144000000D03*
X57000000Y-130000000D03*
X61000000Y-114000000D03*
X61000000Y-124000000D03*
X61000000Y-108000000D03*
X61000000Y-116000000D03*
X61000000Y-122000000D03*
X61000000Y-110000000D03*
X61000000Y-118000000D03*
X61000000Y-112000000D03*
X61000000Y-120000000D03*
X61000000Y-106000000D03*
X59000000Y-125000000D03*
X59000000Y-113000000D03*
X59000000Y-107000000D03*
X59000000Y-109000000D03*
X59000000Y-111000000D03*
X59000000Y-105000000D03*
X57000000Y-126000000D03*
X57000000Y-128000000D03*
X57000000Y-108000000D03*
X57000000Y-110000000D03*
X57000000Y-112000000D03*
X57000000Y-106000000D03*
X55000000Y-143000000D03*
X55000000Y-145000000D03*
X55000000Y-131000000D03*
X55000000Y-141000000D03*
X55000000Y-125000000D03*
X55000000Y-133000000D03*
X55000000Y-139000000D03*
X55000000Y-127000000D03*
X55000000Y-135000000D03*
X55000000Y-129000000D03*
X55000000Y-137000000D03*
X55000000Y-123000000D03*
X53000000Y-144000000D03*
X53000000Y-146000000D03*
X53000000Y-132000000D03*
X53000000Y-142000000D03*
X53000000Y-126000000D03*
X53000000Y-134000000D03*
X53000000Y-140000000D03*
X53000000Y-128000000D03*
X53000000Y-136000000D03*
X53000000Y-130000000D03*
X53000000Y-138000000D03*
X53000000Y-124000000D03*
X51000000Y-131000000D03*
X51000000Y-125000000D03*
X51000000Y-133000000D03*
X51000000Y-139000000D03*
X51000000Y-127000000D03*
X51000000Y-135000000D03*
X51000000Y-129000000D03*
X51000000Y-137000000D03*
X49000000Y-132000000D03*
X49000000Y-126000000D03*
X49000000Y-134000000D03*
X49000000Y-140000000D03*
X49000000Y-128000000D03*
X49000000Y-136000000D03*
X49000000Y-130000000D03*
X49000000Y-138000000D03*
X49000000Y-124000000D03*
X55000000Y-107000000D03*
X55000000Y-101000000D03*
X55000000Y-109000000D03*
X55000000Y-115000000D03*
X55000000Y-103000000D03*
X55000000Y-111000000D03*
X55000000Y-105000000D03*
X55000000Y-113000000D03*
X55000000Y-99000000D03*
X53000000Y-108000000D03*
X53000000Y-102000000D03*
X53000000Y-110000000D03*
X53000000Y-104000000D03*
X53000000Y-112000000D03*
X53000000Y-106000000D03*
X53000000Y-114000000D03*
X53000000Y-100000000D03*
X51000000Y-107000000D03*
X51000000Y-101000000D03*
X51000000Y-109000000D03*
X51000000Y-103000000D03*
X51000000Y-111000000D03*
X51000000Y-105000000D03*
X51000000Y-113000000D03*
X51000000Y-99000000D03*
X49000000Y-108000000D03*
X49000000Y-102000000D03*
X49000000Y-110000000D03*
X49000000Y-104000000D03*
X49000000Y-112000000D03*
X49000000Y-106000000D03*
X49000000Y-114000000D03*
X49000000Y-100000000D03*
X47000000Y-145000000D03*
X47000000Y-147000000D03*
X47000000Y-133000000D03*
X47000000Y-143000000D03*
X47000000Y-127000000D03*
X47000000Y-135000000D03*
X47000000Y-141000000D03*
X47000000Y-129000000D03*
X47000000Y-137000000D03*
X47000000Y-131000000D03*
X47000000Y-139000000D03*
X47000000Y-125000000D03*
X47000000Y-121000000D03*
X47000000Y-123000000D03*
X47000000Y-109000000D03*
X47000000Y-119000000D03*
X47000000Y-103000000D03*
X47000000Y-111000000D03*
X47000000Y-117000000D03*
X47000000Y-105000000D03*
X47000000Y-113000000D03*
X47000000Y-107000000D03*
X47000000Y-115000000D03*
X47000000Y-101000000D03*
X47000000Y-99000000D03*
X102000000Y-91000000D03*
X100000000Y-91000000D03*
X98000000Y-91000000D03*
X96000000Y-91000000D03*
X94000000Y-91000000D03*
X92000000Y-91000000D03*
X90000000Y-91000000D03*
X88000000Y-91000000D03*
X86000000Y-91000000D03*
X84000000Y-91000000D03*
X58000000Y-91000000D03*
X56000000Y-91000000D03*
X54000000Y-91000000D03*
D17*
X76400000Y-108000000D03*
%TO.N,+3V3*%
X86900000Y-118700000D03*
%TO.N,GND*%
X70500000Y-111000000D03*
X67750000Y-116200000D03*
X73175252Y-120906624D03*
X83549997Y-120150000D03*
X82650000Y-119849997D03*
%TO.N,+3V3*%
X82650000Y-120750000D03*
X84450000Y-120150000D03*
%TO.N,GND*%
X85300000Y-112500000D03*
X81700003Y-92600000D03*
%TO.N,+3V3*%
X80800000Y-92500000D03*
%TO.N,GND*%
X57513602Y-92213602D03*
%TO.N,+3V3*%
X99400000Y-100975000D03*
%TO.N,GND*%
X63009314Y-140990686D03*
X74817326Y-138100344D03*
X67078254Y-129486952D03*
X78295013Y-139697507D03*
X90800000Y-136600000D03*
%TO.N,+3V3A*%
X91700000Y-136900000D03*
X79100000Y-140100000D03*
%TO.N,GND*%
X85300386Y-142201459D03*
%TO.N,VCOM*%
X86200000Y-142175000D03*
%TO.N,GND*%
X81725000Y-143125000D03*
X82575000Y-142775000D03*
X84975000Y-143825000D03*
X90190000Y-145330000D03*
X82070000Y-134750000D03*
X82060000Y-135680000D03*
X82080000Y-136680000D03*
X81230000Y-137080000D03*
X80120000Y-137160000D03*
X84690583Y-128992747D03*
X59790000Y-135260000D03*
%TO.N,+5V*%
X59800000Y-134330000D03*
D16*
%TO.N,GND*%
X87250000Y-101000000D03*
X101000000Y-119500000D03*
D17*
X101107500Y-98000000D03*
D16*
%TO.N,+5V*%
X85100000Y-129850000D03*
X88250000Y-101000000D03*
X101050000Y-118450000D03*
%TO.N,GND*%
X98475000Y-102000000D03*
X94800000Y-108175003D03*
%TO.N,+3V3*%
X98450000Y-100975000D03*
X94800000Y-107175000D03*
%TO.N,GND*%
X89500000Y-104025000D03*
X90600000Y-104050000D03*
X91275000Y-101900000D03*
X93400000Y-101925000D03*
X97725000Y-104000000D03*
X96575000Y-104025000D03*
X106300000Y-120500000D03*
X106300000Y-108450000D03*
D17*
X84000000Y-105000000D03*
D16*
%TO.N,/MCU/TIM4_CH3*%
X83200000Y-104450000D03*
D17*
%TO.N,GND*%
X81900000Y-102200000D03*
D16*
%TO.N,/MCU/TIM4_CH1*%
X80950000Y-102200000D03*
D17*
%TO.N,GND*%
X80350000Y-107300000D03*
D16*
%TO.N,/MCU/TIM4_CH3*%
X79969221Y-108170352D03*
D17*
%TO.N,GND*%
X79550000Y-106850000D03*
D16*
%TO.N,/MCU/TIM4_CH1*%
X79500000Y-105900000D03*
%TO.N,GND*%
X78050000Y-105789950D03*
D17*
X79350000Y-101450000D03*
D16*
%TO.N,/MCU/TIM4_CH2*%
X78400000Y-101450000D03*
D17*
X76150000Y-106600000D03*
%TO.N,GND*%
X77043838Y-106494843D03*
X78850000Y-94500000D03*
X62050000Y-102250000D03*
%TO.N,+3V3*%
X58150000Y-92850000D03*
%TO.N,GND*%
X70000000Y-93450000D03*
X69950000Y-94350000D03*
X70000000Y-98000000D03*
X59600000Y-96150000D03*
X59050000Y-96950000D03*
X59650000Y-97750000D03*
X59050000Y-98550000D03*
X83857893Y-110131053D03*
X80700000Y-115200000D03*
%TO.N,/MCU/MCU_NRST*%
X84750000Y-110250000D03*
%TO.N,+3V3*%
X85300000Y-111550000D03*
%TO.N,GND*%
X77523116Y-112417638D03*
X72450000Y-105800000D03*
X74284620Y-107146140D03*
X82550003Y-109100000D03*
%TO.N,/MCU/MCU_NRST*%
X80700000Y-114300000D03*
%TO.N,+3V3*%
X75500000Y-108000000D03*
%TO.N,/MCU/MCU_SWDIO*%
X71800000Y-106500000D03*
X77000000Y-113150000D03*
%TO.N,/MCU/MCU_SWCLK*%
X74284620Y-108065380D03*
X81650000Y-109100000D03*
%TO.N,GND*%
X97450000Y-147350000D03*
X92650000Y-138700000D03*
X97900000Y-142850000D03*
X95000000Y-140950000D03*
X100350000Y-136500000D03*
X100550000Y-132250000D03*
X101300000Y-135550000D03*
X93009620Y-134490380D03*
X92050000Y-131350000D03*
%TO.N,DAC_NLDAC*%
X99650000Y-132250000D03*
%TO.N,GND*%
X98900000Y-132950000D03*
%TO.N,DAC_NLDAC*%
X92050000Y-132250000D03*
%TO.N,GND*%
X96000000Y-133800000D03*
X94600000Y-129100000D03*
X100450000Y-127300000D03*
%TO.N,SPI2_NSS*%
X94650000Y-128200000D03*
%TO.N,GND*%
X95850000Y-127150000D03*
X96300000Y-128100000D03*
%TO.N,SPI2_NSS*%
X100450000Y-128200000D03*
%TO.N,GND*%
X66250000Y-137000000D03*
X73450000Y-132900000D03*
X65850000Y-146500000D03*
X65000000Y-146100000D03*
X62000000Y-137200000D03*
X63050000Y-137200000D03*
%TO.N,VCOM*%
X73917500Y-138082500D03*
%TO.N,GND*%
X72450000Y-140300000D03*
%TO.N,VCOM*%
X63150000Y-140000000D03*
%TO.N,GND*%
X65900000Y-140200000D03*
X70100000Y-138050000D03*
X66350000Y-131300000D03*
X62550000Y-131750000D03*
X63500000Y-131750000D03*
%TO.N,+3V3A*%
X67850000Y-129000000D03*
X67850000Y-129950000D03*
%TO.N,GND*%
X68250000Y-132000000D03*
X69550000Y-132000000D03*
X70850000Y-131450000D03*
X70850000Y-132500000D03*
X70250000Y-127800000D03*
X69700000Y-126800000D03*
X76700000Y-124350000D03*
X74900000Y-121750000D03*
%TO.N,+3V3*%
X74050000Y-120650000D03*
%TO.N,SPI1_NSS*%
X75800000Y-124350000D03*
X75800000Y-121750000D03*
%TO.N,GND*%
X103400000Y-114050000D03*
%TO.N,+3V3*%
X68650000Y-116150000D03*
%TO.N,GND*%
X81350000Y-112500000D03*
X80750000Y-117600000D03*
X75650000Y-115500000D03*
X76250000Y-111900000D03*
X65200000Y-112450000D03*
X65750000Y-113250000D03*
X69500000Y-108700000D03*
X68650000Y-108200000D03*
X72500000Y-110100000D03*
X71400000Y-109300000D03*
%TO.N,+3V3*%
X70300000Y-111900000D03*
%TO.N,DAC_NCLR*%
X100400000Y-135550000D03*
X92100000Y-134500000D03*
%TD*%
%TA.AperFunction,Conductor*%
%TO.N,GND*%
G36*
X107002702Y-89500617D02*
G01*
X107386771Y-89517386D01*
X107397506Y-89518326D01*
X107775971Y-89568152D01*
X107786597Y-89570025D01*
X108159284Y-89652648D01*
X108169710Y-89655442D01*
X108533765Y-89770227D01*
X108543911Y-89773920D01*
X108896578Y-89920000D01*
X108906369Y-89924566D01*
X109244942Y-90100816D01*
X109254310Y-90106224D01*
X109576244Y-90311318D01*
X109585105Y-90317523D01*
X109887930Y-90549889D01*
X109896217Y-90556843D01*
X110177635Y-90814715D01*
X110185284Y-90822364D01*
X110443156Y-91103782D01*
X110450110Y-91112069D01*
X110682476Y-91414894D01*
X110688681Y-91423755D01*
X110893775Y-91745689D01*
X110899183Y-91755057D01*
X111075430Y-92093623D01*
X111080002Y-92103427D01*
X111226075Y-92456078D01*
X111229775Y-92466244D01*
X111344554Y-92830278D01*
X111347354Y-92840727D01*
X111429971Y-93213389D01*
X111431849Y-93224042D01*
X111481671Y-93602473D01*
X111482614Y-93613249D01*
X111499382Y-93997297D01*
X111499500Y-94002706D01*
X111499500Y-109314155D01*
X111479815Y-109381194D01*
X111427011Y-109426949D01*
X111357853Y-109436893D01*
X111328048Y-109428716D01*
X111283501Y-109410264D01*
X111283489Y-109410261D01*
X111128845Y-109379500D01*
X111128842Y-109379500D01*
X110171158Y-109379500D01*
X110171155Y-109379500D01*
X110016510Y-109410261D01*
X110016498Y-109410264D01*
X109870827Y-109470602D01*
X109870814Y-109470609D01*
X109739711Y-109558210D01*
X109739707Y-109558213D01*
X109628213Y-109669707D01*
X109628210Y-109669711D01*
X109540609Y-109800814D01*
X109540602Y-109800827D01*
X109480264Y-109946498D01*
X109480261Y-109946510D01*
X109449500Y-110101153D01*
X109449500Y-110258846D01*
X109480261Y-110413489D01*
X109480264Y-110413501D01*
X109540602Y-110559172D01*
X109540609Y-110559185D01*
X109628210Y-110690288D01*
X109628213Y-110690292D01*
X109739707Y-110801786D01*
X109739711Y-110801789D01*
X109870814Y-110889390D01*
X109870827Y-110889397D01*
X110016498Y-110949735D01*
X110016503Y-110949737D01*
X110133398Y-110972989D01*
X110171153Y-110980499D01*
X110171156Y-110980500D01*
X110171158Y-110980500D01*
X111128844Y-110980500D01*
X111128845Y-110980499D01*
X111283497Y-110949737D01*
X111328050Y-110931282D01*
X111397515Y-110923814D01*
X111459995Y-110955088D01*
X111495648Y-111015177D01*
X111499500Y-111045844D01*
X111499500Y-117954155D01*
X111479815Y-118021194D01*
X111427011Y-118066949D01*
X111357853Y-118076893D01*
X111328048Y-118068716D01*
X111283501Y-118050264D01*
X111283489Y-118050261D01*
X111128845Y-118019500D01*
X111128842Y-118019500D01*
X110171158Y-118019500D01*
X110171155Y-118019500D01*
X110016510Y-118050261D01*
X110016498Y-118050264D01*
X109870827Y-118110602D01*
X109870814Y-118110609D01*
X109739711Y-118198210D01*
X109739707Y-118198213D01*
X109628213Y-118309707D01*
X109628210Y-118309711D01*
X109540609Y-118440814D01*
X109540602Y-118440827D01*
X109480264Y-118586498D01*
X109480261Y-118586510D01*
X109449500Y-118741153D01*
X109449500Y-118898846D01*
X109480261Y-119053489D01*
X109480264Y-119053501D01*
X109540602Y-119199172D01*
X109540609Y-119199185D01*
X109628210Y-119330288D01*
X109628213Y-119330292D01*
X109739707Y-119441786D01*
X109739711Y-119441789D01*
X109870814Y-119529390D01*
X109870827Y-119529397D01*
X110016498Y-119589735D01*
X110016503Y-119589737D01*
X110171153Y-119620499D01*
X110171156Y-119620500D01*
X110171158Y-119620500D01*
X111128844Y-119620500D01*
X111128845Y-119620499D01*
X111283497Y-119589737D01*
X111328050Y-119571282D01*
X111397515Y-119563814D01*
X111459995Y-119595088D01*
X111495648Y-119655177D01*
X111499500Y-119685844D01*
X111499500Y-160997293D01*
X111499382Y-161002702D01*
X111482614Y-161386750D01*
X111481671Y-161397526D01*
X111431849Y-161775957D01*
X111429971Y-161786610D01*
X111347354Y-162159272D01*
X111344554Y-162169721D01*
X111229775Y-162533755D01*
X111226075Y-162543921D01*
X111080002Y-162896572D01*
X111075430Y-162906376D01*
X110899183Y-163244942D01*
X110893775Y-163254310D01*
X110688681Y-163576244D01*
X110682476Y-163585105D01*
X110450110Y-163887930D01*
X110443156Y-163896217D01*
X110185284Y-164177635D01*
X110177635Y-164185284D01*
X109896217Y-164443156D01*
X109887930Y-164450110D01*
X109585105Y-164682476D01*
X109576244Y-164688681D01*
X109254310Y-164893775D01*
X109244942Y-164899183D01*
X108906376Y-165075430D01*
X108896572Y-165080002D01*
X108543921Y-165226075D01*
X108533755Y-165229775D01*
X108169721Y-165344554D01*
X108159272Y-165347354D01*
X107786610Y-165429971D01*
X107775957Y-165431849D01*
X107397526Y-165481671D01*
X107386750Y-165482614D01*
X107002703Y-165499382D01*
X106997294Y-165499500D01*
X50002706Y-165499500D01*
X49997297Y-165499382D01*
X49613249Y-165482614D01*
X49602473Y-165481671D01*
X49224042Y-165431849D01*
X49213389Y-165429971D01*
X48840727Y-165347354D01*
X48830278Y-165344554D01*
X48466244Y-165229775D01*
X48456078Y-165226075D01*
X48103427Y-165080002D01*
X48093623Y-165075430D01*
X47755057Y-164899183D01*
X47745689Y-164893775D01*
X47423755Y-164688681D01*
X47414894Y-164682476D01*
X47112069Y-164450110D01*
X47103782Y-164443156D01*
X46822364Y-164185284D01*
X46814715Y-164177635D01*
X46556843Y-163896217D01*
X46549889Y-163887930D01*
X46317523Y-163585105D01*
X46311318Y-163576244D01*
X46106224Y-163254310D01*
X46100816Y-163244942D01*
X45924569Y-162906376D01*
X45919997Y-162896572D01*
X45773924Y-162543921D01*
X45770224Y-162533755D01*
X45655442Y-162169710D01*
X45652648Y-162159284D01*
X45570025Y-161786597D01*
X45568152Y-161775971D01*
X45518326Y-161397506D01*
X45517386Y-161386771D01*
X45500618Y-161002702D01*
X45500500Y-160997293D01*
X45500500Y-151300000D01*
X61859895Y-151300000D01*
X61880264Y-151506814D01*
X61940592Y-151705689D01*
X62038551Y-151888957D01*
X62038555Y-151888964D01*
X62170392Y-152049607D01*
X62331035Y-152181444D01*
X62331042Y-152181448D01*
X62514310Y-152279407D01*
X62514312Y-152279407D01*
X62514315Y-152279409D01*
X62713184Y-152339735D01*
X62713183Y-152339735D01*
X62731726Y-152341561D01*
X62920000Y-152360105D01*
X63126816Y-152339735D01*
X63325685Y-152279409D01*
X63508963Y-152181445D01*
X63669607Y-152049607D01*
X63801445Y-151888963D01*
X63899409Y-151705685D01*
X63959735Y-151506816D01*
X63980105Y-151300000D01*
X92859895Y-151300000D01*
X92880264Y-151506814D01*
X92940592Y-151705689D01*
X93038551Y-151888957D01*
X93038555Y-151888964D01*
X93170392Y-152049607D01*
X93331035Y-152181444D01*
X93331042Y-152181448D01*
X93514310Y-152279407D01*
X93514312Y-152279407D01*
X93514315Y-152279409D01*
X93713184Y-152339735D01*
X93713183Y-152339735D01*
X93731726Y-152341561D01*
X93920000Y-152360105D01*
X94126816Y-152339735D01*
X94325685Y-152279409D01*
X94508963Y-152181445D01*
X94669607Y-152049607D01*
X94801445Y-151888963D01*
X94899409Y-151705685D01*
X94959735Y-151506816D01*
X94980105Y-151300000D01*
X94959735Y-151093184D01*
X94899409Y-150894315D01*
X94899407Y-150894312D01*
X94899407Y-150894310D01*
X94801448Y-150711042D01*
X94801444Y-150711035D01*
X94669607Y-150550392D01*
X94508964Y-150418555D01*
X94508957Y-150418551D01*
X94325689Y-150320592D01*
X94226250Y-150290428D01*
X94126816Y-150260265D01*
X94126814Y-150260264D01*
X94126816Y-150260264D01*
X93920000Y-150239895D01*
X93713185Y-150260264D01*
X93514310Y-150320592D01*
X93331042Y-150418551D01*
X93331035Y-150418555D01*
X93170392Y-150550392D01*
X93038555Y-150711035D01*
X93038551Y-150711042D01*
X92940592Y-150894310D01*
X92880264Y-151093185D01*
X92859895Y-151300000D01*
X63980105Y-151300000D01*
X63959735Y-151093184D01*
X63899409Y-150894315D01*
X63899407Y-150894312D01*
X63899407Y-150894310D01*
X63801448Y-150711042D01*
X63801444Y-150711035D01*
X63669607Y-150550392D01*
X63508964Y-150418555D01*
X63508957Y-150418551D01*
X63325689Y-150320592D01*
X63226250Y-150290428D01*
X63126816Y-150260265D01*
X63126814Y-150260264D01*
X63126816Y-150260264D01*
X62920000Y-150239895D01*
X62713185Y-150260264D01*
X62514310Y-150320592D01*
X62331042Y-150418551D01*
X62331035Y-150418555D01*
X62170392Y-150550392D01*
X62038555Y-150711035D01*
X62038551Y-150711042D01*
X61940592Y-150894310D01*
X61880264Y-151093185D01*
X61859895Y-151300000D01*
X45500500Y-151300000D01*
X45500500Y-142174999D01*
X85544722Y-142174999D01*
X85544722Y-142175000D01*
X85563762Y-142331818D01*
X85619780Y-142479523D01*
X85709517Y-142609530D01*
X85827760Y-142714283D01*
X85827762Y-142714284D01*
X85967634Y-142787696D01*
X86121014Y-142825500D01*
X86121015Y-142825500D01*
X86278985Y-142825500D01*
X86432365Y-142787696D01*
X86572240Y-142714283D01*
X86690483Y-142609530D01*
X86780220Y-142479523D01*
X86836237Y-142331818D01*
X86855278Y-142175000D01*
X86836237Y-142018182D01*
X86780220Y-141870477D01*
X86690483Y-141740470D01*
X86572240Y-141635717D01*
X86572238Y-141635716D01*
X86572237Y-141635715D01*
X86432365Y-141562303D01*
X86278986Y-141524500D01*
X86278985Y-141524500D01*
X86121015Y-141524500D01*
X86121014Y-141524500D01*
X85967634Y-141562303D01*
X85827762Y-141635715D01*
X85709516Y-141740471D01*
X85619781Y-141870475D01*
X85619780Y-141870476D01*
X85563762Y-142018181D01*
X85544722Y-142174999D01*
X45500500Y-142174999D01*
X45500500Y-139999999D01*
X62494722Y-139999999D01*
X62494722Y-140000000D01*
X62513762Y-140156818D01*
X62551688Y-140256818D01*
X62569780Y-140304523D01*
X62659517Y-140434530D01*
X62777760Y-140539283D01*
X62777762Y-140539284D01*
X62917634Y-140612696D01*
X63071014Y-140650500D01*
X63071015Y-140650500D01*
X63228985Y-140650500D01*
X63382365Y-140612696D01*
X63522240Y-140539283D01*
X63640483Y-140434530D01*
X63730220Y-140304523D01*
X63786237Y-140156818D01*
X63793136Y-140099999D01*
X78444722Y-140099999D01*
X78444722Y-140100000D01*
X78463762Y-140256818D01*
X78481855Y-140304524D01*
X78519780Y-140404523D01*
X78609517Y-140534530D01*
X78727760Y-140639283D01*
X78727762Y-140639284D01*
X78867634Y-140712696D01*
X79021014Y-140750500D01*
X79021015Y-140750500D01*
X79178985Y-140750500D01*
X79332365Y-140712696D01*
X79472240Y-140639283D01*
X79590483Y-140534530D01*
X79680220Y-140404523D01*
X79736237Y-140256818D01*
X79755278Y-140100000D01*
X79736237Y-139943182D01*
X79680220Y-139795477D01*
X79590483Y-139665470D01*
X79472240Y-139560717D01*
X79472238Y-139560716D01*
X79472237Y-139560715D01*
X79332365Y-139487303D01*
X79178986Y-139449500D01*
X79178985Y-139449500D01*
X79021015Y-139449500D01*
X79021014Y-139449500D01*
X78867634Y-139487303D01*
X78727762Y-139560715D01*
X78609516Y-139665471D01*
X78519781Y-139795475D01*
X78519780Y-139795476D01*
X78463762Y-139943181D01*
X78444722Y-140099999D01*
X63793136Y-140099999D01*
X63805278Y-140000000D01*
X63786237Y-139843182D01*
X63730220Y-139695477D01*
X63640483Y-139565470D01*
X63522240Y-139460717D01*
X63522238Y-139460716D01*
X63522237Y-139460715D01*
X63382365Y-139387303D01*
X63228986Y-139349500D01*
X63228985Y-139349500D01*
X63071015Y-139349500D01*
X63071014Y-139349500D01*
X62917634Y-139387303D01*
X62777762Y-139460715D01*
X62659516Y-139565471D01*
X62569781Y-139695475D01*
X62569780Y-139695476D01*
X62513762Y-139843181D01*
X62494722Y-139999999D01*
X45500500Y-139999999D01*
X45500500Y-138082499D01*
X73262222Y-138082499D01*
X73262222Y-138082500D01*
X73281262Y-138239318D01*
X73337280Y-138387023D01*
X73427017Y-138517030D01*
X73545260Y-138621783D01*
X73545262Y-138621784D01*
X73685134Y-138695196D01*
X73838514Y-138733000D01*
X73838515Y-138733000D01*
X73996485Y-138733000D01*
X74149865Y-138695196D01*
X74289740Y-138621783D01*
X74407983Y-138517030D01*
X74497720Y-138387023D01*
X74553737Y-138239318D01*
X74572778Y-138082500D01*
X74553737Y-137925682D01*
X74497720Y-137777977D01*
X74407983Y-137647970D01*
X74289740Y-137543217D01*
X74289738Y-137543216D01*
X74289737Y-137543215D01*
X74149865Y-137469803D01*
X73996486Y-137432000D01*
X73996485Y-137432000D01*
X73838515Y-137432000D01*
X73838514Y-137432000D01*
X73685134Y-137469803D01*
X73545262Y-137543215D01*
X73427016Y-137647971D01*
X73337281Y-137777975D01*
X73337280Y-137777976D01*
X73281262Y-137925681D01*
X73262222Y-138082499D01*
X45500500Y-138082499D01*
X45500500Y-136899999D01*
X91044722Y-136899999D01*
X91044722Y-136900000D01*
X91063762Y-137056818D01*
X91119780Y-137204523D01*
X91209517Y-137334530D01*
X91327760Y-137439283D01*
X91327762Y-137439284D01*
X91467634Y-137512696D01*
X91621014Y-137550500D01*
X91621015Y-137550500D01*
X91778985Y-137550500D01*
X91932365Y-137512696D01*
X92072240Y-137439283D01*
X92190483Y-137334530D01*
X92280220Y-137204523D01*
X92336237Y-137056818D01*
X92355278Y-136900000D01*
X92336237Y-136743182D01*
X92280220Y-136595477D01*
X92190483Y-136465470D01*
X92072240Y-136360717D01*
X92072238Y-136360716D01*
X92072237Y-136360715D01*
X91932365Y-136287303D01*
X91778986Y-136249500D01*
X91778985Y-136249500D01*
X91621015Y-136249500D01*
X91621014Y-136249500D01*
X91467634Y-136287303D01*
X91327762Y-136360715D01*
X91209516Y-136465471D01*
X91119781Y-136595475D01*
X91119780Y-136595476D01*
X91063762Y-136743181D01*
X91044722Y-136899999D01*
X45500500Y-136899999D01*
X45500500Y-135549999D01*
X99744722Y-135549999D01*
X99744722Y-135550000D01*
X99763762Y-135706818D01*
X99819780Y-135854523D01*
X99909517Y-135984530D01*
X100027760Y-136089283D01*
X100027762Y-136089284D01*
X100167634Y-136162696D01*
X100321014Y-136200500D01*
X100321015Y-136200500D01*
X100478985Y-136200500D01*
X100632365Y-136162696D01*
X100772240Y-136089283D01*
X100890483Y-135984530D01*
X100980220Y-135854523D01*
X101036237Y-135706818D01*
X101055278Y-135550000D01*
X101036237Y-135393182D01*
X100980220Y-135245477D01*
X100890483Y-135115470D01*
X100772240Y-135010717D01*
X100772238Y-135010716D01*
X100772237Y-135010715D01*
X100632365Y-134937303D01*
X100478986Y-134899500D01*
X100478985Y-134899500D01*
X100321015Y-134899500D01*
X100321014Y-134899500D01*
X100167634Y-134937303D01*
X100027762Y-135010715D01*
X99909516Y-135115471D01*
X99819781Y-135245475D01*
X99819780Y-135245476D01*
X99763762Y-135393181D01*
X99744722Y-135549999D01*
X45500500Y-135549999D01*
X45500500Y-134329999D01*
X59144722Y-134329999D01*
X59144722Y-134330000D01*
X59163762Y-134486818D01*
X59219780Y-134634523D01*
X59309517Y-134764530D01*
X59427760Y-134869283D01*
X59427762Y-134869284D01*
X59567634Y-134942696D01*
X59721014Y-134980500D01*
X59721015Y-134980500D01*
X59878985Y-134980500D01*
X60032365Y-134942696D01*
X60047928Y-134934528D01*
X60172240Y-134869283D01*
X60290483Y-134764530D01*
X60380220Y-134634523D01*
X60431238Y-134499999D01*
X91444722Y-134499999D01*
X91444722Y-134500000D01*
X91463762Y-134656818D01*
X91519780Y-134804523D01*
X91609517Y-134934530D01*
X91727760Y-135039283D01*
X91727762Y-135039284D01*
X91867634Y-135112696D01*
X92021014Y-135150500D01*
X92021015Y-135150500D01*
X92178985Y-135150500D01*
X92332365Y-135112696D01*
X92472240Y-135039283D01*
X92590483Y-134934530D01*
X92680220Y-134804523D01*
X92736237Y-134656818D01*
X92755278Y-134500000D01*
X92753678Y-134486818D01*
X92736237Y-134343181D01*
X92714992Y-134287164D01*
X92680220Y-134195477D01*
X92590483Y-134065470D01*
X92472240Y-133960717D01*
X92472238Y-133960716D01*
X92472237Y-133960715D01*
X92332365Y-133887303D01*
X92178986Y-133849500D01*
X92178985Y-133849500D01*
X92021015Y-133849500D01*
X92021014Y-133849500D01*
X91867634Y-133887303D01*
X91727762Y-133960715D01*
X91609516Y-134065471D01*
X91519781Y-134195475D01*
X91519780Y-134195476D01*
X91463762Y-134343181D01*
X91444722Y-134499999D01*
X60431238Y-134499999D01*
X60436237Y-134486818D01*
X60455278Y-134330000D01*
X60436237Y-134173182D01*
X60380220Y-134025477D01*
X60290483Y-133895470D01*
X60172240Y-133790717D01*
X60172238Y-133790716D01*
X60172237Y-133790715D01*
X60032365Y-133717303D01*
X59878986Y-133679500D01*
X59878985Y-133679500D01*
X59721015Y-133679500D01*
X59721014Y-133679500D01*
X59567634Y-133717303D01*
X59427762Y-133790715D01*
X59309516Y-133895471D01*
X59219781Y-134025475D01*
X59219780Y-134025476D01*
X59163762Y-134173181D01*
X59144722Y-134329999D01*
X45500500Y-134329999D01*
X45500500Y-132249999D01*
X91394722Y-132249999D01*
X91394722Y-132250000D01*
X91413762Y-132406818D01*
X91469780Y-132554523D01*
X91559517Y-132684530D01*
X91677760Y-132789283D01*
X91677762Y-132789284D01*
X91817634Y-132862696D01*
X91971014Y-132900500D01*
X91971015Y-132900500D01*
X92128985Y-132900500D01*
X92282365Y-132862696D01*
X92422240Y-132789283D01*
X92540483Y-132684530D01*
X92630220Y-132554523D01*
X92686237Y-132406818D01*
X92705278Y-132250000D01*
X92705278Y-132249999D01*
X98994722Y-132249999D01*
X98994722Y-132250000D01*
X99013762Y-132406818D01*
X99069780Y-132554523D01*
X99159517Y-132684530D01*
X99277760Y-132789283D01*
X99277762Y-132789284D01*
X99417634Y-132862696D01*
X99571014Y-132900500D01*
X99571015Y-132900500D01*
X99728985Y-132900500D01*
X99882365Y-132862696D01*
X100022240Y-132789283D01*
X100140483Y-132684530D01*
X100230220Y-132554523D01*
X100286237Y-132406818D01*
X100305278Y-132250000D01*
X100286237Y-132093182D01*
X100230220Y-131945477D01*
X100140483Y-131815470D01*
X100022240Y-131710717D01*
X100022238Y-131710716D01*
X100022237Y-131710715D01*
X99882365Y-131637303D01*
X99728986Y-131599500D01*
X99728985Y-131599500D01*
X99571015Y-131599500D01*
X99571014Y-131599500D01*
X99417634Y-131637303D01*
X99277762Y-131710715D01*
X99159516Y-131815471D01*
X99069781Y-131945475D01*
X99069780Y-131945476D01*
X99013762Y-132093181D01*
X98994722Y-132249999D01*
X92705278Y-132249999D01*
X92686237Y-132093182D01*
X92630220Y-131945477D01*
X92540483Y-131815470D01*
X92422240Y-131710717D01*
X92422238Y-131710716D01*
X92422237Y-131710715D01*
X92282365Y-131637303D01*
X92128986Y-131599500D01*
X92128985Y-131599500D01*
X91971015Y-131599500D01*
X91971014Y-131599500D01*
X91817634Y-131637303D01*
X91677762Y-131710715D01*
X91559516Y-131815471D01*
X91469781Y-131945475D01*
X91469780Y-131945476D01*
X91413762Y-132093181D01*
X91394722Y-132249999D01*
X45500500Y-132249999D01*
X45500500Y-128999999D01*
X67194722Y-128999999D01*
X67194722Y-129000000D01*
X67213762Y-129156818D01*
X67269780Y-129304523D01*
X67269781Y-129304524D01*
X67338830Y-129404560D01*
X67360713Y-129470915D01*
X67343247Y-129538566D01*
X67338830Y-129545440D01*
X67269781Y-129645475D01*
X67269780Y-129645476D01*
X67213762Y-129793181D01*
X67194722Y-129949999D01*
X67194722Y-129950000D01*
X67213762Y-130106818D01*
X67269780Y-130254523D01*
X67359517Y-130384530D01*
X67477760Y-130489283D01*
X67477762Y-130489284D01*
X67617634Y-130562696D01*
X67771014Y-130600500D01*
X67771015Y-130600500D01*
X67928985Y-130600500D01*
X68082365Y-130562696D01*
X68105602Y-130550500D01*
X68222240Y-130489283D01*
X68340483Y-130384530D01*
X68430220Y-130254523D01*
X68486237Y-130106818D01*
X68505278Y-129950000D01*
X68493136Y-129850000D01*
X84394355Y-129850000D01*
X84414859Y-130018869D01*
X84414860Y-130018874D01*
X84475182Y-130177931D01*
X84528051Y-130254523D01*
X84571817Y-130317929D01*
X84677505Y-130411560D01*
X84699150Y-130430736D01*
X84849773Y-130509789D01*
X84849775Y-130509790D01*
X85014944Y-130550500D01*
X85185056Y-130550500D01*
X85350225Y-130509790D01*
X85429692Y-130468081D01*
X85500849Y-130430736D01*
X85500850Y-130430734D01*
X85500852Y-130430734D01*
X85628183Y-130317929D01*
X85724818Y-130177930D01*
X85785140Y-130018872D01*
X85805645Y-129850000D01*
X85785140Y-129681128D01*
X85724818Y-129522070D01*
X85720262Y-129515470D01*
X85664393Y-129434530D01*
X85628183Y-129382071D01*
X85500852Y-129269266D01*
X85500849Y-129269263D01*
X85350226Y-129190210D01*
X85185056Y-129149500D01*
X85014944Y-129149500D01*
X84849773Y-129190210D01*
X84699150Y-129269263D01*
X84571816Y-129382072D01*
X84475182Y-129522068D01*
X84414860Y-129681125D01*
X84414859Y-129681130D01*
X84394355Y-129850000D01*
X68493136Y-129850000D01*
X68486237Y-129793182D01*
X68430220Y-129645477D01*
X68361168Y-129545438D01*
X68339286Y-129479086D01*
X68356751Y-129411434D01*
X68361159Y-129404575D01*
X68430220Y-129304523D01*
X68486237Y-129156818D01*
X68505278Y-129000000D01*
X68486237Y-128843182D01*
X68430220Y-128695477D01*
X68340483Y-128565470D01*
X68222240Y-128460717D01*
X68222238Y-128460716D01*
X68222237Y-128460715D01*
X68082365Y-128387303D01*
X67928986Y-128349500D01*
X67928985Y-128349500D01*
X67771015Y-128349500D01*
X67771014Y-128349500D01*
X67617634Y-128387303D01*
X67477762Y-128460715D01*
X67359516Y-128565471D01*
X67269781Y-128695475D01*
X67269780Y-128695476D01*
X67213762Y-128843181D01*
X67194722Y-128999999D01*
X45500500Y-128999999D01*
X45500500Y-128199999D01*
X93994722Y-128199999D01*
X93994722Y-128200000D01*
X94013762Y-128356818D01*
X94069780Y-128504523D01*
X94159517Y-128634530D01*
X94277760Y-128739283D01*
X94277762Y-128739284D01*
X94417634Y-128812696D01*
X94571014Y-128850500D01*
X94571015Y-128850500D01*
X94728985Y-128850500D01*
X94882365Y-128812696D01*
X95022240Y-128739283D01*
X95140483Y-128634530D01*
X95230220Y-128504523D01*
X95286237Y-128356818D01*
X95305278Y-128200000D01*
X95305278Y-128199999D01*
X99794722Y-128199999D01*
X99794722Y-128200000D01*
X99813762Y-128356818D01*
X99869780Y-128504523D01*
X99959517Y-128634530D01*
X100077760Y-128739283D01*
X100077762Y-128739284D01*
X100217634Y-128812696D01*
X100371014Y-128850500D01*
X100371015Y-128850500D01*
X100528985Y-128850500D01*
X100682365Y-128812696D01*
X100822240Y-128739283D01*
X100940483Y-128634530D01*
X101030220Y-128504523D01*
X101086237Y-128356818D01*
X101105278Y-128200000D01*
X101086237Y-128043182D01*
X101030220Y-127895477D01*
X100940483Y-127765470D01*
X100822240Y-127660717D01*
X100822238Y-127660716D01*
X100822237Y-127660715D01*
X100682365Y-127587303D01*
X100528986Y-127549500D01*
X100528985Y-127549500D01*
X100371015Y-127549500D01*
X100371014Y-127549500D01*
X100217634Y-127587303D01*
X100077762Y-127660715D01*
X99959516Y-127765471D01*
X99869781Y-127895475D01*
X99869780Y-127895476D01*
X99813762Y-128043181D01*
X99794722Y-128199999D01*
X95305278Y-128199999D01*
X95286237Y-128043182D01*
X95230220Y-127895477D01*
X95140483Y-127765470D01*
X95022240Y-127660717D01*
X95022238Y-127660716D01*
X95022237Y-127660715D01*
X94882365Y-127587303D01*
X94728986Y-127549500D01*
X94728985Y-127549500D01*
X94571015Y-127549500D01*
X94571014Y-127549500D01*
X94417634Y-127587303D01*
X94277762Y-127660715D01*
X94159516Y-127765471D01*
X94069781Y-127895475D01*
X94069780Y-127895476D01*
X94013762Y-128043181D01*
X93994722Y-128199999D01*
X45500500Y-128199999D01*
X45500500Y-124349999D01*
X75144722Y-124349999D01*
X75144722Y-124350000D01*
X75163762Y-124506818D01*
X75219780Y-124654523D01*
X75309517Y-124784530D01*
X75427760Y-124889283D01*
X75427762Y-124889284D01*
X75567634Y-124962696D01*
X75721014Y-125000500D01*
X75721015Y-125000500D01*
X75878985Y-125000500D01*
X76032365Y-124962696D01*
X76172240Y-124889283D01*
X76290483Y-124784530D01*
X76380220Y-124654523D01*
X76436237Y-124506818D01*
X76455278Y-124350000D01*
X76436237Y-124193182D01*
X76380220Y-124045477D01*
X76290483Y-123915470D01*
X76172240Y-123810717D01*
X76172238Y-123810716D01*
X76172237Y-123810715D01*
X76032365Y-123737303D01*
X75878986Y-123699500D01*
X75878985Y-123699500D01*
X75721015Y-123699500D01*
X75721014Y-123699500D01*
X75567634Y-123737303D01*
X75427762Y-123810715D01*
X75309516Y-123915471D01*
X75219781Y-124045475D01*
X75219780Y-124045476D01*
X75163762Y-124193181D01*
X75144722Y-124349999D01*
X45500500Y-124349999D01*
X45500500Y-121749999D01*
X75144722Y-121749999D01*
X75144722Y-121750000D01*
X75163762Y-121906818D01*
X75219780Y-122054523D01*
X75309517Y-122184530D01*
X75427760Y-122289283D01*
X75427762Y-122289284D01*
X75567634Y-122362696D01*
X75721014Y-122400500D01*
X75721015Y-122400500D01*
X75878985Y-122400500D01*
X76032365Y-122362696D01*
X76172240Y-122289283D01*
X76290483Y-122184530D01*
X76380220Y-122054523D01*
X76436237Y-121906818D01*
X76455278Y-121750000D01*
X76436237Y-121593182D01*
X76380220Y-121445477D01*
X76290483Y-121315470D01*
X76172240Y-121210717D01*
X76172238Y-121210716D01*
X76172237Y-121210715D01*
X76032365Y-121137303D01*
X75878986Y-121099500D01*
X75878985Y-121099500D01*
X75721015Y-121099500D01*
X75721014Y-121099500D01*
X75567634Y-121137303D01*
X75427762Y-121210715D01*
X75309516Y-121315471D01*
X75219781Y-121445475D01*
X75219780Y-121445476D01*
X75163762Y-121593181D01*
X75144722Y-121749999D01*
X45500500Y-121749999D01*
X45500500Y-120649999D01*
X73394722Y-120649999D01*
X73394722Y-120650000D01*
X73413762Y-120806818D01*
X73451688Y-120906818D01*
X73469780Y-120954523D01*
X73559517Y-121084530D01*
X73677760Y-121189283D01*
X73677762Y-121189284D01*
X73817634Y-121262696D01*
X73971014Y-121300500D01*
X73971015Y-121300500D01*
X74128985Y-121300500D01*
X74282365Y-121262696D01*
X74381401Y-121210717D01*
X74422240Y-121189283D01*
X74540483Y-121084530D01*
X74630220Y-120954523D01*
X74686237Y-120806818D01*
X74693136Y-120749999D01*
X81994722Y-120749999D01*
X81994722Y-120750000D01*
X82013762Y-120906818D01*
X82031855Y-120954524D01*
X82069780Y-121054523D01*
X82159517Y-121184530D01*
X82277760Y-121289283D01*
X82277762Y-121289284D01*
X82417634Y-121362696D01*
X82571014Y-121400500D01*
X82571015Y-121400500D01*
X82728985Y-121400500D01*
X82882365Y-121362696D01*
X83022240Y-121289283D01*
X83140483Y-121184530D01*
X83230220Y-121054523D01*
X83286237Y-120906818D01*
X83305278Y-120750000D01*
X83286237Y-120593182D01*
X83230220Y-120445477D01*
X83140483Y-120315470D01*
X83022240Y-120210717D01*
X83022238Y-120210716D01*
X83022237Y-120210715D01*
X82906555Y-120149999D01*
X83794722Y-120149999D01*
X83794722Y-120150000D01*
X83813762Y-120306818D01*
X83866349Y-120445476D01*
X83869780Y-120454523D01*
X83959517Y-120584530D01*
X84077760Y-120689283D01*
X84077762Y-120689284D01*
X84217634Y-120762696D01*
X84371014Y-120800500D01*
X84371015Y-120800500D01*
X84528985Y-120800500D01*
X84682365Y-120762696D01*
X84706557Y-120749999D01*
X84822240Y-120689283D01*
X84940483Y-120584530D01*
X85030220Y-120454523D01*
X85086237Y-120306818D01*
X85105278Y-120150000D01*
X85103737Y-120137304D01*
X85086237Y-119993181D01*
X85064992Y-119937164D01*
X85030220Y-119845477D01*
X84940483Y-119715470D01*
X84822240Y-119610717D01*
X84822238Y-119610716D01*
X84822237Y-119610715D01*
X84682365Y-119537303D01*
X84528986Y-119499500D01*
X84528985Y-119499500D01*
X84371015Y-119499500D01*
X84371014Y-119499500D01*
X84217634Y-119537303D01*
X84077762Y-119610715D01*
X83959516Y-119715471D01*
X83869781Y-119845475D01*
X83869780Y-119845476D01*
X83813762Y-119993181D01*
X83794722Y-120149999D01*
X82906555Y-120149999D01*
X82882365Y-120137303D01*
X82728986Y-120099500D01*
X82728985Y-120099500D01*
X82571015Y-120099500D01*
X82571014Y-120099500D01*
X82417634Y-120137303D01*
X82277762Y-120210715D01*
X82159516Y-120315471D01*
X82069781Y-120445475D01*
X82069780Y-120445476D01*
X82013762Y-120593181D01*
X81994722Y-120749999D01*
X74693136Y-120749999D01*
X74705278Y-120650000D01*
X74686237Y-120493182D01*
X74630220Y-120345477D01*
X74540483Y-120215470D01*
X74422240Y-120110717D01*
X74422238Y-120110716D01*
X74422237Y-120110715D01*
X74282365Y-120037303D01*
X74128986Y-119999500D01*
X74128985Y-119999500D01*
X73971015Y-119999500D01*
X73971014Y-119999500D01*
X73817634Y-120037303D01*
X73677762Y-120110715D01*
X73559516Y-120215471D01*
X73469781Y-120345475D01*
X73469780Y-120345476D01*
X73413762Y-120493181D01*
X73394722Y-120649999D01*
X45500500Y-120649999D01*
X45500500Y-118699999D01*
X86244722Y-118699999D01*
X86244722Y-118700000D01*
X86263762Y-118856818D01*
X86286939Y-118917929D01*
X86319780Y-119004523D01*
X86409517Y-119134530D01*
X86527760Y-119239283D01*
X86527762Y-119239284D01*
X86667634Y-119312696D01*
X86821014Y-119350500D01*
X86821015Y-119350500D01*
X86978985Y-119350500D01*
X87132365Y-119312696D01*
X87272240Y-119239283D01*
X87390483Y-119134530D01*
X87480220Y-119004523D01*
X87536237Y-118856818D01*
X87555278Y-118700000D01*
X87541497Y-118586498D01*
X87536237Y-118543181D01*
X87500898Y-118450000D01*
X100344355Y-118450000D01*
X100364859Y-118618869D01*
X100364860Y-118618874D01*
X100425182Y-118777931D01*
X100479635Y-118856818D01*
X100521817Y-118917929D01*
X100619562Y-119004523D01*
X100649150Y-119030736D01*
X100799773Y-119109789D01*
X100799775Y-119109790D01*
X100964944Y-119150500D01*
X101135056Y-119150500D01*
X101300225Y-119109790D01*
X101407474Y-119053501D01*
X101450849Y-119030736D01*
X101450850Y-119030734D01*
X101450852Y-119030734D01*
X101578183Y-118917929D01*
X101674818Y-118777930D01*
X101688766Y-118741153D01*
X105119500Y-118741153D01*
X105119500Y-118898846D01*
X105150261Y-119053489D01*
X105150264Y-119053501D01*
X105210602Y-119199172D01*
X105210609Y-119199185D01*
X105298210Y-119330288D01*
X105298213Y-119330292D01*
X105409707Y-119441786D01*
X105409711Y-119441789D01*
X105540814Y-119529390D01*
X105540827Y-119529397D01*
X105686498Y-119589735D01*
X105686503Y-119589737D01*
X105841153Y-119620499D01*
X105841156Y-119620500D01*
X105841158Y-119620500D01*
X107098844Y-119620500D01*
X107098845Y-119620499D01*
X107253497Y-119589737D01*
X107366166Y-119543067D01*
X107399172Y-119529397D01*
X107399172Y-119529396D01*
X107399179Y-119529394D01*
X107530289Y-119441789D01*
X107641789Y-119330289D01*
X107729394Y-119199179D01*
X107789737Y-119053497D01*
X107820500Y-118898842D01*
X107820500Y-118741158D01*
X107820500Y-118741155D01*
X107820499Y-118741153D01*
X107796176Y-118618874D01*
X107789737Y-118586503D01*
X107771793Y-118543181D01*
X107729397Y-118440827D01*
X107729390Y-118440814D01*
X107641789Y-118309711D01*
X107641786Y-118309707D01*
X107530292Y-118198213D01*
X107530288Y-118198210D01*
X107414115Y-118120585D01*
X107369310Y-118066973D01*
X107360603Y-117997648D01*
X107390758Y-117934620D01*
X107396461Y-117929165D01*
X107396299Y-117929003D01*
X107494692Y-117830609D01*
X107494695Y-117830606D01*
X107568620Y-117719969D01*
X107619540Y-117597036D01*
X107645500Y-117466531D01*
X107645500Y-117333469D01*
X107645500Y-117333466D01*
X107619541Y-117202969D01*
X107619540Y-117202968D01*
X107619540Y-117202964D01*
X107568620Y-117080031D01*
X107494695Y-116969394D01*
X107494692Y-116969390D01*
X107400609Y-116875307D01*
X107400601Y-116875301D01*
X107289979Y-116801386D01*
X107289972Y-116801382D01*
X107289969Y-116801380D01*
X107289965Y-116801378D01*
X107289961Y-116801376D01*
X107167040Y-116750461D01*
X107167030Y-116750458D01*
X107036533Y-116724500D01*
X107036531Y-116724500D01*
X106903469Y-116724500D01*
X106903467Y-116724500D01*
X106772969Y-116750458D01*
X106772959Y-116750461D01*
X106650038Y-116801376D01*
X106650020Y-116801386D01*
X106539398Y-116875301D01*
X106539390Y-116875307D01*
X106445307Y-116969390D01*
X106445301Y-116969398D01*
X106371386Y-117080020D01*
X106371376Y-117080038D01*
X106320461Y-117202959D01*
X106320458Y-117202969D01*
X106294500Y-117333466D01*
X106294500Y-117333469D01*
X106294500Y-117466531D01*
X106294500Y-117466533D01*
X106294499Y-117466533D01*
X106320458Y-117597030D01*
X106320461Y-117597040D01*
X106371376Y-117719961D01*
X106371386Y-117719979D01*
X106442634Y-117826610D01*
X106463512Y-117893287D01*
X106445027Y-117960667D01*
X106393048Y-118007357D01*
X106339532Y-118019500D01*
X105841155Y-118019500D01*
X105686510Y-118050261D01*
X105686498Y-118050264D01*
X105540827Y-118110602D01*
X105540814Y-118110609D01*
X105409711Y-118198210D01*
X105409707Y-118198213D01*
X105298213Y-118309707D01*
X105298210Y-118309711D01*
X105210609Y-118440814D01*
X105210602Y-118440827D01*
X105150264Y-118586498D01*
X105150261Y-118586510D01*
X105119500Y-118741153D01*
X101688766Y-118741153D01*
X101735140Y-118618872D01*
X101755645Y-118450000D01*
X101735140Y-118281128D01*
X101674818Y-118122070D01*
X101578183Y-117982071D01*
X101450852Y-117869266D01*
X101450849Y-117869263D01*
X101300226Y-117790210D01*
X101135056Y-117749500D01*
X100964944Y-117749500D01*
X100799773Y-117790210D01*
X100649150Y-117869263D01*
X100521816Y-117982072D01*
X100425182Y-118122068D01*
X100364860Y-118281125D01*
X100364859Y-118281130D01*
X100344355Y-118450000D01*
X87500898Y-118450000D01*
X87497419Y-118440827D01*
X87480220Y-118395477D01*
X87390483Y-118265470D01*
X87272240Y-118160717D01*
X87272238Y-118160716D01*
X87272237Y-118160715D01*
X87132365Y-118087303D01*
X86978986Y-118049500D01*
X86978985Y-118049500D01*
X86821015Y-118049500D01*
X86821014Y-118049500D01*
X86667634Y-118087303D01*
X86527762Y-118160715D01*
X86409516Y-118265471D01*
X86319781Y-118395475D01*
X86319780Y-118395476D01*
X86263762Y-118543181D01*
X86244722Y-118699999D01*
X45500500Y-118699999D01*
X45500500Y-116149999D01*
X67994722Y-116149999D01*
X67994722Y-116150000D01*
X68013762Y-116306818D01*
X68069780Y-116454523D01*
X68159517Y-116584530D01*
X68277760Y-116689283D01*
X68277762Y-116689284D01*
X68417634Y-116762696D01*
X68571014Y-116800500D01*
X68571015Y-116800500D01*
X68728985Y-116800500D01*
X68882365Y-116762696D01*
X69022240Y-116689283D01*
X69140483Y-116584530D01*
X69230220Y-116454523D01*
X69286237Y-116306818D01*
X69305278Y-116150000D01*
X69286237Y-115993182D01*
X69230220Y-115845477D01*
X69140483Y-115715470D01*
X69022240Y-115610717D01*
X69022238Y-115610716D01*
X69022237Y-115610715D01*
X68882365Y-115537303D01*
X68728986Y-115499500D01*
X68728985Y-115499500D01*
X68571015Y-115499500D01*
X68571014Y-115499500D01*
X68417634Y-115537303D01*
X68277762Y-115610715D01*
X68159516Y-115715471D01*
X68069781Y-115845475D01*
X68069780Y-115845476D01*
X68013762Y-115993181D01*
X67994722Y-116149999D01*
X45500500Y-116149999D01*
X45500500Y-114299999D01*
X80044722Y-114299999D01*
X80044722Y-114300000D01*
X80063762Y-114456818D01*
X80119780Y-114604523D01*
X80209517Y-114734530D01*
X80327760Y-114839283D01*
X80327762Y-114839284D01*
X80467634Y-114912696D01*
X80621014Y-114950500D01*
X80621015Y-114950500D01*
X80778985Y-114950500D01*
X80932365Y-114912696D01*
X81072240Y-114839283D01*
X81190483Y-114734530D01*
X81280220Y-114604523D01*
X81336237Y-114456818D01*
X81355278Y-114300000D01*
X81336237Y-114143182D01*
X81280220Y-113995477D01*
X81190483Y-113865470D01*
X81072240Y-113760717D01*
X81072238Y-113760716D01*
X81072237Y-113760715D01*
X80932365Y-113687303D01*
X80778986Y-113649500D01*
X80778985Y-113649500D01*
X80621015Y-113649500D01*
X80621014Y-113649500D01*
X80467634Y-113687303D01*
X80327762Y-113760715D01*
X80209516Y-113865471D01*
X80119781Y-113995475D01*
X80119780Y-113995476D01*
X80063762Y-114143181D01*
X80044722Y-114299999D01*
X45500500Y-114299999D01*
X45500500Y-113149999D01*
X76344722Y-113149999D01*
X76344722Y-113150000D01*
X76363762Y-113306818D01*
X76419780Y-113454523D01*
X76509517Y-113584530D01*
X76627760Y-113689283D01*
X76627762Y-113689284D01*
X76767634Y-113762696D01*
X76921014Y-113800500D01*
X76921015Y-113800500D01*
X77078985Y-113800500D01*
X77232365Y-113762696D01*
X77236139Y-113760715D01*
X77372240Y-113689283D01*
X77490483Y-113584530D01*
X77580220Y-113454523D01*
X77636237Y-113306818D01*
X77655278Y-113150000D01*
X77636237Y-112993182D01*
X77580220Y-112845477D01*
X77490483Y-112715470D01*
X77372240Y-112610717D01*
X77372238Y-112610716D01*
X77372237Y-112610715D01*
X77232365Y-112537303D01*
X77078986Y-112499500D01*
X77078985Y-112499500D01*
X76921015Y-112499500D01*
X76921014Y-112499500D01*
X76767634Y-112537303D01*
X76627762Y-112610715D01*
X76509516Y-112715471D01*
X76419781Y-112845475D01*
X76419780Y-112845476D01*
X76363762Y-112993181D01*
X76344722Y-113149999D01*
X45500500Y-113149999D01*
X45500500Y-111899999D01*
X69644722Y-111899999D01*
X69644722Y-111900000D01*
X69663762Y-112056818D01*
X69703917Y-112162696D01*
X69719780Y-112204523D01*
X69809517Y-112334530D01*
X69927760Y-112439283D01*
X69927762Y-112439284D01*
X70067634Y-112512696D01*
X70221014Y-112550500D01*
X70221015Y-112550500D01*
X70378985Y-112550500D01*
X70532365Y-112512696D01*
X70672240Y-112439283D01*
X70790483Y-112334530D01*
X70880220Y-112204523D01*
X70936237Y-112056818D01*
X70955278Y-111900000D01*
X70943990Y-111807030D01*
X70936237Y-111743181D01*
X70910960Y-111676531D01*
X70880220Y-111595477D01*
X70790483Y-111465470D01*
X70672240Y-111360717D01*
X70672238Y-111360716D01*
X70672237Y-111360715D01*
X70532365Y-111287303D01*
X70378986Y-111249500D01*
X70378985Y-111249500D01*
X70221015Y-111249500D01*
X70221014Y-111249500D01*
X70067634Y-111287303D01*
X69927762Y-111360715D01*
X69809516Y-111465471D01*
X69719781Y-111595475D01*
X69719780Y-111595476D01*
X69663762Y-111743181D01*
X69644722Y-111899999D01*
X45500500Y-111899999D01*
X45500500Y-110249999D01*
X84094722Y-110249999D01*
X84094722Y-110250000D01*
X84113762Y-110406818D01*
X84169780Y-110554523D01*
X84259517Y-110684530D01*
X84377760Y-110789283D01*
X84377762Y-110789284D01*
X84517634Y-110862696D01*
X84671014Y-110900500D01*
X84725207Y-110900500D01*
X84792246Y-110920185D01*
X84838001Y-110972989D01*
X84847945Y-111042147D01*
X84818920Y-111105703D01*
X84811727Y-111112974D01*
X84809518Y-111115467D01*
X84719781Y-111245475D01*
X84719780Y-111245476D01*
X84663762Y-111393181D01*
X84644722Y-111549999D01*
X84644722Y-111550000D01*
X84663762Y-111706818D01*
X84701772Y-111807040D01*
X84719780Y-111854523D01*
X84809517Y-111984530D01*
X84927760Y-112089283D01*
X84927762Y-112089284D01*
X85067634Y-112162696D01*
X85221014Y-112200500D01*
X85221015Y-112200500D01*
X85378985Y-112200500D01*
X85532365Y-112162696D01*
X85585710Y-112134698D01*
X85672240Y-112089283D01*
X85790483Y-111984530D01*
X85880220Y-111854523D01*
X85936237Y-111706818D01*
X85955278Y-111550000D01*
X85945015Y-111465471D01*
X85936237Y-111393181D01*
X85914992Y-111337164D01*
X85880220Y-111245477D01*
X85790483Y-111115470D01*
X85672240Y-111010717D01*
X85672238Y-111010716D01*
X85672237Y-111010715D01*
X85532365Y-110937303D01*
X85378986Y-110899500D01*
X85378985Y-110899500D01*
X85324793Y-110899500D01*
X85257754Y-110879815D01*
X85211999Y-110827011D01*
X85202055Y-110757853D01*
X85231080Y-110694297D01*
X85238272Y-110687025D01*
X85240481Y-110684532D01*
X85240481Y-110684531D01*
X85240483Y-110684530D01*
X85330220Y-110554523D01*
X85386237Y-110406818D01*
X85405278Y-110250000D01*
X85387206Y-110101158D01*
X85387205Y-110101153D01*
X105119500Y-110101153D01*
X105119500Y-110258846D01*
X105150261Y-110413489D01*
X105150264Y-110413501D01*
X105210602Y-110559172D01*
X105210609Y-110559185D01*
X105298210Y-110690288D01*
X105298213Y-110690292D01*
X105409707Y-110801786D01*
X105409711Y-110801789D01*
X105540814Y-110889390D01*
X105540827Y-110889397D01*
X105686498Y-110949735D01*
X105686503Y-110949737D01*
X105803398Y-110972989D01*
X105841153Y-110980499D01*
X105841156Y-110980500D01*
X105841158Y-110980500D01*
X106346357Y-110980500D01*
X106413396Y-111000185D01*
X106459151Y-111052989D01*
X106469095Y-111122147D01*
X106446688Y-111172991D01*
X106448689Y-111174328D01*
X106371386Y-111290020D01*
X106371376Y-111290038D01*
X106320461Y-111412959D01*
X106320458Y-111412969D01*
X106294500Y-111543466D01*
X106294500Y-111543469D01*
X106294500Y-111676531D01*
X106294500Y-111676533D01*
X106294499Y-111676533D01*
X106320458Y-111807030D01*
X106320461Y-111807040D01*
X106371376Y-111929961D01*
X106371386Y-111929979D01*
X106445301Y-112040601D01*
X106445307Y-112040609D01*
X106539390Y-112134692D01*
X106539398Y-112134698D01*
X106650020Y-112208613D01*
X106650023Y-112208614D01*
X106650031Y-112208620D01*
X106772964Y-112259540D01*
X106772968Y-112259540D01*
X106772969Y-112259541D01*
X106903466Y-112285500D01*
X106903469Y-112285500D01*
X107036533Y-112285500D01*
X107124325Y-112268035D01*
X107167036Y-112259540D01*
X107289969Y-112208620D01*
X107400606Y-112134695D01*
X107494695Y-112040606D01*
X107568620Y-111929969D01*
X107619540Y-111807036D01*
X107632242Y-111743181D01*
X107645500Y-111676533D01*
X107645500Y-111543466D01*
X107619541Y-111412969D01*
X107619540Y-111412968D01*
X107619540Y-111412964D01*
X107568620Y-111290031D01*
X107566797Y-111287303D01*
X107494698Y-111179398D01*
X107494692Y-111179390D01*
X107400606Y-111085304D01*
X107397623Y-111082856D01*
X107396480Y-111081178D01*
X107396299Y-111080997D01*
X107396333Y-111080962D01*
X107358289Y-111025110D01*
X107356420Y-110955265D01*
X107392608Y-110895498D01*
X107407399Y-110883902D01*
X107476265Y-110837886D01*
X107530289Y-110801789D01*
X107641789Y-110690289D01*
X107729394Y-110559179D01*
X107789737Y-110413497D01*
X107820500Y-110258842D01*
X107820500Y-110101158D01*
X107820500Y-110101155D01*
X107820499Y-110101153D01*
X107789738Y-109946510D01*
X107789737Y-109946503D01*
X107789311Y-109945475D01*
X107729397Y-109800827D01*
X107729390Y-109800814D01*
X107641789Y-109669711D01*
X107641786Y-109669707D01*
X107530292Y-109558213D01*
X107530288Y-109558210D01*
X107399185Y-109470609D01*
X107399172Y-109470602D01*
X107253501Y-109410264D01*
X107253489Y-109410261D01*
X107098845Y-109379500D01*
X107098842Y-109379500D01*
X105841158Y-109379500D01*
X105841155Y-109379500D01*
X105686510Y-109410261D01*
X105686498Y-109410264D01*
X105540827Y-109470602D01*
X105540814Y-109470609D01*
X105409711Y-109558210D01*
X105409707Y-109558213D01*
X105298213Y-109669707D01*
X105298210Y-109669711D01*
X105210609Y-109800814D01*
X105210602Y-109800827D01*
X105150264Y-109946498D01*
X105150261Y-109946510D01*
X105119500Y-110101153D01*
X85387205Y-110101153D01*
X85386237Y-110093181D01*
X85364992Y-110037164D01*
X85330220Y-109945477D01*
X85240483Y-109815470D01*
X85122240Y-109710717D01*
X85122238Y-109710716D01*
X85122237Y-109710715D01*
X84982365Y-109637303D01*
X84828986Y-109599500D01*
X84828985Y-109599500D01*
X84671015Y-109599500D01*
X84671014Y-109599500D01*
X84517634Y-109637303D01*
X84377762Y-109710715D01*
X84377760Y-109710717D01*
X84276053Y-109800821D01*
X84259516Y-109815471D01*
X84169781Y-109945475D01*
X84169780Y-109945476D01*
X84113762Y-110093181D01*
X84094722Y-110249999D01*
X45500500Y-110249999D01*
X45500500Y-109099999D01*
X80994722Y-109099999D01*
X80994722Y-109100000D01*
X81013762Y-109256818D01*
X81060290Y-109379500D01*
X81069780Y-109404523D01*
X81159517Y-109534530D01*
X81277760Y-109639283D01*
X81277762Y-109639284D01*
X81417634Y-109712696D01*
X81571014Y-109750500D01*
X81571015Y-109750500D01*
X81728985Y-109750500D01*
X81882365Y-109712696D01*
X81886139Y-109710715D01*
X82022240Y-109639283D01*
X82140483Y-109534530D01*
X82230220Y-109404523D01*
X82286237Y-109256818D01*
X82305278Y-109100000D01*
X82286237Y-108943182D01*
X82230220Y-108795477D01*
X82140483Y-108665470D01*
X82022240Y-108560717D01*
X82022238Y-108560716D01*
X82022237Y-108560715D01*
X81882365Y-108487303D01*
X81728986Y-108449500D01*
X81728985Y-108449500D01*
X81571015Y-108449500D01*
X81571014Y-108449500D01*
X81417634Y-108487303D01*
X81277762Y-108560715D01*
X81159516Y-108665471D01*
X81069781Y-108795475D01*
X81069780Y-108795476D01*
X81013762Y-108943181D01*
X80994722Y-109099999D01*
X45500500Y-109099999D01*
X45500500Y-108065379D01*
X73629342Y-108065379D01*
X73629342Y-108065380D01*
X73648382Y-108222198D01*
X73679605Y-108304524D01*
X73704400Y-108369903D01*
X73794137Y-108499910D01*
X73912380Y-108604663D01*
X73912382Y-108604664D01*
X74052254Y-108678076D01*
X74205634Y-108715880D01*
X74205635Y-108715880D01*
X74363605Y-108715880D01*
X74516985Y-108678076D01*
X74656860Y-108604663D01*
X74775103Y-108499910D01*
X74813216Y-108444693D01*
X74867495Y-108400705D01*
X74936944Y-108393045D01*
X74999509Y-108424147D01*
X75008076Y-108432904D01*
X75009513Y-108434526D01*
X75009516Y-108434528D01*
X75009517Y-108434530D01*
X75127760Y-108539283D01*
X75127762Y-108539284D01*
X75267634Y-108612696D01*
X75421014Y-108650500D01*
X75421015Y-108650500D01*
X75578985Y-108650500D01*
X75732365Y-108612696D01*
X75872240Y-108539283D01*
X75990483Y-108434530D01*
X76080220Y-108304523D01*
X76131104Y-108170352D01*
X79263576Y-108170352D01*
X79284080Y-108339221D01*
X79284081Y-108339226D01*
X79344403Y-108498283D01*
X79387499Y-108560717D01*
X79441038Y-108638281D01*
X79546726Y-108731912D01*
X79568371Y-108751088D01*
X79718994Y-108830141D01*
X79718996Y-108830142D01*
X79884165Y-108870852D01*
X80054277Y-108870852D01*
X80219446Y-108830142D01*
X80298913Y-108788433D01*
X80370070Y-108751088D01*
X80370071Y-108751086D01*
X80370073Y-108751086D01*
X80497404Y-108638281D01*
X80594039Y-108498282D01*
X80654361Y-108339224D01*
X80674866Y-108170352D01*
X80654361Y-108001480D01*
X80594039Y-107842422D01*
X80588770Y-107834789D01*
X80537738Y-107760857D01*
X80497404Y-107702423D01*
X80370073Y-107589618D01*
X80370070Y-107589615D01*
X80219447Y-107510562D01*
X80054277Y-107469852D01*
X79884165Y-107469852D01*
X79718994Y-107510562D01*
X79568371Y-107589615D01*
X79441037Y-107702424D01*
X79344403Y-107842420D01*
X79284081Y-108001477D01*
X79284080Y-108001482D01*
X79263576Y-108170352D01*
X76131104Y-108170352D01*
X76136237Y-108156818D01*
X76155278Y-108000000D01*
X76144176Y-107908561D01*
X76136237Y-107843181D01*
X76105015Y-107760856D01*
X76080220Y-107695477D01*
X75990483Y-107565470D01*
X75872240Y-107460717D01*
X75845301Y-107446578D01*
X75795089Y-107397993D01*
X75790586Y-107378821D01*
X75722713Y-107384801D01*
X75717397Y-107383614D01*
X75578986Y-107349500D01*
X75578985Y-107349500D01*
X75421015Y-107349500D01*
X75421014Y-107349500D01*
X75267634Y-107387303D01*
X75127762Y-107460715D01*
X75009517Y-107565469D01*
X74971405Y-107620685D01*
X74917121Y-107664675D01*
X74847673Y-107672334D01*
X74785108Y-107641230D01*
X74776543Y-107632475D01*
X74775106Y-107630853D01*
X74728561Y-107589618D01*
X74656860Y-107526097D01*
X74656858Y-107526096D01*
X74656857Y-107526095D01*
X74516985Y-107452683D01*
X74363606Y-107414880D01*
X74363605Y-107414880D01*
X74205635Y-107414880D01*
X74205634Y-107414880D01*
X74052254Y-107452683D01*
X73912382Y-107526095D01*
X73794136Y-107630851D01*
X73704401Y-107760855D01*
X73704400Y-107760856D01*
X73648382Y-107908561D01*
X73629342Y-108065379D01*
X45500500Y-108065379D01*
X45500500Y-106499999D01*
X71144722Y-106499999D01*
X71144722Y-106500000D01*
X71163762Y-106656818D01*
X71201688Y-106756818D01*
X71219780Y-106804523D01*
X71309517Y-106934530D01*
X71427760Y-107039283D01*
X71427762Y-107039284D01*
X71567634Y-107112696D01*
X71721014Y-107150500D01*
X71721015Y-107150500D01*
X71878985Y-107150500D01*
X72032365Y-107112696D01*
X72172240Y-107039283D01*
X72290483Y-106934530D01*
X72380220Y-106804523D01*
X72436237Y-106656818D01*
X72443136Y-106599999D01*
X75494722Y-106599999D01*
X75494722Y-106600000D01*
X75513762Y-106756818D01*
X75531855Y-106804524D01*
X75569780Y-106904523D01*
X75659517Y-107034530D01*
X75777760Y-107139283D01*
X75804696Y-107153420D01*
X75854909Y-107202005D01*
X75859411Y-107221178D01*
X75927287Y-107215198D01*
X75932594Y-107216383D01*
X76071015Y-107250500D01*
X76228985Y-107250500D01*
X76382365Y-107212696D01*
X76402735Y-107202005D01*
X76454188Y-107175000D01*
X94094355Y-107175000D01*
X94114859Y-107343869D01*
X94114860Y-107343874D01*
X94175182Y-107502931D01*
X94218351Y-107565471D01*
X94271817Y-107642929D01*
X94377505Y-107736560D01*
X94399150Y-107755736D01*
X94549773Y-107834789D01*
X94549775Y-107834790D01*
X94714944Y-107875500D01*
X94885056Y-107875500D01*
X95050225Y-107834790D01*
X95129692Y-107793081D01*
X95200849Y-107755736D01*
X95200850Y-107755734D01*
X95200852Y-107755734D01*
X95328183Y-107642929D01*
X95424818Y-107502930D01*
X95485140Y-107343872D01*
X95505645Y-107175000D01*
X95485140Y-107006128D01*
X95424818Y-106847070D01*
X95328183Y-106707071D01*
X95207889Y-106600500D01*
X95200849Y-106594263D01*
X95050226Y-106515210D01*
X94885056Y-106474500D01*
X94714944Y-106474500D01*
X94549773Y-106515210D01*
X94399150Y-106594263D01*
X94271816Y-106707072D01*
X94175182Y-106847068D01*
X94114860Y-107006125D01*
X94114859Y-107006130D01*
X94094355Y-107175000D01*
X76454188Y-107175000D01*
X76522240Y-107139283D01*
X76640483Y-107034530D01*
X76730220Y-106904523D01*
X76786237Y-106756818D01*
X76805278Y-106600000D01*
X76804582Y-106594263D01*
X76786237Y-106443181D01*
X76757697Y-106367929D01*
X76730220Y-106295477D01*
X76640483Y-106165470D01*
X76522240Y-106060717D01*
X76522238Y-106060716D01*
X76522237Y-106060715D01*
X76382365Y-105987303D01*
X76228986Y-105949500D01*
X76228985Y-105949500D01*
X76071015Y-105949500D01*
X76071014Y-105949500D01*
X75917634Y-105987303D01*
X75777762Y-106060715D01*
X75659516Y-106165471D01*
X75569781Y-106295475D01*
X75569780Y-106295476D01*
X75513762Y-106443181D01*
X75494722Y-106599999D01*
X72443136Y-106599999D01*
X72455278Y-106500000D01*
X72436237Y-106343182D01*
X72380220Y-106195477D01*
X72290483Y-106065470D01*
X72172240Y-105960717D01*
X72172238Y-105960716D01*
X72172237Y-105960715D01*
X72056557Y-105900000D01*
X78794355Y-105900000D01*
X78814859Y-106068869D01*
X78814860Y-106068874D01*
X78875182Y-106227931D01*
X78937475Y-106318177D01*
X78971817Y-106367929D01*
X79077505Y-106461560D01*
X79099150Y-106480736D01*
X79249773Y-106559789D01*
X79249775Y-106559790D01*
X79414944Y-106600500D01*
X79585056Y-106600500D01*
X79750225Y-106559790D01*
X79864146Y-106499999D01*
X79900849Y-106480736D01*
X79900850Y-106480734D01*
X79900852Y-106480734D01*
X80028183Y-106367929D01*
X80124818Y-106227930D01*
X80185140Y-106068872D01*
X80205645Y-105900000D01*
X80185140Y-105731128D01*
X80124818Y-105572070D01*
X80028183Y-105432071D01*
X79900852Y-105319266D01*
X79900849Y-105319263D01*
X79750226Y-105240210D01*
X79585056Y-105199500D01*
X79414944Y-105199500D01*
X79249773Y-105240210D01*
X79099150Y-105319263D01*
X78971816Y-105432072D01*
X78875182Y-105572068D01*
X78814860Y-105731125D01*
X78814859Y-105731130D01*
X78794355Y-105900000D01*
X72056557Y-105900000D01*
X72032365Y-105887303D01*
X71878986Y-105849500D01*
X71878985Y-105849500D01*
X71721015Y-105849500D01*
X71721014Y-105849500D01*
X71567634Y-105887303D01*
X71427762Y-105960715D01*
X71309516Y-106065471D01*
X71219781Y-106195475D01*
X71219780Y-106195476D01*
X71163762Y-106343181D01*
X71144722Y-106499999D01*
X45500500Y-106499999D01*
X45500500Y-104450000D01*
X82494355Y-104450000D01*
X82514859Y-104618869D01*
X82514860Y-104618874D01*
X82575182Y-104777931D01*
X82637475Y-104868177D01*
X82671817Y-104917929D01*
X82777505Y-105011560D01*
X82799150Y-105030736D01*
X82949773Y-105109789D01*
X82949775Y-105109790D01*
X83114944Y-105150500D01*
X83285056Y-105150500D01*
X83450225Y-105109790D01*
X83529692Y-105068081D01*
X83600849Y-105030736D01*
X83600850Y-105030734D01*
X83600852Y-105030734D01*
X83728183Y-104917929D01*
X83824818Y-104777930D01*
X83885140Y-104618872D01*
X83905645Y-104450000D01*
X83885140Y-104281128D01*
X83824818Y-104122070D01*
X83728183Y-103982071D01*
X83600852Y-103869266D01*
X83600849Y-103869263D01*
X83450226Y-103790210D01*
X83285056Y-103749500D01*
X83114944Y-103749500D01*
X82949773Y-103790210D01*
X82799150Y-103869263D01*
X82671816Y-103982072D01*
X82575182Y-104122068D01*
X82514860Y-104281125D01*
X82514859Y-104281130D01*
X82494355Y-104450000D01*
X45500500Y-104450000D01*
X45500500Y-102200000D01*
X80244355Y-102200000D01*
X80264859Y-102368869D01*
X80264860Y-102368874D01*
X80325182Y-102527931D01*
X80387475Y-102618177D01*
X80421817Y-102667929D01*
X80527505Y-102761560D01*
X80549150Y-102780736D01*
X80699773Y-102859789D01*
X80699775Y-102859790D01*
X80864944Y-102900500D01*
X81035056Y-102900500D01*
X81200225Y-102859790D01*
X81279692Y-102818081D01*
X81350849Y-102780736D01*
X81350850Y-102780734D01*
X81350852Y-102780734D01*
X81478183Y-102667929D01*
X81574818Y-102527930D01*
X81635140Y-102368872D01*
X81655645Y-102200000D01*
X81635140Y-102031128D01*
X81574818Y-101872070D01*
X81478183Y-101732071D01*
X81350852Y-101619266D01*
X81350849Y-101619263D01*
X81200226Y-101540210D01*
X81035056Y-101499500D01*
X80864944Y-101499500D01*
X80699773Y-101540210D01*
X80549150Y-101619263D01*
X80421816Y-101732072D01*
X80325182Y-101872068D01*
X80264860Y-102031125D01*
X80264859Y-102031130D01*
X80244355Y-102200000D01*
X45500500Y-102200000D01*
X45500500Y-101450000D01*
X77694355Y-101450000D01*
X77714859Y-101618869D01*
X77714860Y-101618874D01*
X77775182Y-101777931D01*
X77837475Y-101868177D01*
X77871817Y-101917929D01*
X77977505Y-102011560D01*
X77999150Y-102030736D01*
X78149773Y-102109789D01*
X78149775Y-102109790D01*
X78314944Y-102150500D01*
X78485056Y-102150500D01*
X78650225Y-102109790D01*
X78729692Y-102068081D01*
X78800849Y-102030736D01*
X78800850Y-102030734D01*
X78800852Y-102030734D01*
X78928183Y-101917929D01*
X79024818Y-101777930D01*
X79085140Y-101618872D01*
X79105645Y-101450000D01*
X79085140Y-101281128D01*
X79024818Y-101122070D01*
X78940559Y-101000000D01*
X87544355Y-101000000D01*
X87564859Y-101168869D01*
X87564860Y-101168874D01*
X87625182Y-101327931D01*
X87681505Y-101409528D01*
X87721817Y-101467929D01*
X87803406Y-101540210D01*
X87849150Y-101580736D01*
X87999773Y-101659789D01*
X87999775Y-101659790D01*
X88164944Y-101700500D01*
X88335056Y-101700500D01*
X88500225Y-101659790D01*
X88579692Y-101618081D01*
X88650849Y-101580736D01*
X88650850Y-101580734D01*
X88650852Y-101580734D01*
X88778183Y-101467929D01*
X88874818Y-101327930D01*
X88935140Y-101168872D01*
X88955645Y-101000000D01*
X88952609Y-100975000D01*
X97744355Y-100975000D01*
X97764859Y-101143869D01*
X97764860Y-101143874D01*
X97825182Y-101302931D01*
X97842438Y-101327930D01*
X97921817Y-101442929D01*
X98018018Y-101528155D01*
X98049150Y-101555736D01*
X98199773Y-101634789D01*
X98199775Y-101634790D01*
X98364944Y-101675500D01*
X98535056Y-101675500D01*
X98700225Y-101634790D01*
X98803219Y-101580734D01*
X98850845Y-101555738D01*
X98850846Y-101555736D01*
X98850852Y-101555734D01*
X98881983Y-101528153D01*
X98945214Y-101498434D01*
X99014477Y-101507616D01*
X99021835Y-101511174D01*
X99167634Y-101587696D01*
X99321014Y-101625500D01*
X99321015Y-101625500D01*
X99478985Y-101625500D01*
X99632365Y-101587696D01*
X99693255Y-101555738D01*
X99772240Y-101514283D01*
X99890483Y-101409530D01*
X99980220Y-101279523D01*
X100036237Y-101131818D01*
X100055278Y-100975000D01*
X100036237Y-100818182D01*
X100031666Y-100806130D01*
X99980823Y-100672068D01*
X99980220Y-100670477D01*
X99890483Y-100540470D01*
X99772240Y-100435717D01*
X99772238Y-100435716D01*
X99772237Y-100435715D01*
X99632365Y-100362303D01*
X99478986Y-100324500D01*
X99478985Y-100324500D01*
X99321015Y-100324500D01*
X99321014Y-100324500D01*
X99167637Y-100362303D01*
X99021835Y-100438826D01*
X98953326Y-100452551D01*
X98888273Y-100427058D01*
X98881982Y-100421845D01*
X98879071Y-100419266D01*
X98850852Y-100394266D01*
X98850850Y-100394265D01*
X98850849Y-100394264D01*
X98700226Y-100315210D01*
X98535056Y-100274500D01*
X98364944Y-100274500D01*
X98199773Y-100315210D01*
X98049150Y-100394263D01*
X97921816Y-100507072D01*
X97825182Y-100647068D01*
X97764860Y-100806125D01*
X97764859Y-100806130D01*
X97744355Y-100975000D01*
X88952609Y-100975000D01*
X88935140Y-100831128D01*
X88874818Y-100672070D01*
X88873718Y-100670477D01*
X88783980Y-100540470D01*
X88778183Y-100532071D01*
X88672931Y-100438826D01*
X88650849Y-100419263D01*
X88500226Y-100340210D01*
X88335056Y-100299500D01*
X88164944Y-100299500D01*
X87999773Y-100340210D01*
X87849150Y-100419263D01*
X87721816Y-100532072D01*
X87625182Y-100672068D01*
X87564860Y-100831125D01*
X87564859Y-100831130D01*
X87544355Y-101000000D01*
X78940559Y-101000000D01*
X78928183Y-100982071D01*
X78800852Y-100869266D01*
X78800849Y-100869263D01*
X78650226Y-100790210D01*
X78485056Y-100749500D01*
X78314944Y-100749500D01*
X78149773Y-100790210D01*
X77999150Y-100869263D01*
X77871816Y-100982072D01*
X77775182Y-101122068D01*
X77714860Y-101281125D01*
X77714859Y-101281130D01*
X77694355Y-101450000D01*
X45500500Y-101450000D01*
X45500500Y-94002706D01*
X45500618Y-93997297D01*
X45503377Y-93934108D01*
X45517386Y-93613226D01*
X45518326Y-93602495D01*
X45568152Y-93224025D01*
X45570025Y-93213405D01*
X45650589Y-92849999D01*
X57494722Y-92849999D01*
X57494722Y-92850000D01*
X57513762Y-93006818D01*
X57553917Y-93112696D01*
X57569780Y-93154523D01*
X57659517Y-93284530D01*
X57777760Y-93389283D01*
X57777762Y-93389284D01*
X57917634Y-93462696D01*
X58071014Y-93500500D01*
X58071015Y-93500500D01*
X58228985Y-93500500D01*
X58382365Y-93462696D01*
X58522240Y-93389283D01*
X58640483Y-93284530D01*
X58730220Y-93154523D01*
X58786237Y-93006818D01*
X58805278Y-92850000D01*
X58786237Y-92693182D01*
X58730220Y-92545477D01*
X58698829Y-92499999D01*
X80144722Y-92499999D01*
X80144722Y-92500000D01*
X80163762Y-92656818D01*
X80219780Y-92804523D01*
X80309517Y-92934530D01*
X80427760Y-93039283D01*
X80427762Y-93039284D01*
X80567634Y-93112696D01*
X80721014Y-93150500D01*
X80721015Y-93150500D01*
X80878985Y-93150500D01*
X81032365Y-93112696D01*
X81172240Y-93039283D01*
X81290483Y-92934530D01*
X81380220Y-92804523D01*
X81436237Y-92656818D01*
X81455278Y-92500000D01*
X81445015Y-92415471D01*
X81436237Y-92343181D01*
X81396082Y-92237303D01*
X81380220Y-92195477D01*
X81290483Y-92065470D01*
X81172240Y-91960717D01*
X81172238Y-91960716D01*
X81172237Y-91960715D01*
X81032365Y-91887303D01*
X80878986Y-91849500D01*
X80878985Y-91849500D01*
X80721015Y-91849500D01*
X80721014Y-91849500D01*
X80567634Y-91887303D01*
X80427762Y-91960715D01*
X80309516Y-92065471D01*
X80219781Y-92195475D01*
X80219780Y-92195476D01*
X80163762Y-92343181D01*
X80144722Y-92499999D01*
X58698829Y-92499999D01*
X58640483Y-92415470D01*
X58522240Y-92310717D01*
X58522238Y-92310716D01*
X58522237Y-92310715D01*
X58382365Y-92237303D01*
X58228986Y-92199500D01*
X58228985Y-92199500D01*
X58071015Y-92199500D01*
X58071014Y-92199500D01*
X57917634Y-92237303D01*
X57777762Y-92310715D01*
X57659516Y-92415471D01*
X57569781Y-92545475D01*
X57569780Y-92545476D01*
X57513762Y-92693181D01*
X57494722Y-92849999D01*
X45650589Y-92849999D01*
X45652649Y-92840709D01*
X45655440Y-92830295D01*
X45770230Y-92466227D01*
X45773917Y-92456095D01*
X45920003Y-92103412D01*
X45924561Y-92093638D01*
X46100822Y-91755045D01*
X46106217Y-91745700D01*
X46311325Y-91423744D01*
X46317515Y-91414905D01*
X46549896Y-91112060D01*
X46556834Y-91103791D01*
X46814726Y-90822352D01*
X46822352Y-90814726D01*
X47103791Y-90556834D01*
X47112060Y-90549896D01*
X47414905Y-90317515D01*
X47423744Y-90311325D01*
X47745700Y-90106217D01*
X47755045Y-90100822D01*
X48093638Y-89924561D01*
X48103412Y-89920003D01*
X48456095Y-89773917D01*
X48466227Y-89770230D01*
X48830295Y-89655440D01*
X48840709Y-89652649D01*
X49213405Y-89570025D01*
X49224025Y-89568152D01*
X49602495Y-89518326D01*
X49613226Y-89517386D01*
X49997297Y-89500617D01*
X50002706Y-89500500D01*
X50065892Y-89500500D01*
X106934108Y-89500500D01*
X106997294Y-89500500D01*
X107002702Y-89500617D01*
G37*
%TD.AperFunction*%
%TD*%
M02*
