M48
; DRILL file {KiCad 8.0.7} date 2025-05-23T18:18:47-0300
; FORMAT={-:-/ absolute / inch / decimal}
; #@! TF.CreationDate,2025-05-23T18:18:47-03:00
; #@! TF.GenerationSoftware,Kicad,Pcbnew,8.0.7
; #@! TF.FileFunction,Plated,1,4,PTH
FMAT,2
INCH
; #@! TA.AperFunction,Plated,PTH,ViaDrill
T1C0.0118
; #@! TA.AperFunction,Plated,PTH,ViaDrill
T2C0.0157
; #@! TA.AperFunction,Plated,PTH,ComponentDrill
T3C0.0236
; #@! TA.AperFunction,Plated,PTH,ComponentDrill
T4C0.0256
; #@! TA.AperFunction,Plated,PTH,ComponentDrill
T5C0.0382
; #@! TA.AperFunction,Plated,PTH,ComponentDrill
T6C0.0811
; #@! TA.AperFunction,Plated,PTH,ComponentDrill
T7C0.1260
%
G90
G05
T1
X2.2643Y-3.6305
X2.2894Y-3.6555
X2.3248Y-3.8169
X2.3248Y-3.8799
X2.3465Y-3.7854
X2.3484Y-3.8484
X2.3539Y-5.3252
X2.3543Y-5.2886
X2.4409Y-5.4016
X2.4429Y-4.0256
X2.4626Y-5.187
X2.4807Y-5.5508
X2.4823Y-5.4016
X2.4862Y-5.5118
X2.5Y-5.187
X2.5591Y-5.752
X2.5669Y-4.4272
X2.5886Y-4.4587
X2.5925Y-5.7677
X2.5945Y-5.5197
X2.6083Y-5.3937
X2.6122Y-5.1693
X2.6409Y-5.0979
X2.6673Y-4.5748
X2.6713Y-5.0787
X2.6713Y-5.1161
X2.687Y-5.1969
X2.7028Y-4.2598
X2.7028Y-4.5728
X2.7362Y-4.2795
X2.7382Y-5.1969
X2.7441Y-4.9921
X2.7539Y-3.7146
X2.7559Y-3.6791
X2.7559Y-3.8583
X2.7598Y-5.435
X2.7657Y-5.0315
X2.7677Y-4.4055
X2.7756Y-4.3701
X2.7894Y-5.1752
X2.7894Y-5.2165
X2.811Y-4.3031
X2.8268Y-4.1929
X2.8524Y-4.1654
X2.8524Y-5.5236
X2.8543Y-4.3346
X2.8809Y-4.7601
X2.8917Y-5.2323
X2.9101Y-5.4363
X2.9154Y-4.75
X2.9246Y-4.2184
X2.9246Y-4.2545
X2.9456Y-5.437
X2.9488Y-4.7933
X2.9724Y-4.252
X2.9783Y-4.5472
X2.9843Y-4.7933
X2.9843Y-4.8957
X2.998Y-4.1969
X3.002Y-4.4055
X3.0079Y-4.252
X3.0197Y-4.8957
X3.0315Y-4.4547
X3.0332Y-4.1927
X3.0521Y-4.4259
X3.0825Y-5.4999
X3.1043Y-3.7205
X3.1142Y-5.5157
X3.124Y-3.9941
X3.1319Y-4.2067
X3.1543Y-5.4
X3.1634Y-4.2244
X3.1772Y-4.5
X3.1772Y-4.5354
X3.1791Y-4.6299
X3.1811Y-3.6417
X3.198Y-5.3969
X3.2028Y-4.4291
X3.2146Y-4.2953
X3.2165Y-3.6457
X3.2175Y-5.6348
X3.2244Y-4.0236
X3.2307Y-5.3417
X3.2311Y-5.3051
X3.2315Y-5.3811
X3.25Y-4.2953
X3.251Y-5.6211
X3.2539Y-4.7185
X3.2539Y-4.7539
X3.2894Y-4.7303
X3.3015Y-4.3359
X3.3071Y-4.1339
X3.3248Y-4.7303
X3.3343Y-5.0785
X3.3366Y-4.3406
X3.3455Y-5.6624
X3.3583Y-4.3917
X3.3583Y-4.4291
X3.3583Y-5.5985
X3.3937Y-5.5974
X3.4213Y-4.6732
X3.5508Y-5.7217
X3.5748Y-5.378
X3.6102Y-5.3898
X3.624Y-5.1713
X3.624Y-5.2067
X3.626Y-5.2953
X3.6476Y-5.4606
X3.6618Y-5.2949
X3.7244Y-5.0827
X3.7264Y-5.0472
X3.7402Y-5.5492
X3.7736Y-5.0059
X3.7795Y-5.2677
X3.7913Y-5.0433
X3.8366Y-5.8012
X3.8543Y-5.624
X3.8937Y-5.2343
X3.9134Y-3.9754
X3.9232Y-5.2067
X3.9508Y-5.374
X3.9528Y-5.3366
X3.9547Y-5.0118
X3.9547Y-5.0472
X3.9587Y-5.2067
X3.9806Y-3.8583
X3.9882Y-5.3366
X4.0709Y-4.4902
T2
X1.8504Y-3.8976
X1.8504Y-3.9764
X1.8504Y-4.0551
X1.8504Y-4.1339
X1.8504Y-4.2126
X1.8504Y-4.2913
X1.8504Y-4.3701
X1.8504Y-4.4488
X1.8504Y-4.5276
X1.8504Y-4.6063
X1.8504Y-4.685
X1.8504Y-4.7638
X1.8504Y-4.8425
X1.8504Y-4.9213
X1.8504Y-5.0
X1.8504Y-5.0787
X1.8504Y-5.1575
X1.8504Y-5.2362
X1.8504Y-5.315
X1.8504Y-5.3937
X1.8504Y-5.4724
X1.8504Y-5.5512
X1.8504Y-5.6299
X1.8504Y-5.7087
X1.8504Y-5.7874
X1.8504Y-5.8661
X1.8504Y-5.9449
X1.8504Y-6.0236
X1.8504Y-6.1024
X1.8504Y-6.1811
X1.9291Y-3.937
X1.9291Y-4.0157
X1.9291Y-4.0945
X1.9291Y-4.1732
X1.9291Y-4.252
X1.9291Y-4.3307
X1.9291Y-4.4094
X1.9291Y-4.4882
X1.9291Y-4.8819
X1.9291Y-4.9606
X1.9291Y-5.0394
X1.9291Y-5.1181
X1.9291Y-5.1969
X1.9291Y-5.2756
X1.9291Y-5.3543
X1.9291Y-5.4331
X1.9291Y-5.5118
X1.9291Y-6.063
X1.9291Y-6.1417
X2.0079Y-3.8976
X2.0079Y-3.9764
X2.0079Y-4.0551
X2.0079Y-4.1339
X2.0079Y-4.2126
X2.0079Y-4.2913
X2.0079Y-4.3701
X2.0079Y-4.4488
X2.0079Y-4.9213
X2.0079Y-5.0
X2.0079Y-5.0787
X2.0079Y-5.1575
X2.0079Y-5.2362
X2.0079Y-5.315
X2.0079Y-5.3937
X2.0079Y-5.4724
X2.0079Y-6.1024
X2.0866Y-3.937
X2.0866Y-4.0157
X2.0866Y-4.0945
X2.0866Y-4.1732
X2.0866Y-4.252
X2.0866Y-4.3307
X2.0866Y-4.4094
X2.0866Y-4.4882
X2.0866Y-4.8819
X2.0866Y-4.9606
X2.0866Y-5.0394
X2.0866Y-5.1181
X2.0866Y-5.1969
X2.0866Y-5.2756
X2.0866Y-5.3543
X2.0866Y-5.4331
X2.0866Y-5.5118
X2.0866Y-5.5906
X2.0866Y-5.6693
X2.0866Y-5.748
X2.0866Y-5.8268
X2.0866Y-5.9055
X2.0866Y-5.9843
X2.0866Y-6.063
X2.0866Y-6.1417
X2.126Y-3.5827
X2.1654Y-3.8976
X2.1654Y-3.9764
X2.1654Y-4.0551
X2.1654Y-4.1339
X2.1654Y-4.2126
X2.1654Y-4.2913
X2.1654Y-4.3701
X2.1654Y-4.4488
X2.1654Y-4.5276
X2.1654Y-4.8425
X2.1654Y-4.9213
X2.1654Y-5.0
X2.1654Y-5.0787
X2.1654Y-5.1575
X2.1654Y-5.2362
X2.1654Y-5.315
X2.1654Y-5.3937
X2.1654Y-5.4724
X2.1654Y-5.5512
X2.1654Y-5.6299
X2.1654Y-5.7087
X2.1654Y-5.7874
X2.1654Y-5.8661
X2.1654Y-5.9449
X2.1654Y-6.0236
X2.1654Y-6.1024
X2.1654Y-6.1811
X2.1654Y-6.2598
X2.1654Y-6.3386
X2.1654Y-6.4173
X2.2047Y-3.5827
X2.2441Y-4.1732
X2.2441Y-4.252
X2.2441Y-4.3307
X2.2441Y-4.4094
X2.2441Y-4.9606
X2.2441Y-5.0394
X2.2441Y-5.1181
X2.2441Y-5.1969
X2.2441Y-5.2756
X2.2441Y-5.3543
X2.2441Y-5.4331
X2.2441Y-5.5118
X2.2441Y-5.5906
X2.2441Y-5.6693
X2.2441Y-5.748
X2.2441Y-5.8268
X2.2441Y-5.9055
X2.2441Y-5.9843
X2.2441Y-6.063
X2.2441Y-6.2992
X2.2441Y-6.378
X2.2441Y-6.4567
X2.2835Y-3.5827
X2.3228Y-4.1339
X2.3228Y-4.2126
X2.3228Y-4.2913
X2.3228Y-4.3701
X2.3228Y-4.4488
X2.3228Y-4.9213
X2.3228Y-5.6299
X2.3228Y-5.7087
X2.3228Y-5.7874
X2.3228Y-5.9449
X2.3228Y-6.0236
X2.3228Y-6.2598
X2.3228Y-6.3386
X2.3228Y-6.4173
X2.4016Y-4.1732
X2.4016Y-4.252
X2.4016Y-4.3307
X2.4016Y-4.4094
X2.4016Y-4.4882
X2.4016Y-4.5669
X2.4016Y-4.6457
X2.4016Y-4.7244
X2.4016Y-4.8031
X2.4016Y-4.8819
X2.4016Y-5.0394
X2.4016Y-5.1181
X2.4016Y-5.6693
X2.4016Y-5.748
X2.4016Y-5.9843
X2.4016Y-6.063
X2.4016Y-6.1417
X2.4016Y-6.2205
X2.4016Y-6.2992
X2.4016Y-6.378
X2.4016Y-6.4567
X2.4803Y-4.2126
X2.4803Y-4.2913
X2.4803Y-4.3701
X2.4803Y-4.5276
X2.4803Y-4.6063
X2.4803Y-4.685
X2.4803Y-4.7638
X2.4803Y-5.0
X2.4803Y-6.0236
X2.4803Y-6.1024
X2.4803Y-6.1811
X2.4803Y-6.2598
X2.4803Y-6.3386
X2.4803Y-6.4173
X2.5591Y-4.5669
X2.5591Y-4.6457
X2.5591Y-4.7244
X2.5591Y-4.8819
X2.5591Y-4.9606
X2.5591Y-5.3937
X2.5591Y-6.063
X2.5591Y-6.1417
X2.5591Y-6.2205
X2.5591Y-6.2992
X2.5591Y-6.378
X2.5591Y-6.4567
X2.5984Y-5.4724
X2.6378Y-4.685
X2.6378Y-4.7638
X2.6378Y-4.9213
X2.6378Y-5.9449
X2.6378Y-6.0236
X2.6378Y-6.2598
X2.6378Y-6.3386
X2.6378Y-6.4173
X2.7165Y-4.7244
X2.7165Y-4.8819
X2.7165Y-5.8268
X2.7165Y-5.9055
X2.7165Y-5.9843
X2.7165Y-6.063
X2.7165Y-6.2992
X2.7165Y-6.378
X2.7165Y-6.4567
X2.7559Y-4.0945
X2.7953Y-5.8661
X2.7953Y-5.9449
X2.7953Y-6.0236
X2.7953Y-6.1024
X2.7953Y-6.1811
X2.7953Y-6.2598
X2.7953Y-6.3386
X2.7953Y-6.4173
X2.8346Y-4.0945
X2.874Y-5.8268
X2.874Y-5.9055
X2.874Y-5.9843
X2.874Y-6.063
X2.874Y-6.1417
X2.874Y-6.2205
X2.874Y-6.2992
X2.874Y-6.378
X2.874Y-6.4567
X2.9134Y-4.0945
X2.9528Y-5.7874
X2.9528Y-5.8661
X2.9528Y-5.9449
X2.9528Y-6.0236
X2.9528Y-6.1024
X2.9528Y-6.1811
X2.9528Y-6.2598
X2.9528Y-6.3386
X2.9528Y-6.4173
X2.9921Y-5.3937
X3.0315Y-3.7008
X3.0315Y-3.7795
X3.0315Y-5.1181
X3.0315Y-5.748
X3.0315Y-5.8268
X3.0315Y-5.9055
X3.0315Y-5.9843
X3.0315Y-6.063
X3.0315Y-6.1417
X3.0315Y-6.2205
X3.0315Y-6.2992
X3.0315Y-6.378
X3.0315Y-6.4567
X3.0709Y-5.1575
X3.0728Y-4.165
X3.0866Y-3.9941
X3.1102Y-5.5906
X3.1102Y-5.7874
X3.1102Y-5.8661
X3.1102Y-5.9449
X3.1102Y-6.0236
X3.1102Y-6.1024
X3.1102Y-6.1811
X3.1102Y-6.2598
X3.1102Y-6.3386
X3.1102Y-6.4173
X3.1299Y-4.1693
X3.1484Y-4.2587
X3.1496Y-4.9606
X3.1496Y-5.0394
X3.1496Y-5.1969
X3.187Y-4.0236
X3.189Y-5.9843
X3.189Y-6.063
X3.189Y-6.1417
X3.189Y-6.2205
X3.189Y-6.2992
X3.189Y-6.378
X3.189Y-6.4567
X3.1953Y-5.8487
X3.1953Y-5.9275
X3.2283Y-4.8819
X3.2283Y-5.0394
X3.2283Y-5.1969
X3.2677Y-5.8661
X3.2677Y-5.9449
X3.2677Y-6.0236
X3.2677Y-6.1024
X3.2677Y-6.1811
X3.2677Y-6.2598
X3.2677Y-6.3386
X3.2677Y-6.4173
X3.2756Y-4.1122
X3.3071Y-3.5827
X3.3071Y-4.8819
X3.3071Y-4.9606
X3.3465Y-3.937
X3.3465Y-4.0157
X3.3465Y-4.0945
X3.3465Y-4.5276
X3.3465Y-5.8268
X3.3465Y-5.9055
X3.3465Y-5.9843
X3.3465Y-6.063
X3.3465Y-6.1417
X3.3465Y-6.2205
X3.3465Y-6.2992
X3.3465Y-6.378
X3.3465Y-6.4567
X3.3504Y-5.1122
X3.3858Y-3.5827
X3.3858Y-4.9606
X3.4252Y-4.8425
X3.4252Y-5.8661
X3.4252Y-5.9449
X3.4252Y-6.0236
X3.4252Y-6.2598
X3.4252Y-6.3386
X3.4252Y-6.4173
X3.435Y-3.9764
X3.4646Y-3.5827
X3.4646Y-4.6063
X3.4646Y-5.0787
X3.4646Y-5.2756
X3.4744Y-3.9764
X3.5039Y-4.8819
X3.5039Y-5.3937
X3.5039Y-5.5512
X3.5039Y-5.9055
X3.5039Y-5.9843
X3.5039Y-6.063
X3.5039Y-6.2992
X3.5039Y-6.378
X3.5039Y-6.4567
X3.5236Y-4.0955
X3.5433Y-3.5827
X3.5433Y-4.685
X3.5433Y-5.0
X3.5433Y-5.1181
X3.5433Y-5.1969
X3.5669Y-4.0965
X3.5827Y-4.3701
X3.5827Y-4.5276
X3.5827Y-5.5512
X3.5827Y-5.7874
X3.5827Y-5.9449
X3.5827Y-6.0236
X3.5827Y-6.1024
X3.5827Y-6.1811
X3.5827Y-6.2598
X3.5827Y-6.3386
X3.5827Y-6.4173
X3.5935Y-4.0118
X3.6208Y-5.0784
X3.622Y-3.5827
X3.622Y-5.0
X3.6614Y-4.4094
X3.6614Y-4.5669
X3.6614Y-4.7638
X3.6614Y-6.063
X3.6614Y-6.1417
X3.6614Y-6.2205
X3.6614Y-6.2992
X3.6614Y-6.378
X3.6614Y-6.4567
X3.6772Y-4.0128
X3.7008Y-3.5827
X3.7008Y-4.8425
X3.7323Y-4.2195
X3.7323Y-4.2589
X3.7402Y-4.5276
X3.7402Y-4.6063
X3.7402Y-6.0236
X3.7402Y-6.1024
X3.7402Y-6.1811
X3.7402Y-6.2598
X3.7402Y-6.3386
X3.7402Y-6.4173
X3.7795Y-3.5827
X3.8022Y-4.0955
X3.8189Y-4.3307
X3.8189Y-4.7244
X3.8189Y-4.8031
X3.8189Y-6.063
X3.8189Y-6.2205
X3.8189Y-6.2992
X3.8189Y-6.378
X3.8189Y-6.4567
X3.8474Y-4.0945
X3.8583Y-3.5827
X3.876Y-3.9754
X3.877Y-4.0157
X3.8976Y-4.2913
X3.8976Y-4.7638
X3.8976Y-5.7087
X3.8976Y-5.8661
X3.8976Y-5.9449
X3.8976Y-6.0236
X3.8976Y-6.2598
X3.8976Y-6.3386
X3.8976Y-6.4173
X3.937Y-3.5827
X3.9764Y-4.252
X3.9764Y-4.7047
X3.9764Y-4.8031
X3.9764Y-5.5906
X3.9764Y-5.6693
X3.9764Y-5.748
X3.9764Y-5.8268
X3.9764Y-5.9055
X3.9764Y-5.9843
X3.9764Y-6.063
X3.9764Y-6.2205
X3.9764Y-6.2992
X3.9764Y-6.378
X3.9764Y-6.4567
X3.9783Y-4.6634
X4.0157Y-3.5827
X4.0551Y-3.8976
X4.0551Y-3.9764
X4.0551Y-4.0551
X4.0551Y-4.1339
X4.0551Y-4.2126
X4.0551Y-4.2913
X4.0551Y-4.685
X4.0551Y-4.7638
X4.0551Y-4.8425
X4.0551Y-4.9213
X4.0551Y-5.2362
X4.0551Y-5.315
X4.0551Y-5.4724
X4.0551Y-5.5512
X4.0551Y-5.6299
X4.0551Y-5.7087
X4.0551Y-5.7874
X4.0551Y-5.8661
X4.0551Y-5.9449
X4.0551Y-6.0236
X4.0551Y-6.1024
X4.0551Y-6.1811
X4.0551Y-6.2598
X4.0551Y-6.4173
X4.1339Y-3.937
X4.1339Y-4.0157
X4.1339Y-4.0945
X4.1339Y-4.1732
X4.1339Y-4.252
X4.1339Y-4.7244
X4.1339Y-4.8031
X4.1339Y-4.8819
X4.1339Y-4.9606
X4.1339Y-5.0394
X4.1339Y-5.1181
X4.1339Y-5.1969
X4.1339Y-5.2756
X4.1339Y-5.3543
X4.1339Y-5.4331
X4.1339Y-5.5118
X4.1339Y-5.5906
X4.1339Y-5.6693
X4.1339Y-5.748
X4.1339Y-5.8268
X4.1339Y-5.9055
X4.1339Y-5.9843
X4.1339Y-6.063
X4.1339Y-6.1417
X4.185Y-4.2697
X4.185Y-4.7441
X4.2126Y-3.9764
X4.2126Y-4.0551
X4.2126Y-4.1339
X4.2126Y-4.8425
X4.2126Y-4.9213
X4.2126Y-5.0
X4.2126Y-5.0787
X4.2126Y-6.1024
X4.2126Y-6.1811
X4.2913Y-3.937
X4.2913Y-4.0157
X4.2913Y-4.0945
X4.2913Y-4.8819
X4.2913Y-4.9606
X4.2913Y-5.0394
X4.2913Y-5.1181
X4.2913Y-5.1969
X4.2913Y-5.2756
X4.2913Y-5.3543
X4.2913Y-5.4331
X4.2913Y-5.5118
X4.2913Y-5.5906
X4.2913Y-5.6693
X4.2913Y-5.748
X4.2913Y-5.8268
X4.2913Y-5.9055
X4.2913Y-5.9843
X4.2913Y-6.063
X4.2913Y-6.1417
T4
X4.2114Y-4.3941
X4.2114Y-4.622
T5
X2.4772Y-5.9567
X2.5772Y-5.9567
X3.6976Y-5.9567
X3.7976Y-5.9567
T6
X2.2772Y-6.1567
X2.6772Y-6.1567
X3.4976Y-6.1567
X3.8976Y-6.1567
T7
X1.9685Y-6.3386
X1.9715Y-3.7008
X4.2126Y-6.3386
X4.2156Y-3.7008
T3
G00X4.1701Y-4.3378
M15
G01X4.2134Y-4.3378
M16
G05
G00X4.1701Y-4.678
M15
G01X4.2134Y-4.678
M16
G05
G00X4.3406Y-4.3378
M15
G01X4.372Y-4.3378
M16
G05
G00X4.3406Y-4.678
M15
G01X4.372Y-4.678
M16
G05
M30
