%TF.GenerationSoftware,KiCad,Pcbnew,8.0.7*%
%TF.CreationDate,2025-05-23T18:18:51-03:00*%
%TF.ProjectId,uDAQ,75444151-2e6b-4696-9361-645f70636258,rev?*%
%TF.SameCoordinates,Original*%
%TF.FileFunction,Copper,L1,Top*%
%TF.FilePolarity,Positive*%
%FSLAX46Y46*%
G04 Gerber Fmt 4.6, Leading zero omitted, Abs format (unit mm)*
G04 Created by KiCad (PCBNEW 8.0.7) date 2025-05-23 18:18:51*
%MOMM*%
%LPD*%
G01*
G04 APERTURE LIST*
G04 Aperture macros list*
%AMRoundRect*
0 Rectangle with rounded corners*
0 $1 Rounding radius*
0 $2 $3 $4 $5 $6 $7 $8 $9 X,Y pos of 4 corners*
0 Add a 4 corners polygon primitive as box body*
4,1,4,$2,$3,$4,$5,$6,$7,$8,$9,$2,$3,0*
0 Add four circle primitives for the rounded corners*
1,1,$1+$1,$2,$3*
1,1,$1+$1,$4,$5*
1,1,$1+$1,$6,$7*
1,1,$1+$1,$8,$9*
0 Add four rect primitives between the rounded corners*
20,1,$1+$1,$2,$3,$4,$5,0*
20,1,$1+$1,$4,$5,$6,$7,0*
20,1,$1+$1,$6,$7,$8,$9,0*
20,1,$1+$1,$8,$9,$2,$3,0*%
%AMFreePoly0*
4,1,9,3.862500,-0.866500,0.737500,-0.866500,0.737500,-0.450000,-0.737500,-0.450000,-0.737500,0.450000,0.737500,0.450000,0.737500,0.866500,3.862500,0.866500,3.862500,-0.866500,3.862500,-0.866500,$1*%
G04 Aperture macros list end*
%TA.AperFunction,ComponentPad*%
%ADD10O,1.800000X1.000000*%
%TD*%
%TA.AperFunction,ComponentPad*%
%ADD11O,2.100000X1.000000*%
%TD*%
%TA.AperFunction,SMDPad,CuDef*%
%ADD12R,1.240000X0.600000*%
%TD*%
%TA.AperFunction,SMDPad,CuDef*%
%ADD13R,1.240000X0.300000*%
%TD*%
%TA.AperFunction,ComponentPad*%
%ADD14C,0.650000*%
%TD*%
%TA.AperFunction,ComponentPad*%
%ADD15C,6.400000*%
%TD*%
%TA.AperFunction,SMDPad,CuDef*%
%ADD16R,2.400000X0.740000*%
%TD*%
%TA.AperFunction,SMDPad,CuDef*%
%ADD17R,2.350000X3.500000*%
%TD*%
%TA.AperFunction,ComponentPad*%
%ADD18C,3.090000*%
%TD*%
%TA.AperFunction,ComponentPad*%
%ADD19C,1.509000*%
%TD*%
%TA.AperFunction,SMDPad,CuDef*%
%ADD20RoundRect,0.140000X-0.170000X0.140000X-0.170000X-0.140000X0.170000X-0.140000X0.170000X0.140000X0*%
%TD*%
%TA.AperFunction,SMDPad,CuDef*%
%ADD21RoundRect,0.140000X0.140000X0.170000X-0.140000X0.170000X-0.140000X-0.170000X0.140000X-0.170000X0*%
%TD*%
%TA.AperFunction,SMDPad,CuDef*%
%ADD22RoundRect,0.140000X0.021213X-0.219203X0.219203X-0.021213X-0.021213X0.219203X-0.219203X0.021213X0*%
%TD*%
%TA.AperFunction,SMDPad,CuDef*%
%ADD23RoundRect,0.140000X-0.140000X-0.170000X0.140000X-0.170000X0.140000X0.170000X-0.140000X0.170000X0*%
%TD*%
%TA.AperFunction,SMDPad,CuDef*%
%ADD24RoundRect,0.140000X0.170000X-0.140000X0.170000X0.140000X-0.170000X0.140000X-0.170000X-0.140000X0*%
%TD*%
%TA.AperFunction,SMDPad,CuDef*%
%ADD25RoundRect,0.250000X-0.475000X0.250000X-0.475000X-0.250000X0.475000X-0.250000X0.475000X0.250000X0*%
%TD*%
%TA.AperFunction,SMDPad,CuDef*%
%ADD26R,0.300000X1.400000*%
%TD*%
%TA.AperFunction,SMDPad,CuDef*%
%ADD27R,1.200000X1.400000*%
%TD*%
%TA.AperFunction,SMDPad,CuDef*%
%ADD28RoundRect,0.140000X0.141421X0.933381X-0.933381X-0.141421X-0.141421X-0.933381X0.933381X0.141421X0*%
%TD*%
%TA.AperFunction,SMDPad,CuDef*%
%ADD29RoundRect,0.225000X0.225000X0.250000X-0.225000X0.250000X-0.225000X-0.250000X0.225000X-0.250000X0*%
%TD*%
%TA.AperFunction,SMDPad,CuDef*%
%ADD30R,0.500000X1.100000*%
%TD*%
%TA.AperFunction,SMDPad,CuDef*%
%ADD31RoundRect,0.225000X0.250000X-0.225000X0.250000X0.225000X-0.250000X0.225000X-0.250000X-0.225000X0*%
%TD*%
%TA.AperFunction,SMDPad,CuDef*%
%ADD32RoundRect,0.250000X0.475000X-0.250000X0.475000X0.250000X-0.475000X0.250000X-0.475000X-0.250000X0*%
%TD*%
%TA.AperFunction,SMDPad,CuDef*%
%ADD33RoundRect,0.150000X0.150000X-0.587500X0.150000X0.587500X-0.150000X0.587500X-0.150000X-0.587500X0*%
%TD*%
%TA.AperFunction,SMDPad,CuDef*%
%ADD34RoundRect,0.225000X-0.425000X-0.225000X0.425000X-0.225000X0.425000X0.225000X-0.425000X0.225000X0*%
%TD*%
%TA.AperFunction,SMDPad,CuDef*%
%ADD35FreePoly0,0.000000*%
%TD*%
%TA.AperFunction,SMDPad,CuDef*%
%ADD36RoundRect,0.075000X-0.075000X-0.662500X0.075000X-0.662500X0.075000X0.662500X-0.075000X0.662500X0*%
%TD*%
%TA.AperFunction,SMDPad,CuDef*%
%ADD37RoundRect,0.075000X-0.662500X-0.075000X0.662500X-0.075000X0.662500X0.075000X-0.662500X0.075000X0*%
%TD*%
%TA.AperFunction,SMDPad,CuDef*%
%ADD38RoundRect,0.225000X-0.225000X-0.250000X0.225000X-0.250000X0.225000X0.250000X-0.225000X0.250000X0*%
%TD*%
%TA.AperFunction,SMDPad,CuDef*%
%ADD39RoundRect,0.150000X-0.150000X0.512500X-0.150000X-0.512500X0.150000X-0.512500X0.150000X0.512500X0*%
%TD*%
%TA.AperFunction,SMDPad,CuDef*%
%ADD40RoundRect,0.225000X-0.250000X0.225000X-0.250000X-0.225000X0.250000X-0.225000X0.250000X0.225000X0*%
%TD*%
%TA.AperFunction,SMDPad,CuDef*%
%ADD41RoundRect,0.100000X0.130000X0.100000X-0.130000X0.100000X-0.130000X-0.100000X0.130000X-0.100000X0*%
%TD*%
%TA.AperFunction,SMDPad,CuDef*%
%ADD42RoundRect,0.140000X0.219203X0.021213X0.021213X0.219203X-0.219203X-0.021213X-0.021213X-0.219203X0*%
%TD*%
%TA.AperFunction,SMDPad,CuDef*%
%ADD43RoundRect,0.250000X-0.450000X0.262500X-0.450000X-0.262500X0.450000X-0.262500X0.450000X0.262500X0*%
%TD*%
%TA.AperFunction,SMDPad,CuDef*%
%ADD44RoundRect,0.150000X0.512500X0.150000X-0.512500X0.150000X-0.512500X-0.150000X0.512500X-0.150000X0*%
%TD*%
%TA.AperFunction,SMDPad,CuDef*%
%ADD45RoundRect,0.150000X0.150000X-0.512500X0.150000X0.512500X-0.150000X0.512500X-0.150000X-0.512500X0*%
%TD*%
%TA.AperFunction,SMDPad,CuDef*%
%ADD46RoundRect,0.250000X0.250000X0.475000X-0.250000X0.475000X-0.250000X-0.475000X0.250000X-0.475000X0*%
%TD*%
%TA.AperFunction,SMDPad,CuDef*%
%ADD47RoundRect,0.150000X-0.512500X-0.150000X0.512500X-0.150000X0.512500X0.150000X-0.512500X0.150000X0*%
%TD*%
%TA.AperFunction,SMDPad,CuDef*%
%ADD48R,1.100000X0.500000*%
%TD*%
%TA.AperFunction,SMDPad,CuDef*%
%ADD49RoundRect,0.140000X-0.021213X0.219203X-0.219203X0.021213X0.021213X-0.219203X0.219203X-0.021213X0*%
%TD*%
%TA.AperFunction,ViaPad*%
%ADD50C,0.800000*%
%TD*%
%TA.AperFunction,ViaPad*%
%ADD51C,0.700000*%
%TD*%
%TA.AperFunction,Conductor*%
%ADD52C,0.500000*%
%TD*%
%TA.AperFunction,Conductor*%
%ADD53C,0.200000*%
%TD*%
%TA.AperFunction,Conductor*%
%ADD54C,0.300000*%
%TD*%
G04 APERTURE END LIST*
D10*
%TO.P,J201,S1,SHIELD*%
%TO.N,unconnected-(J201-SHIELD-PadS1)*%
X110650000Y-110180000D03*
D11*
%TO.N,unconnected-(J201-SHIELD-PadS1)_1*%
X106470000Y-110180000D03*
D10*
%TO.N,unconnected-(J201-SHIELD-PadS1)_3*%
X110650000Y-118820000D03*
D11*
%TO.N,unconnected-(J201-SHIELD-PadS1)_2*%
X106470000Y-118820000D03*
D12*
%TO.P,J201,B12,GND*%
%TO.N,GND*%
X105850000Y-117700000D03*
%TO.P,J201,B9,VBUS*%
%TO.N,VBUS*%
X105850000Y-116900000D03*
D13*
%TO.P,J201,B8,SBU2*%
%TO.N,unconnected-(J201-SBU2-PadB8)*%
X105850000Y-116250000D03*
%TO.P,J201,B7,D-*%
%TO.N,/MCU/USB_DIFF_N*%
X105850000Y-115250000D03*
%TO.P,J201,B6,D+*%
%TO.N,/MCU/USB_DIFF_P*%
X105850000Y-113750000D03*
%TO.P,J201,B5,CC2*%
%TO.N,/MCU/USB_CC2*%
X105850000Y-112750000D03*
D12*
%TO.P,J201,B4,VBUS*%
%TO.N,VBUS*%
X105850000Y-112100000D03*
%TO.P,J201,B1,GND*%
%TO.N,GND*%
X105850000Y-111300000D03*
%TO.P,J201,A12,GND*%
X105850000Y-111300000D03*
%TO.P,J201,A9,VBUS*%
%TO.N,VBUS*%
X105850000Y-112100000D03*
D13*
%TO.P,J201,A8,SBU1*%
%TO.N,unconnected-(J201-SBU1-PadA8)*%
X105850000Y-113250000D03*
%TO.P,J201,A7,D-*%
%TO.N,/MCU/USB_DIFF_N*%
X105850000Y-114250000D03*
%TO.P,J201,A6,D+*%
%TO.N,/MCU/USB_DIFF_P*%
X105850000Y-114750000D03*
%TO.P,J201,A5,CC1*%
%TO.N,/MCU/USB_CC1*%
X105850000Y-115750000D03*
D12*
%TO.P,J201,A4,VBUS*%
%TO.N,VBUS*%
X105850000Y-116900000D03*
%TO.P,J201,A1,GND*%
%TO.N,GND*%
X105850000Y-117700000D03*
D14*
%TO.P,J201,*%
%TO.N,*%
X106970000Y-111610000D03*
X106970000Y-117400000D03*
%TD*%
D15*
%TO.P,MH4,1,1*%
%TO.N,GND*%
X50075000Y-94000000D03*
%TD*%
%TO.P,MH3,1,1*%
%TO.N,GND*%
X107075000Y-94000000D03*
%TD*%
%TO.P,MH2,1,1*%
%TO.N,GND*%
X107000000Y-161000000D03*
%TD*%
%TO.P,MH1,1,1*%
%TO.N,GND*%
X50000000Y-161000000D03*
%TD*%
D16*
%TO.P,J202,1,Pin_1*%
%TO.N,+3V3*%
X61685000Y-94780000D03*
%TO.P,J202,2,Pin_2*%
%TO.N,GND*%
X65585000Y-94780000D03*
%TO.P,J202,3,Pin_3*%
X61685000Y-96050000D03*
%TO.P,J202,4,Pin_4*%
%TO.N,unconnected-(J202-Pin_4-Pad4)*%
X65585000Y-96050000D03*
%TO.P,J202,5,Pin_5*%
%TO.N,GND*%
X61685000Y-97320000D03*
%TO.P,J202,6,Pin_6*%
%TO.N,/MCU/CONN_NRST*%
X65585000Y-97320000D03*
%TO.P,J202,7,Pin_7*%
%TO.N,unconnected-(J202-Pin_7-Pad7)*%
X61685000Y-98590000D03*
%TO.P,J202,8,Pin_8*%
%TO.N,/MCU/CONN_SWO*%
X65585000Y-98590000D03*
%TO.P,J202,9,Pin_9*%
%TO.N,/MCU/CONN_SWCLK*%
X61685000Y-99860000D03*
%TO.P,J202,10,Pin_10*%
%TO.N,/MCU/CONN_SWDIO*%
X65585000Y-99860000D03*
%TD*%
D17*
%TO.P,L102,1,1*%
%TO.N,/power/BUCK_SW*%
X90582500Y-96120000D03*
%TO.P,L102,2,2*%
%TO.N,+3V3*%
X96632500Y-96120000D03*
%TD*%
D18*
%TO.P,J401,2,Ext*%
%TO.N,GND*%
X88840000Y-156380000D03*
D19*
X96460000Y-151300000D03*
D18*
X99000000Y-156380000D03*
D19*
%TO.P,J401,1,In*%
%TO.N,/DAC/OUT*%
X93920000Y-151300000D03*
%TD*%
D18*
%TO.P,J301,2,Ext*%
%TO.N,GND*%
X57840000Y-156380000D03*
D19*
X65460000Y-151300000D03*
D18*
X68000000Y-156380000D03*
D19*
%TO.P,J301,1,In*%
%TO.N,/ADC/IN*%
X62920000Y-151300000D03*
%TD*%
D20*
%TO.P,C315,2*%
%TO.N,+3V3A*%
X72450000Y-142117500D03*
%TO.P,C315,1*%
%TO.N,GND*%
X72450000Y-141157500D03*
%TD*%
D21*
%TO.P,R102,2*%
%TO.N,/power/BUCK_FB*%
X92457500Y-105670000D03*
%TO.P,R102,1*%
%TO.N,+3V3*%
X93417500Y-105670000D03*
%TD*%
D22*
%TO.P,R206,2*%
%TO.N,/MCU/LED_R_K*%
X82289411Y-99010589D03*
%TO.P,R206,1*%
%TO.N,/MCU/TIM4_CH1*%
X81610589Y-99689411D03*
%TD*%
D23*
%TO.P,R212,2*%
%TO.N,/MCU/MCU_SWCLK*%
X59110000Y-102300000D03*
%TO.P,R212,1*%
%TO.N,/MCU/CONN_SWCLK*%
X58150000Y-102300000D03*
%TD*%
D24*
%TO.P,C210,2*%
%TO.N,GND*%
X69500000Y-109570000D03*
%TO.P,C210,1*%
%TO.N,/MCU/MCU_HSE_IN*%
X69500000Y-110530000D03*
%TD*%
D25*
%TO.P,C108,1*%
%TO.N,GND*%
X83700000Y-143500000D03*
%TO.P,C108,2*%
%TO.N,/power/VREF*%
X83700000Y-145400000D03*
%TD*%
D20*
%TO.P,R205,1*%
%TO.N,+3V3*%
X95400000Y-112620000D03*
%TO.P,R205,2*%
%TO.N,/MCU/MCU_USB_DIFF_P*%
X95400000Y-113580000D03*
%TD*%
D26*
%TO.P,U301,10,VA*%
%TO.N,+3V3A*%
X71700000Y-129750000D03*
%TO.P,U301,9,VIO*%
%TO.N,+3V3*%
X72200000Y-129750000D03*
%TO.P,U301,8,SCLK*%
%TO.N,/ADC/ADC_SCK*%
X72700000Y-129750000D03*
%TO.P,U301,7,DOUT*%
%TO.N,SPI1_MISO*%
X73200000Y-129750000D03*
%TO.P,U301,6,NCS*%
%TO.N,SPI1_NSS*%
X73700000Y-129750000D03*
%TO.P,U301,5,GND*%
%TO.N,GND*%
X73700000Y-134150000D03*
%TO.P,U301,4,GND*%
X73200000Y-134150000D03*
%TO.P,U301,3,-IN*%
%TO.N,/ADC/ADC_IN-*%
X72700000Y-134150000D03*
%TO.P,U301,2,+IN*%
%TO.N,/ADC/ADC_IN+*%
X72200000Y-134150000D03*
%TO.P,U301,1,VREF*%
%TO.N,/ADC/ADC_VREF*%
X71700000Y-134150000D03*
%TD*%
D27*
%TO.P,Y201,4,4*%
%TO.N,GND*%
X68100000Y-109500000D03*
%TO.P,Y201,3,3*%
%TO.N,/MCU/XTAL_IN*%
X68100000Y-111700000D03*
%TO.P,Y201,2,2*%
%TO.N,GND*%
X66400000Y-111700000D03*
%TO.P,Y201,1,1*%
%TO.N,/MCU/MCU_HSE_IN*%
X66400000Y-109500000D03*
%TD*%
D26*
%TO.P,U401,10,VREFIN/VREFOUT*%
%TO.N,/DAC/DAC_VREF*%
X97892500Y-129800000D03*
%TO.P,U401,9,AVDD*%
%TO.N,+3V3*%
X98392500Y-129800000D03*
%TO.P,U401,8,DIN*%
%TO.N,SPI2_MOSI*%
X98892500Y-129800000D03*
%TO.P,U401,7,SCLK*%
%TO.N,/DAC/DAC_SCLK*%
X99392500Y-129800000D03*
%TO.P,U401,6,NSYNC*%
%TO.N,SPI2_NSS*%
X99892500Y-129800000D03*
%TO.P,U401,5,NCLR*%
%TO.N,DAC_NCLR*%
X99892500Y-134200000D03*
%TO.P,U401,4,NLDAC*%
%TO.N,DAC_NLDAC*%
X99392500Y-134200000D03*
%TO.P,U401,3,GND*%
%TO.N,GND*%
X98892500Y-134200000D03*
%TO.P,U401,2,VOUT_B*%
%TO.N,/DAC/DAC_OUT_B*%
X98392500Y-134200000D03*
%TO.P,U401,1,VOUT_A*%
%TO.N,/DAC/DAC_OUT_A*%
X97892500Y-134200000D03*
%TD*%
D28*
%TO.P,D201,4,4*%
%TO.N,/MCU/LED_B_K*%
X82844155Y-95852513D03*
%TO.P,D201,3,3*%
%TO.N,/MCU/LED_R_K*%
X81005677Y-97690991D03*
%TO.P,D201,2,2*%
%TO.N,+3V3*%
X81500652Y-94509010D03*
%TO.P,D201,1,1*%
%TO.N,/MCU/LED_G_K*%
X79662174Y-96347488D03*
%TD*%
D29*
%TO.P,R302,1*%
%TO.N,/ADC/ADC_VREF_IN*%
X63787500Y-135850000D03*
%TO.P,R302,2*%
%TO.N,+5V*%
X62237500Y-135850000D03*
%TD*%
D23*
%TO.P,C212,2*%
%TO.N,VBUS*%
X101080000Y-111700000D03*
%TO.P,C212,1*%
%TO.N,GND*%
X100120000Y-111700000D03*
%TD*%
D30*
%TO.P,D206,1,K1*%
%TO.N,/MCU/CONN_NRST*%
X69135000Y-96290000D03*
%TO.P,D206,2,K2*%
%TO.N,GND*%
X69135000Y-93990000D03*
%TD*%
D23*
%TO.P,R202,2*%
%TO.N,/MCU/MCU_HSE_OUT*%
X69480000Y-113250000D03*
%TO.P,R202,1*%
%TO.N,/MCU/XTAL_IN*%
X68520000Y-113250000D03*
%TD*%
D25*
%TO.P,C105,2*%
%TO.N,GND*%
X90157500Y-102870000D03*
%TO.P,C105,1*%
%TO.N,+5V*%
X90157500Y-100970000D03*
%TD*%
D31*
%TO.P,C207,2*%
%TO.N,GND*%
X71312500Y-114625000D03*
%TO.P,C207,1*%
%TO.N,VDDA*%
X71312500Y-116175000D03*
%TD*%
D24*
%TO.P,R303,2*%
%TO.N,/ADC/IN_RF*%
X62000000Y-139970000D03*
%TO.P,R303,1*%
%TO.N,/ADC/IN*%
X62000000Y-140930000D03*
%TD*%
D23*
%TO.P,C311,2*%
%TO.N,+3V3A*%
X66367500Y-145237500D03*
%TO.P,C311,1*%
%TO.N,GND*%
X65407500Y-145237500D03*
%TD*%
D32*
%TO.P,C104,2*%
%TO.N,GND*%
X80800000Y-138200000D03*
%TO.P,C104,1*%
%TO.N,+3V3A*%
X80800000Y-140100000D03*
%TD*%
D33*
%TO.P,U302,3,GND*%
%TO.N,GND*%
X66337500Y-132612500D03*
%TO.P,U302,2,OUT*%
%TO.N,/ADC/ADC_VREF*%
X67287500Y-134487500D03*
%TO.P,U302,1,IN*%
%TO.N,/ADC/ADC_VREF_IN*%
X65387500Y-134487500D03*
%TD*%
D20*
%TO.P,R201,2*%
%TO.N,/MCU/MCU_BOOT0*%
X78050000Y-107630000D03*
%TO.P,R201,1*%
%TO.N,GND*%
X78050000Y-106670000D03*
%TD*%
D34*
%TO.P,U101,3,VOUT*%
%TO.N,+3V3A*%
X83150000Y-140587500D03*
D35*
%TO.P,U101,2,VIN*%
%TO.N,/power/+5V_FILT*%
X83237500Y-139087500D03*
D34*
%TO.P,U101,1,GND*%
%TO.N,GND*%
X83150000Y-137587500D03*
%TD*%
D36*
%TO.P,U201,48,VDD*%
%TO.N,+3V3*%
X75750000Y-110587500D03*
%TO.P,U201,47,VSS*%
%TO.N,GND*%
X76250000Y-110587500D03*
%TO.P,U201,46,PB9*%
%TO.N,unconnected-(U201-PB9-Pad46)*%
X76750000Y-110587500D03*
%TO.P,U201,45,PB8*%
%TO.N,/MCU/TIM4_CH2*%
X77250000Y-110587500D03*
%TO.P,U201,44,BOOT0*%
%TO.N,/MCU/MCU_BOOT0*%
X77750000Y-110587500D03*
%TO.P,U201,43,PB7*%
%TO.N,/MCU/TIM4_CH1*%
X78250000Y-110587500D03*
%TO.P,U201,42,PB6*%
%TO.N,/MCU/TIM4_CH3*%
X78750000Y-110587500D03*
%TO.P,U201,41,PB5*%
%TO.N,unconnected-(U201-PB5-Pad41)*%
X79250000Y-110587500D03*
%TO.P,U201,40,PB4*%
%TO.N,unconnected-(U201-PB4-Pad40)*%
X79750000Y-110587500D03*
%TO.P,U201,39,PB3*%
%TO.N,/MCU/MCU_SWO*%
X80250000Y-110587500D03*
%TO.P,U201,38,PA15*%
%TO.N,unconnected-(U201-PA15-Pad38)*%
X80750000Y-110587500D03*
%TO.P,U201,37,PA14*%
%TO.N,/MCU/MCU_SWCLK*%
X81250000Y-110587500D03*
D37*
%TO.P,U201,36,VDD*%
%TO.N,+3V3*%
X82662500Y-112000000D03*
%TO.P,U201,35,VSS*%
%TO.N,GND*%
X82662500Y-112500000D03*
%TO.P,U201,34,PA13*%
%TO.N,/MCU/MCU_SWDIO*%
X82662500Y-113000000D03*
%TO.P,U201,33,PA12*%
%TO.N,/MCU/MCU_USB_DIFF_P*%
X82662500Y-113500000D03*
%TO.P,U201,32,PA11*%
%TO.N,/MCU/MCU_USB_DIFF_N*%
X82662500Y-114000000D03*
%TO.P,U201,31,PA10*%
%TO.N,unconnected-(U201-PA10-Pad31)*%
X82662500Y-114500000D03*
%TO.P,U201,30,PA9*%
%TO.N,unconnected-(U201-PA9-Pad30)*%
X82662500Y-115000000D03*
%TO.P,U201,29,PA8*%
%TO.N,unconnected-(U201-PA8-Pad29)*%
X82662500Y-115500000D03*
%TO.P,U201,28,PB15*%
%TO.N,SPI2_MOSI*%
X82662500Y-116000000D03*
%TO.P,U201,27,PB14*%
%TO.N,unconnected-(U201-PB14-Pad27)*%
X82662500Y-116500000D03*
%TO.P,U201,26,PB13*%
%TO.N,SPI2_SCK*%
X82662500Y-117000000D03*
%TO.P,U201,25,PB12*%
%TO.N,SPI2_NSS*%
X82662500Y-117500000D03*
D36*
%TO.P,U201,24,VDD*%
%TO.N,+3V3*%
X81250000Y-118912500D03*
%TO.P,U201,23,VSS*%
%TO.N,GND*%
X80750000Y-118912500D03*
%TO.P,U201,22,PB11*%
%TO.N,unconnected-(U201-PB11-Pad22)*%
X80250000Y-118912500D03*
%TO.P,U201,21,PB10*%
%TO.N,DAC_NLDAC*%
X79750000Y-118912500D03*
%TO.P,U201,20,PB2*%
%TO.N,DAC_NCLR*%
X79250000Y-118912500D03*
%TO.P,U201,19,PB1*%
%TO.N,unconnected-(U201-PB1-Pad19)*%
X78750000Y-118912500D03*
%TO.P,U201,18,PB0*%
%TO.N,unconnected-(U201-PB0-Pad18)*%
X78250000Y-118912500D03*
%TO.P,U201,17,PA7*%
%TO.N,unconnected-(U201-PA7-Pad17)*%
X77750000Y-118912500D03*
%TO.P,U201,16,PA6*%
%TO.N,SPI1_MISO*%
X77250000Y-118912500D03*
%TO.P,U201,15,PA5*%
%TO.N,SPI1_SCK*%
X76750000Y-118912500D03*
%TO.P,U201,14,PA4*%
%TO.N,SPI1_NSS*%
X76250000Y-118912500D03*
%TO.P,U201,13,PA3*%
%TO.N,unconnected-(U201-PA3-Pad13)*%
X75750000Y-118912500D03*
D37*
%TO.P,U201,12,PA2*%
%TO.N,unconnected-(U201-PA2-Pad12)*%
X74337500Y-117500000D03*
%TO.P,U201,11,PA1*%
%TO.N,unconnected-(U201-PA1-Pad11)*%
X74337500Y-117000000D03*
%TO.P,U201,10,PA0*%
%TO.N,unconnected-(U201-PA0-Pad10)*%
X74337500Y-116500000D03*
%TO.P,U201,9,VDDA*%
%TO.N,VDDA*%
X74337500Y-116000000D03*
%TO.P,U201,8,VSSA*%
%TO.N,GND*%
X74337500Y-115500000D03*
%TO.P,U201,7,NRST*%
%TO.N,/MCU/MCU_NRST*%
X74337500Y-115000000D03*
%TO.P,U201,6,PD1*%
%TO.N,/MCU/MCU_HSE_OUT*%
X74337500Y-114500000D03*
%TO.P,U201,5,PD0*%
%TO.N,/MCU/MCU_HSE_IN*%
X74337500Y-114000000D03*
%TO.P,U201,4,PC15*%
%TO.N,unconnected-(U201-PC15-Pad4)*%
X74337500Y-113500000D03*
%TO.P,U201,3,PC14*%
%TO.N,unconnected-(U201-PC14-Pad3)*%
X74337500Y-113000000D03*
%TO.P,U201,2,PC13*%
%TO.N,unconnected-(U201-PC13-Pad2)*%
X74337500Y-112500000D03*
%TO.P,U201,1,VBAT*%
%TO.N,+3V3*%
X74337500Y-112000000D03*
%TD*%
D20*
%TO.P,L101,2,2*%
%TO.N,+5V*%
X101050000Y-117240000D03*
%TO.P,L101,1,1*%
%TO.N,VBUS*%
X101050000Y-116280000D03*
%TD*%
D21*
%TO.P,R210,2*%
%TO.N,GND*%
X107270000Y-120550000D03*
%TO.P,R210,1*%
%TO.N,/MCU/USB_CC1*%
X108230000Y-120550000D03*
%TD*%
D20*
%TO.P,R405,1*%
%TO.N,/DAC/OUT_AA_BUFF_IN*%
X95892500Y-141020000D03*
%TO.P,R405,2*%
%TO.N,/DAC/OUT_AA_BUFF_IN_2*%
X95892500Y-141980000D03*
%TD*%
D38*
%TO.P,C304,1*%
%TO.N,GND*%
X70775000Y-126800000D03*
%TO.P,C304,2*%
%TO.N,+3V3*%
X72325000Y-126800000D03*
%TD*%
D21*
%TO.P,R103,2*%
%TO.N,GND*%
X91520000Y-104500000D03*
%TO.P,R103,1*%
%TO.N,/power/BUCK_FB*%
X92480000Y-104500000D03*
%TD*%
D24*
%TO.P,R301,2*%
%TO.N,SPI1_SCK*%
X73150000Y-124520000D03*
%TO.P,R301,1*%
%TO.N,/ADC/ADC_SCK*%
X73150000Y-125480000D03*
%TD*%
D20*
%TO.P,C109,1*%
%TO.N,+3V3A*%
X90200000Y-143507500D03*
%TO.P,C109,2*%
%TO.N,GND*%
X90200000Y-144467500D03*
%TD*%
%TO.P,R307,2*%
%TO.N,/ADC/IN_BUFF_OUT_2*%
X68137500Y-137967500D03*
%TO.P,R307,1*%
%TO.N,/ADC/IN_AA_BUFF_IN_2*%
X68137500Y-137007500D03*
%TD*%
D39*
%TO.P,U303,1*%
%TO.N,/ADC/IN_BUFF_OUT*%
X66850000Y-141450000D03*
%TO.P,U303,2,V-*%
%TO.N,GND*%
X65900000Y-141450000D03*
%TO.P,U303,3,+*%
%TO.N,/ADC/IN_BUFF*%
X64950000Y-141450000D03*
%TO.P,U303,4,-*%
%TO.N,/ADC/IN_BUFF_OUT*%
X64950000Y-143725000D03*
%TO.P,U303,5,V+*%
%TO.N,+3V3A*%
X66850000Y-143725000D03*
%TD*%
D40*
%TO.P,C307,2*%
%TO.N,/ADC/ADC_VREF*%
X68900000Y-134475000D03*
%TO.P,C307,1*%
%TO.N,GND*%
X68900000Y-132925000D03*
%TD*%
D24*
%TO.P,C309,2*%
%TO.N,GND*%
X63000000Y-138070000D03*
%TO.P,C309,1*%
%TO.N,/ADC/IN_RF*%
X63000000Y-139030000D03*
%TD*%
%TO.P,C407,2*%
%TO.N,+3V3A*%
X92655000Y-136870000D03*
%TO.P,C407,1*%
%TO.N,GND*%
X92655000Y-137830000D03*
%TD*%
D29*
%TO.P,C107,1*%
%TO.N,+3V3*%
X93707500Y-107170000D03*
%TO.P,C107,2*%
%TO.N,/power/BUCK_FB*%
X92157500Y-107170000D03*
%TD*%
D24*
%TO.P,C206,2*%
%TO.N,GND*%
X72662500Y-115220000D03*
%TO.P,C206,1*%
%TO.N,VDDA*%
X72662500Y-116180000D03*
%TD*%
D21*
%TO.P,C313,2*%
%TO.N,/ADC/IN_AA_BUFF_IN*%
X69157500Y-138937500D03*
%TO.P,C313,1*%
%TO.N,GND*%
X70117500Y-138937500D03*
%TD*%
D20*
%TO.P,D101,2,A*%
%TO.N,+3V3*%
X99457500Y-96620000D03*
%TO.P,D101,1,K*%
%TO.N,/power/LED_PWR_K*%
X99457500Y-95660000D03*
%TD*%
D41*
%TO.P,C101,2*%
%TO.N,GND*%
X99380000Y-116260000D03*
%TO.P,C101,1*%
%TO.N,VBUS*%
X100020000Y-116260000D03*
%TD*%
D23*
%TO.P,C405,2*%
%TO.N,/DAC/OUT_AA_BUFF_IN*%
X95960000Y-140050000D03*
%TO.P,C405,1*%
%TO.N,GND*%
X95000000Y-140050000D03*
%TD*%
D20*
%TO.P,R105,1*%
%TO.N,+3V3A*%
X80800000Y-143970000D03*
%TO.P,R105,2*%
%TO.N,/power/VREF*%
X80800000Y-144930000D03*
%TD*%
D39*
%TO.P,U304,1*%
%TO.N,/ADC/IN_AA_BUFF_OUT*%
X71050000Y-140500000D03*
%TO.P,U304,2,V-*%
%TO.N,GND*%
X70100000Y-140500000D03*
%TO.P,U304,3,+*%
%TO.N,/ADC/IN_AA_BUFF_IN*%
X69150000Y-140500000D03*
%TO.P,U304,4,-*%
%TO.N,/ADC/IN_AA_BUFF_OUT*%
X69150000Y-142775000D03*
%TO.P,U304,5,V+*%
%TO.N,+3V3A*%
X71050000Y-142775000D03*
%TD*%
D21*
%TO.P,R209,2*%
%TO.N,GND*%
X107270000Y-108450000D03*
%TO.P,R209,1*%
%TO.N,/MCU/USB_CC2*%
X108230000Y-108450000D03*
%TD*%
D20*
%TO.P,R306,1*%
%TO.N,/ADC/IN_BUFF_OUT_2*%
X67137500Y-138907500D03*
%TO.P,R306,2*%
%TO.N,/ADC/IN_BUFF_OUT*%
X67137500Y-139867500D03*
%TD*%
D23*
%TO.P,R402,1*%
%TO.N,/DAC/DAC_OUT_B*%
X98512500Y-136350000D03*
%TO.P,R402,2*%
%TO.N,GND*%
X99472500Y-136350000D03*
%TD*%
D42*
%TO.P,R207,1*%
%TO.N,/MCU/TIM4_CH2*%
X78889411Y-98439411D03*
%TO.P,R207,2*%
%TO.N,/MCU/LED_G_K*%
X78210589Y-97760589D03*
%TD*%
D21*
%TO.P,C209,2*%
%TO.N,GND*%
X66620000Y-113250000D03*
%TO.P,C209,1*%
%TO.N,/MCU/XTAL_IN*%
X67580000Y-113250000D03*
%TD*%
D40*
%TO.P,C403,2*%
%TO.N,GND*%
X95992500Y-132775000D03*
%TO.P,C403,1*%
%TO.N,/DAC/DAC_VREF*%
X95992500Y-131225000D03*
%TD*%
D20*
%TO.P,C312,2*%
%TO.N,/ADC/IN_BUFF_OUT_2*%
X67137500Y-137967500D03*
%TO.P,C312,1*%
%TO.N,GND*%
X67137500Y-137007500D03*
%TD*%
%TO.P,C203,2*%
%TO.N,GND*%
X84400000Y-112480000D03*
%TO.P,C203,1*%
%TO.N,+3V3*%
X84400000Y-111520000D03*
%TD*%
D24*
%TO.P,R404,1*%
%TO.N,/DAC/OUT_AA_BUFF_IN_2*%
X96892500Y-141980000D03*
%TO.P,R404,2*%
%TO.N,/DAC/DAC_OUT_A_2*%
X96892500Y-141020000D03*
%TD*%
D43*
%TO.P,R101,2*%
%TO.N,/power/+5V_FILT*%
X85100000Y-132862500D03*
%TO.P,R101,1*%
%TO.N,+5V*%
X85100000Y-131037500D03*
%TD*%
D21*
%TO.P,C402,1*%
%TO.N,+3V3*%
X98172500Y-128150000D03*
%TO.P,C402,2*%
%TO.N,GND*%
X97212500Y-128150000D03*
%TD*%
D44*
%TO.P,U102,5,FB*%
%TO.N,/power/BUCK_FB*%
X92470000Y-102870000D03*
%TO.P,U102,4,VIN*%
%TO.N,+5V*%
X92470000Y-100970000D03*
%TO.P,U102,3,SW*%
%TO.N,/power/BUCK_SW*%
X94745000Y-100970000D03*
%TO.P,U102,2,GND*%
%TO.N,GND*%
X94745000Y-101920000D03*
%TO.P,U102,1,EN*%
%TO.N,+5V*%
X94745000Y-102870000D03*
%TD*%
D32*
%TO.P,C106,2*%
%TO.N,+3V3*%
X97057500Y-100970000D03*
%TO.P,C106,1*%
%TO.N,GND*%
X97057500Y-102870000D03*
%TD*%
D23*
%TO.P,R310,1*%
%TO.N,/ADC/ADC_IN-*%
X72957500Y-138937500D03*
%TO.P,R310,2*%
%TO.N,VCOM*%
X73917500Y-138937500D03*
%TD*%
D20*
%TO.P,C308,2*%
%TO.N,/ADC/ADC_VREF*%
X70200000Y-134180000D03*
%TO.P,C308,1*%
%TO.N,GND*%
X70200000Y-133220000D03*
%TD*%
D24*
%TO.P,R403,1*%
%TO.N,/DAC/DAC_OUT_A_2*%
X97892500Y-140080000D03*
%TO.P,R403,2*%
%TO.N,/DAC/DAC_OUT_A*%
X97892500Y-139120000D03*
%TD*%
D30*
%TO.P,D205,2,K2*%
%TO.N,GND*%
X69135000Y-97980000D03*
%TO.P,D205,1,K1*%
%TO.N,/MCU/CONN_SWO*%
X69135000Y-100280000D03*
%TD*%
D40*
%TO.P,R104,1*%
%TO.N,/power/LED_PWR_K*%
X101107500Y-95370000D03*
%TO.P,R104,2*%
%TO.N,GND*%
X101107500Y-96920000D03*
%TD*%
D21*
%TO.P,C314,2*%
%TO.N,/ADC/IN_AA_BUFF_IN_2*%
X70120000Y-137050000D03*
%TO.P,C314,1*%
%TO.N,/ADC/IN_AA_BUFF_OUT*%
X71080000Y-137050000D03*
%TD*%
%TO.P,R309,1*%
%TO.N,/ADC/ADC_IN+*%
X72017500Y-138937500D03*
%TO.P,R309,2*%
%TO.N,/ADC/IN_AA_BUFF_OUT*%
X71057500Y-138937500D03*
%TD*%
D23*
%TO.P,R204,2*%
%TO.N,SPI1_NSS*%
X75880000Y-120650000D03*
%TO.P,R204,1*%
%TO.N,+3V3*%
X74920000Y-120650000D03*
%TD*%
D24*
%TO.P,R203,2*%
%TO.N,SPI2_NSS*%
X84450000Y-118320000D03*
%TO.P,R203,1*%
%TO.N,+3V3*%
X84450000Y-119280000D03*
%TD*%
D20*
%TO.P,C301,2*%
%TO.N,GND*%
X70200000Y-130780000D03*
%TO.P,C301,1*%
%TO.N,+3V3A*%
X70200000Y-129820000D03*
%TD*%
D45*
%TO.P,U402,1*%
%TO.N,/DAC/OUT_AA_BUFF_OUT*%
X94042500Y-138487500D03*
%TO.P,U402,2,V-*%
%TO.N,GND*%
X94992500Y-138487500D03*
%TO.P,U402,3,+*%
%TO.N,/DAC/OUT_AA_BUFF_IN*%
X95942500Y-138487500D03*
%TO.P,U402,4,-*%
%TO.N,/DAC/OUT_AA_BUFF_OUT*%
X95942500Y-136212500D03*
%TO.P,U402,5,V+*%
%TO.N,+3V3A*%
X94042500Y-136212500D03*
%TD*%
D21*
%TO.P,L201,2,2*%
%TO.N,+3V3*%
X70032500Y-117450000D03*
%TO.P,L201,1,1*%
%TO.N,VDDA*%
X70992500Y-117450000D03*
%TD*%
D23*
%TO.P,R211,2*%
%TO.N,/MCU/MCU_SWDIO*%
X67925000Y-102240000D03*
%TO.P,R211,1*%
%TO.N,/MCU/CONN_SWDIO*%
X66965000Y-102240000D03*
%TD*%
D24*
%TO.P,C404,2*%
%TO.N,/DAC/DAC_OUT_A_2*%
X97892500Y-141020000D03*
%TO.P,C404,1*%
%TO.N,GND*%
X97892500Y-141980000D03*
%TD*%
%TO.P,R106,1*%
%TO.N,/power/VREF*%
X81900000Y-144930000D03*
%TO.P,R106,2*%
%TO.N,GND*%
X81900000Y-143970000D03*
%TD*%
D40*
%TO.P,C306,1*%
%TO.N,GND*%
X63800000Y-132775000D03*
%TO.P,C306,2*%
%TO.N,/ADC/ADC_VREF_IN*%
X63800000Y-134325000D03*
%TD*%
%TO.P,C305,1*%
%TO.N,GND*%
X62212500Y-132775000D03*
%TO.P,C305,2*%
%TO.N,+5V*%
X62212500Y-134325000D03*
%TD*%
D30*
%TO.P,D204,2,K2*%
%TO.N,GND*%
X58145000Y-98340000D03*
%TO.P,D204,1,K1*%
%TO.N,/MCU/CONN_SWCLK*%
X58145000Y-100640000D03*
%TD*%
D46*
%TO.P,C103,2*%
%TO.N,GND*%
X83150000Y-135150000D03*
%TO.P,C103,1*%
%TO.N,/power/+5V_FILT*%
X85050000Y-135150000D03*
%TD*%
D24*
%TO.P,C201,2*%
%TO.N,GND*%
X72712500Y-110970000D03*
%TO.P,C201,1*%
%TO.N,+3V3*%
X72712500Y-111930000D03*
%TD*%
%TO.P,C213,2*%
%TO.N,GND*%
X70835000Y-94360000D03*
%TO.P,C213,1*%
%TO.N,/MCU/MCU_NRST*%
X70835000Y-95320000D03*
%TD*%
D29*
%TO.P,C401,2*%
%TO.N,GND*%
X96917500Y-126850000D03*
%TO.P,C401,1*%
%TO.N,+3V3*%
X98467500Y-126850000D03*
%TD*%
D22*
%TO.P,R208,1*%
%TO.N,/MCU/TIM4_CH3*%
X83460589Y-97839411D03*
%TO.P,R208,2*%
%TO.N,/MCU/LED_B_K*%
X84139411Y-97160589D03*
%TD*%
D23*
%TO.P,R213,2*%
%TO.N,/MCU/MCU_SWO*%
X71765000Y-100280000D03*
%TO.P,R213,1*%
%TO.N,/MCU/CONN_SWO*%
X70805000Y-100280000D03*
%TD*%
D21*
%TO.P,C202,2*%
%TO.N,GND*%
X80682500Y-120750000D03*
%TO.P,C202,1*%
%TO.N,+3V3*%
X81642500Y-120750000D03*
%TD*%
D23*
%TO.P,R214,2*%
%TO.N,/MCU/MCU_NRST*%
X71765000Y-96290000D03*
%TO.P,R214,1*%
%TO.N,/MCU/CONN_NRST*%
X70805000Y-96290000D03*
%TD*%
D47*
%TO.P,U103,1*%
%TO.N,VCOM*%
X86212500Y-143037500D03*
%TO.P,U103,2,V-*%
%TO.N,GND*%
X86212500Y-143987500D03*
%TO.P,U103,3,+*%
%TO.N,/power/VREF*%
X86212500Y-144937500D03*
%TO.P,U103,4,-*%
%TO.N,VCOM*%
X88487500Y-144937500D03*
%TO.P,U103,5,V+*%
%TO.N,+3V3A*%
X88487500Y-143037500D03*
%TD*%
D41*
%TO.P,C102,2*%
%TO.N,GND*%
X99380000Y-117260000D03*
%TO.P,C102,1*%
%TO.N,+5V*%
X100020000Y-117260000D03*
%TD*%
D31*
%TO.P,C208,2*%
%TO.N,GND*%
X69712500Y-114625000D03*
%TO.P,C208,1*%
%TO.N,+3V3*%
X69712500Y-116175000D03*
%TD*%
D30*
%TO.P,D202,2,K2*%
%TO.N,GND*%
X58145000Y-96310000D03*
%TO.P,D202,1,K1*%
%TO.N,+3V3*%
X58145000Y-94010000D03*
%TD*%
D48*
%TO.P,D203,2,K2*%
%TO.N,GND*%
X63285000Y-102250000D03*
%TO.P,D203,1,K1*%
%TO.N,/MCU/CONN_SWDIO*%
X65585000Y-102250000D03*
%TD*%
D21*
%TO.P,C316,1*%
%TO.N,/ADC/ADC_IN-*%
X72967500Y-137937500D03*
%TO.P,C316,2*%
%TO.N,/ADC/ADC_IN+*%
X72007500Y-137937500D03*
%TD*%
D23*
%TO.P,C406,1*%
%TO.N,/DAC/OUT_AA_BUFF_OUT*%
X93970000Y-141950000D03*
%TO.P,C406,2*%
%TO.N,/DAC/OUT_AA_BUFF_IN_2*%
X94930000Y-141950000D03*
%TD*%
D24*
%TO.P,R406,1*%
%TO.N,/DAC/OUT*%
X94000000Y-143880000D03*
%TO.P,R406,2*%
%TO.N,/DAC/OUT_AA_BUFF_OUT*%
X94000000Y-142920000D03*
%TD*%
D23*
%TO.P,C303,2*%
%TO.N,+3V3*%
X72080000Y-128100000D03*
%TO.P,C303,1*%
%TO.N,GND*%
X71120000Y-128100000D03*
%TD*%
%TO.P,C204,1*%
%TO.N,+3V3*%
X75520000Y-108900000D03*
%TO.P,C204,2*%
%TO.N,GND*%
X76480000Y-108900000D03*
%TD*%
D44*
%TO.P,U202,6,I/O1*%
%TO.N,/MCU/MCU_USB_DIFF_N*%
X99912500Y-114950000D03*
%TO.P,U202,5,VBUS*%
%TO.N,VBUS*%
X99912500Y-114000000D03*
%TO.P,U202,4,I/O2*%
%TO.N,/MCU/MCU_USB_DIFF_P*%
X99912500Y-113050000D03*
%TO.P,U202,3,I/O2*%
%TO.N,/MCU/USB_DIFF_P*%
X102187500Y-113050000D03*
%TO.P,U202,2,GND*%
%TO.N,GND*%
X102187500Y-114000000D03*
%TO.P,U202,1,I/O1*%
%TO.N,/MCU/USB_DIFF_N*%
X102187500Y-114950000D03*
%TD*%
D24*
%TO.P,R308,2*%
%TO.N,/ADC/IN_AA_BUFF_IN_2*%
X69137500Y-137007500D03*
%TO.P,R308,1*%
%TO.N,/ADC/IN_AA_BUFF_IN*%
X69137500Y-137967500D03*
%TD*%
D23*
%TO.P,C310,2*%
%TO.N,/ADC/IN_BUFF*%
X64980000Y-139000000D03*
%TO.P,C310,1*%
%TO.N,/ADC/IN_RF*%
X64020000Y-139000000D03*
%TD*%
D40*
%TO.P,C302,1*%
%TO.N,+3V3A*%
X68900000Y-129525000D03*
%TO.P,C302,2*%
%TO.N,GND*%
X68900000Y-131075000D03*
%TD*%
D48*
%TO.P,D401,2,K2*%
%TO.N,GND*%
X96292500Y-147350000D03*
%TO.P,D401,1,K1*%
%TO.N,/DAC/OUT*%
X93992500Y-147350000D03*
%TD*%
D23*
%TO.P,R401,2*%
%TO.N,/DAC/DAC_SCLK*%
X99400000Y-124750000D03*
%TO.P,R401,1*%
%TO.N,SPI2_SCK*%
X98440000Y-124750000D03*
%TD*%
D31*
%TO.P,C205,2*%
%TO.N,GND*%
X71400000Y-110325000D03*
%TO.P,C205,1*%
%TO.N,+3V3*%
X71400000Y-111875000D03*
%TD*%
D21*
%TO.P,R305,2*%
%TO.N,VCOM*%
X64020000Y-140000000D03*
%TO.P,R305,1*%
%TO.N,/ADC/IN_BUFF*%
X64980000Y-140000000D03*
%TD*%
D49*
%TO.P,C211,2*%
%TO.N,GND*%
X79510589Y-93839411D03*
%TO.P,C211,1*%
%TO.N,+3V3*%
X80189411Y-93160589D03*
%TD*%
D48*
%TO.P,D301,2,K2*%
%TO.N,GND*%
X65350000Y-147350000D03*
%TO.P,D301,1,K1*%
%TO.N,/ADC/IN*%
X63050000Y-147350000D03*
%TD*%
D20*
%TO.P,R304,2*%
%TO.N,/ADC/IN_RF*%
X62000000Y-139030000D03*
%TO.P,R304,1*%
%TO.N,GND*%
X62000000Y-138070000D03*
%TD*%
D50*
%TO.N,GND*%
X85000000Y-115000000D03*
X88000000Y-117000000D03*
X90000000Y-119000000D03*
X93000000Y-121000000D03*
X94000000Y-123000000D03*
X89000000Y-137000000D03*
X91000000Y-141000000D03*
X89000000Y-141000000D03*
X79000000Y-142000000D03*
X66000000Y-139000000D03*
X65000000Y-137000000D03*
X77000000Y-130000000D03*
X76000000Y-137000000D03*
X69000000Y-120000000D03*
X67000000Y-119000000D03*
X67000000Y-121000000D03*
X85000000Y-104000000D03*
X85000000Y-102000000D03*
X85000000Y-100000000D03*
X77000000Y-94000000D03*
X77000000Y-96000000D03*
X74000000Y-104000000D03*
X72000000Y-104000000D03*
X70000000Y-104000000D03*
X63000000Y-107000000D03*
X63000000Y-109000000D03*
X63000000Y-111000000D03*
X65000000Y-116000000D03*
X63000000Y-115000000D03*
X65000000Y-118000000D03*
X63000000Y-117000000D03*
X63000000Y-119000000D03*
X63000000Y-121000000D03*
X65000000Y-120000000D03*
X65000000Y-124000000D03*
X69000000Y-124000000D03*
X67000000Y-125000000D03*
X65000000Y-126000000D03*
X63000000Y-127000000D03*
X61000000Y-130000000D03*
X61000000Y-128000000D03*
X87000000Y-123000000D03*
X89000000Y-124000000D03*
X90000000Y-127000000D03*
X92000000Y-127000000D03*
X91968304Y-128991726D03*
X88000000Y-134000000D03*
X90000000Y-132000000D03*
X90000000Y-130000000D03*
X88000000Y-129000000D03*
X86000000Y-126000000D03*
X84000000Y-124000000D03*
X82000000Y-124000000D03*
X84000000Y-126000000D03*
X82000000Y-128000000D03*
X78000000Y-131000000D03*
X82000000Y-132000000D03*
X80000000Y-132000000D03*
X80000000Y-128000000D03*
X80000000Y-126000000D03*
X91000000Y-147000000D03*
X105000000Y-108000000D03*
X103000000Y-109000000D03*
X103000000Y-99000000D03*
X109000000Y-100000000D03*
X105000000Y-100000000D03*
X103000000Y-101000000D03*
X107000000Y-101000000D03*
X109000000Y-102000000D03*
X105000000Y-102000000D03*
X103000000Y-103000000D03*
X103000000Y-105000000D03*
X105000000Y-104000000D03*
X107000000Y-103000000D03*
X109000000Y-104000000D03*
X107000000Y-105000000D03*
X105000000Y-106000000D03*
X103000000Y-107000000D03*
X101000000Y-108000000D03*
X99000000Y-109000000D03*
X97000000Y-110000000D03*
X91000000Y-111000000D03*
X93000000Y-112000000D03*
X95000000Y-117000000D03*
X95000000Y-115000000D03*
X91000000Y-115000000D03*
X93000000Y-116000000D03*
X105000000Y-120000000D03*
X103000000Y-119000000D03*
X107000000Y-123000000D03*
X105000000Y-122000000D03*
X97000000Y-120000000D03*
X97000000Y-122000000D03*
X99000000Y-121000000D03*
X101000000Y-122000000D03*
X103000000Y-121000000D03*
X103000000Y-123000000D03*
X105000000Y-124000000D03*
X103000000Y-125000000D03*
X105000000Y-126000000D03*
X107000000Y-125000000D03*
X99000000Y-145000000D03*
X99000000Y-149000000D03*
X99000000Y-151000000D03*
X99000000Y-153000000D03*
X85000000Y-148000000D03*
X83000000Y-149000000D03*
X87000000Y-149000000D03*
X91000000Y-151000000D03*
X89000000Y-150000000D03*
X87000000Y-151000000D03*
X89000000Y-152000000D03*
X87000000Y-153000000D03*
X89000000Y-154000000D03*
X91000000Y-153000000D03*
X95000000Y-153000000D03*
X97000000Y-154000000D03*
X95000000Y-155000000D03*
X93000000Y-154000000D03*
X91000000Y-155000000D03*
X93000000Y-156000000D03*
X101000000Y-148000000D03*
X101000000Y-144000000D03*
X101000000Y-142000000D03*
X101000000Y-146000000D03*
X101000000Y-152000000D03*
X101000000Y-150000000D03*
X101000000Y-154000000D03*
X105000000Y-134000000D03*
X105000000Y-130000000D03*
X105000000Y-128000000D03*
X105000000Y-132000000D03*
X103000000Y-139000000D03*
X103000000Y-135000000D03*
X103000000Y-133000000D03*
X105000000Y-142000000D03*
X105000000Y-138000000D03*
X105000000Y-136000000D03*
X105000000Y-140000000D03*
X103000000Y-147000000D03*
X103000000Y-143000000D03*
X103000000Y-141000000D03*
X103000000Y-145000000D03*
X105000000Y-150000000D03*
X105000000Y-146000000D03*
X105000000Y-144000000D03*
X105000000Y-148000000D03*
X103000000Y-155000000D03*
X103000000Y-151000000D03*
X103000000Y-149000000D03*
X103000000Y-153000000D03*
X107000000Y-129000000D03*
X107000000Y-127000000D03*
X109000000Y-126000000D03*
X109000000Y-124000000D03*
X109000000Y-134000000D03*
X109000000Y-130000000D03*
X109000000Y-128000000D03*
X109000000Y-132000000D03*
X109000000Y-142000000D03*
X109000000Y-138000000D03*
X109000000Y-136000000D03*
X109000000Y-140000000D03*
X109000000Y-150000000D03*
X109000000Y-146000000D03*
X109000000Y-144000000D03*
X109000000Y-148000000D03*
X109000000Y-154000000D03*
X109000000Y-152000000D03*
X109000000Y-156000000D03*
X107000000Y-157000000D03*
X107000000Y-155000000D03*
X105000000Y-154000000D03*
X105000000Y-152000000D03*
X105000000Y-156000000D03*
X103000000Y-163000000D03*
X103000000Y-159000000D03*
X103000000Y-157000000D03*
X101000000Y-164000000D03*
X101000000Y-160000000D03*
X101000000Y-158000000D03*
X101000000Y-162000000D03*
X99000000Y-163000000D03*
X99000000Y-159000000D03*
X99000000Y-161000000D03*
X97000000Y-164000000D03*
X97000000Y-160000000D03*
X97000000Y-158000000D03*
X97000000Y-162000000D03*
X95000000Y-163000000D03*
X95000000Y-159000000D03*
X95000000Y-157000000D03*
X95000000Y-161000000D03*
X93000000Y-164000000D03*
X93000000Y-160000000D03*
X93000000Y-158000000D03*
X93000000Y-162000000D03*
X91000000Y-163000000D03*
X91000000Y-159000000D03*
X91000000Y-157000000D03*
X91000000Y-161000000D03*
X89000000Y-164000000D03*
X89000000Y-160000000D03*
X89000000Y-162000000D03*
X87000000Y-163000000D03*
X87000000Y-159000000D03*
X87000000Y-161000000D03*
X73000000Y-164000000D03*
X75000000Y-163000000D03*
X77000000Y-164000000D03*
X77000000Y-162000000D03*
X79000000Y-163000000D03*
X79000000Y-161000000D03*
X81000000Y-162000000D03*
X81000000Y-160000000D03*
X81000000Y-164000000D03*
X83000000Y-161000000D03*
X83000000Y-159000000D03*
X83000000Y-163000000D03*
X85000000Y-164000000D03*
X85000000Y-160000000D03*
X85000000Y-158000000D03*
X85000000Y-162000000D03*
X71000000Y-155000000D03*
X71000000Y-151000000D03*
X71000000Y-149000000D03*
X71000000Y-153000000D03*
X81160000Y-150557836D03*
X81160000Y-148557836D03*
X79000000Y-151000000D03*
X79000000Y-147000000D03*
X79000000Y-149000000D03*
X77000000Y-152000000D03*
X77000000Y-148000000D03*
X77000000Y-146000000D03*
X77000000Y-150000000D03*
X75000000Y-153000000D03*
X75000000Y-149000000D03*
X75000000Y-147000000D03*
X75000000Y-151000000D03*
X73000000Y-154000000D03*
X73000000Y-150000000D03*
X73000000Y-148000000D03*
X73000000Y-152000000D03*
X85000000Y-156000000D03*
X85000000Y-152000000D03*
X85000000Y-150000000D03*
X85000000Y-154000000D03*
X83000000Y-157000000D03*
X83000000Y-153000000D03*
X83000000Y-151000000D03*
X83000000Y-155000000D03*
X81000000Y-158000000D03*
X81000000Y-154000000D03*
X81000000Y-152000000D03*
X81000000Y-156000000D03*
X79000000Y-159000000D03*
X79000000Y-155000000D03*
X79000000Y-153000000D03*
X79000000Y-157000000D03*
X77000000Y-160000000D03*
X77000000Y-156000000D03*
X77000000Y-154000000D03*
X77000000Y-158000000D03*
X75000000Y-161000000D03*
X75000000Y-157000000D03*
X75000000Y-155000000D03*
X75000000Y-159000000D03*
X73000000Y-162000000D03*
X73000000Y-158000000D03*
X73000000Y-156000000D03*
X73000000Y-160000000D03*
X71000000Y-157000000D03*
X71000000Y-161000000D03*
X71000000Y-163000000D03*
X71000000Y-159000000D03*
X69000000Y-148000000D03*
X69000000Y-150000000D03*
X67000000Y-151000000D03*
X69000000Y-152000000D03*
X67000000Y-153000000D03*
X69000000Y-154000000D03*
X69000000Y-164000000D03*
X69000000Y-162000000D03*
X69000000Y-160000000D03*
X67000000Y-159000000D03*
X67000000Y-161000000D03*
X67000000Y-163000000D03*
X65000000Y-154000000D03*
X65000000Y-156000000D03*
X65000000Y-158000000D03*
X65000000Y-160000000D03*
X65000000Y-162000000D03*
X65000000Y-164000000D03*
X63000000Y-163000000D03*
X63000000Y-161000000D03*
X63000000Y-159000000D03*
X63000000Y-153000000D03*
X63000000Y-155000000D03*
X63000000Y-157000000D03*
X61000000Y-158000000D03*
X61000000Y-156000000D03*
X61000000Y-154000000D03*
X61000000Y-152000000D03*
X61000000Y-146000000D03*
X61000000Y-144000000D03*
X59000000Y-143000000D03*
X59000000Y-145000000D03*
X59000000Y-147000000D03*
X59000000Y-151000000D03*
X59000000Y-153000000D03*
X57000000Y-154000000D03*
X57000000Y-152000000D03*
X57000000Y-150000000D03*
X61000000Y-164000000D03*
X61000000Y-162000000D03*
X61000000Y-160000000D03*
X59000000Y-159000000D03*
X59000000Y-161000000D03*
X59000000Y-163000000D03*
X57000000Y-164000000D03*
X57000000Y-162000000D03*
X57000000Y-160000000D03*
X55000000Y-163000000D03*
X55000000Y-161000000D03*
X55000000Y-159000000D03*
X55000000Y-157000000D03*
X55000000Y-155000000D03*
X55000000Y-153000000D03*
X55000000Y-151000000D03*
X55000000Y-149000000D03*
X49000000Y-156000000D03*
X53000000Y-156000000D03*
X51000000Y-155000000D03*
X53000000Y-154000000D03*
X49000000Y-154000000D03*
X47000000Y-157000000D03*
X47000000Y-155000000D03*
X47000000Y-153000000D03*
X53000000Y-152000000D03*
X53000000Y-150000000D03*
X47000000Y-151000000D03*
X55000000Y-147000000D03*
X53000000Y-148000000D03*
X47000000Y-149000000D03*
X57000000Y-138000000D03*
X57000000Y-148000000D03*
X57000000Y-132000000D03*
X57000000Y-140000000D03*
X57000000Y-146000000D03*
X57000000Y-134000000D03*
X57000000Y-142000000D03*
X57000000Y-136000000D03*
X57000000Y-144000000D03*
X57000000Y-130000000D03*
X61000000Y-114000000D03*
X61000000Y-124000000D03*
X61000000Y-108000000D03*
X61000000Y-116000000D03*
X61000000Y-122000000D03*
X61000000Y-110000000D03*
X61000000Y-118000000D03*
X61000000Y-112000000D03*
X61000000Y-120000000D03*
X61000000Y-106000000D03*
X59000000Y-125000000D03*
X59000000Y-113000000D03*
X59000000Y-107000000D03*
X59000000Y-109000000D03*
X59000000Y-111000000D03*
X59000000Y-105000000D03*
X57000000Y-126000000D03*
X57000000Y-128000000D03*
X57000000Y-108000000D03*
X57000000Y-110000000D03*
X57000000Y-112000000D03*
X57000000Y-106000000D03*
X55000000Y-143000000D03*
X55000000Y-145000000D03*
X55000000Y-131000000D03*
X55000000Y-141000000D03*
X55000000Y-125000000D03*
X55000000Y-133000000D03*
X55000000Y-139000000D03*
X55000000Y-127000000D03*
X55000000Y-135000000D03*
X55000000Y-129000000D03*
X55000000Y-137000000D03*
X55000000Y-123000000D03*
X53000000Y-144000000D03*
X53000000Y-146000000D03*
X53000000Y-132000000D03*
X53000000Y-142000000D03*
X53000000Y-126000000D03*
X53000000Y-134000000D03*
X53000000Y-140000000D03*
X53000000Y-128000000D03*
X53000000Y-136000000D03*
X53000000Y-130000000D03*
X53000000Y-138000000D03*
X53000000Y-124000000D03*
X51000000Y-131000000D03*
X51000000Y-125000000D03*
X51000000Y-133000000D03*
X51000000Y-139000000D03*
X51000000Y-127000000D03*
X51000000Y-135000000D03*
X51000000Y-129000000D03*
X51000000Y-137000000D03*
X49000000Y-132000000D03*
X49000000Y-126000000D03*
X49000000Y-134000000D03*
X49000000Y-140000000D03*
X49000000Y-128000000D03*
X49000000Y-136000000D03*
X49000000Y-130000000D03*
X49000000Y-138000000D03*
X49000000Y-124000000D03*
X55000000Y-107000000D03*
X55000000Y-101000000D03*
X55000000Y-109000000D03*
X55000000Y-115000000D03*
X55000000Y-103000000D03*
X55000000Y-111000000D03*
X55000000Y-105000000D03*
X55000000Y-113000000D03*
X55000000Y-99000000D03*
X53000000Y-108000000D03*
X53000000Y-102000000D03*
X53000000Y-110000000D03*
X53000000Y-104000000D03*
X53000000Y-112000000D03*
X53000000Y-106000000D03*
X53000000Y-114000000D03*
X53000000Y-100000000D03*
X51000000Y-107000000D03*
X51000000Y-101000000D03*
X51000000Y-109000000D03*
X51000000Y-103000000D03*
X51000000Y-111000000D03*
X51000000Y-105000000D03*
X51000000Y-113000000D03*
X51000000Y-99000000D03*
X49000000Y-108000000D03*
X49000000Y-102000000D03*
X49000000Y-110000000D03*
X49000000Y-104000000D03*
X49000000Y-112000000D03*
X49000000Y-106000000D03*
X49000000Y-114000000D03*
X49000000Y-100000000D03*
X47000000Y-145000000D03*
X47000000Y-147000000D03*
X47000000Y-133000000D03*
X47000000Y-143000000D03*
X47000000Y-127000000D03*
X47000000Y-135000000D03*
X47000000Y-141000000D03*
X47000000Y-129000000D03*
X47000000Y-137000000D03*
X47000000Y-131000000D03*
X47000000Y-139000000D03*
X47000000Y-125000000D03*
X47000000Y-121000000D03*
X47000000Y-123000000D03*
X47000000Y-109000000D03*
X47000000Y-119000000D03*
X47000000Y-103000000D03*
X47000000Y-111000000D03*
X47000000Y-117000000D03*
X47000000Y-105000000D03*
X47000000Y-113000000D03*
X47000000Y-107000000D03*
X47000000Y-115000000D03*
X47000000Y-101000000D03*
X47000000Y-99000000D03*
X102000000Y-91000000D03*
X100000000Y-91000000D03*
X98000000Y-91000000D03*
X96000000Y-91000000D03*
X94000000Y-91000000D03*
X92000000Y-91000000D03*
X90000000Y-91000000D03*
X88000000Y-91000000D03*
X86000000Y-91000000D03*
X84000000Y-91000000D03*
X58000000Y-91000000D03*
X56000000Y-91000000D03*
X54000000Y-91000000D03*
D51*
X76400000Y-108000000D03*
%TO.N,+3V3*%
X86900000Y-118700000D03*
%TO.N,GND*%
X70500000Y-111000000D03*
X67750000Y-116200000D03*
X73175252Y-120906624D03*
X83549997Y-120150000D03*
X82650000Y-119849997D03*
%TO.N,+3V3*%
X82650000Y-120750000D03*
X84450000Y-120150000D03*
%TO.N,GND*%
X85300000Y-112500000D03*
X81700003Y-92600000D03*
%TO.N,+3V3*%
X80800000Y-92500000D03*
%TO.N,GND*%
X57513602Y-92213602D03*
%TO.N,+3V3*%
X99400000Y-100975000D03*
%TO.N,GND*%
X63009314Y-140990686D03*
X74817326Y-138100344D03*
X67078254Y-129486952D03*
X78295013Y-139697507D03*
X90800000Y-136600000D03*
%TO.N,+3V3A*%
X91700000Y-136900000D03*
X79100000Y-140100000D03*
%TO.N,GND*%
X85300386Y-142201459D03*
%TO.N,VCOM*%
X86200000Y-142175000D03*
%TO.N,GND*%
X81725000Y-143125000D03*
X82575000Y-142775000D03*
X84975000Y-143825000D03*
X90190000Y-145330000D03*
X82070000Y-134750000D03*
X82060000Y-135680000D03*
X82080000Y-136680000D03*
X81230000Y-137080000D03*
X80120000Y-137160000D03*
X84690583Y-128992747D03*
X59790000Y-135260000D03*
%TO.N,+5V*%
X59800000Y-134330000D03*
D50*
%TO.N,GND*%
X87250000Y-101000000D03*
X101000000Y-119500000D03*
D51*
X101107500Y-98000000D03*
D50*
%TO.N,+5V*%
X85100000Y-129850000D03*
X88250000Y-101000000D03*
X101050000Y-118450000D03*
%TO.N,GND*%
X98475000Y-102000000D03*
X94800000Y-108175003D03*
%TO.N,+3V3*%
X98450000Y-100975000D03*
X94800000Y-107175000D03*
%TO.N,GND*%
X89500000Y-104025000D03*
X90600000Y-104050000D03*
X91275000Y-101900000D03*
X93400000Y-101925000D03*
X97725000Y-104000000D03*
X96575000Y-104025000D03*
X106300000Y-120500000D03*
X106300000Y-108450000D03*
D51*
X84000000Y-105000000D03*
D50*
%TO.N,/MCU/TIM4_CH3*%
X83200000Y-104450000D03*
D51*
%TO.N,GND*%
X81900000Y-102200000D03*
D50*
%TO.N,/MCU/TIM4_CH1*%
X80950000Y-102200000D03*
D51*
%TO.N,GND*%
X80350000Y-107300000D03*
D50*
%TO.N,/MCU/TIM4_CH3*%
X79969221Y-108170352D03*
D51*
%TO.N,GND*%
X79550000Y-106850000D03*
D50*
%TO.N,/MCU/TIM4_CH1*%
X79500000Y-105900000D03*
%TO.N,GND*%
X78050000Y-105789950D03*
D51*
X79350000Y-101450000D03*
D50*
%TO.N,/MCU/TIM4_CH2*%
X78400000Y-101450000D03*
D51*
X76150000Y-106600000D03*
%TO.N,GND*%
X77043838Y-106494843D03*
X78850000Y-94500000D03*
X62050000Y-102250000D03*
%TO.N,+3V3*%
X58150000Y-92850000D03*
%TO.N,GND*%
X70000000Y-93450000D03*
X69950000Y-94350000D03*
X70000000Y-98000000D03*
X59600000Y-96150000D03*
X59050000Y-96950000D03*
X59650000Y-97750000D03*
X59050000Y-98550000D03*
X83857893Y-110131053D03*
X80700000Y-115200000D03*
%TO.N,/MCU/MCU_NRST*%
X84750000Y-110250000D03*
%TO.N,+3V3*%
X85300000Y-111550000D03*
%TO.N,GND*%
X77523116Y-112417638D03*
X72450000Y-105800000D03*
X74284620Y-107146140D03*
X82550003Y-109100000D03*
%TO.N,/MCU/MCU_NRST*%
X80700000Y-114300000D03*
%TO.N,+3V3*%
X75500000Y-108000000D03*
%TO.N,/MCU/MCU_SWDIO*%
X71800000Y-106500000D03*
X77000000Y-113150000D03*
%TO.N,/MCU/MCU_SWCLK*%
X74284620Y-108065380D03*
X81650000Y-109100000D03*
%TO.N,GND*%
X97450000Y-147350000D03*
X92650000Y-138700000D03*
X97900000Y-142850000D03*
X95000000Y-140950000D03*
X100350000Y-136500000D03*
X100550000Y-132250000D03*
X101300000Y-135550000D03*
X93009620Y-134490380D03*
X92050000Y-131350000D03*
%TO.N,DAC_NLDAC*%
X99650000Y-132250000D03*
%TO.N,GND*%
X98900000Y-132950000D03*
%TO.N,DAC_NLDAC*%
X92050000Y-132250000D03*
%TO.N,GND*%
X96000000Y-133800000D03*
X94600000Y-129100000D03*
X100450000Y-127300000D03*
%TO.N,SPI2_NSS*%
X94650000Y-128200000D03*
%TO.N,GND*%
X95850000Y-127150000D03*
X96300000Y-128100000D03*
%TO.N,SPI2_NSS*%
X100450000Y-128200000D03*
%TO.N,GND*%
X66250000Y-137000000D03*
X73450000Y-132900000D03*
X65850000Y-146500000D03*
X65000000Y-146100000D03*
X62000000Y-137200000D03*
X63050000Y-137200000D03*
%TO.N,VCOM*%
X73917500Y-138082500D03*
%TO.N,GND*%
X72450000Y-140300000D03*
%TO.N,VCOM*%
X63150000Y-140000000D03*
%TO.N,GND*%
X65900000Y-140200000D03*
X70100000Y-138050000D03*
X66350000Y-131300000D03*
X62550000Y-131750000D03*
X63500000Y-131750000D03*
%TO.N,+3V3A*%
X67850000Y-129000000D03*
X67850000Y-129950000D03*
%TO.N,GND*%
X68250000Y-132000000D03*
X69550000Y-132000000D03*
X70850000Y-131450000D03*
X70850000Y-132500000D03*
X70250000Y-127800000D03*
X69700000Y-126800000D03*
X76700000Y-124350000D03*
X74900000Y-121750000D03*
%TO.N,+3V3*%
X74050000Y-120650000D03*
%TO.N,SPI1_NSS*%
X75800000Y-124350000D03*
X75800000Y-121750000D03*
%TO.N,GND*%
X103400000Y-114050000D03*
%TO.N,+3V3*%
X68650000Y-116150000D03*
%TO.N,GND*%
X81350000Y-112500000D03*
X80750000Y-117600000D03*
X75650000Y-115500000D03*
X76250000Y-111900000D03*
X65200000Y-112450000D03*
X65750000Y-113250000D03*
X69500000Y-108700000D03*
X68650000Y-108200000D03*
X72500000Y-110100000D03*
X71400000Y-109300000D03*
%TO.N,+3V3*%
X70300000Y-111900000D03*
%TO.N,DAC_NCLR*%
X100400000Y-135550000D03*
X92100000Y-134500000D03*
%TD*%
D52*
%TO.N,+3V3*%
X100000000Y-101575000D02*
X99400000Y-100975000D01*
X98040000Y-106960000D02*
X100000000Y-105000000D01*
X98040000Y-110480000D02*
X98040000Y-106960000D01*
X100000000Y-105000000D02*
X100000000Y-101575000D01*
X97350000Y-111170000D02*
X98040000Y-110480000D01*
X96280000Y-111170000D02*
X97350000Y-111170000D01*
X95400000Y-112050000D02*
X96280000Y-111170000D01*
X95400000Y-112620000D02*
X95400000Y-112050000D01*
X97317500Y-125700000D02*
X98467500Y-126850000D01*
X93900000Y-125700000D02*
X97317500Y-125700000D01*
X86900000Y-118700000D02*
X93900000Y-125700000D01*
X98172500Y-127427500D02*
X98172500Y-128150000D01*
X98467500Y-127132500D02*
X98172500Y-127427500D01*
X98467500Y-126850000D02*
X98467500Y-127132500D01*
X72080000Y-127220000D02*
X72080000Y-128100000D01*
X72325000Y-126975000D02*
X72080000Y-127220000D01*
X72325000Y-126800000D02*
X72325000Y-126975000D01*
X72163247Y-123513247D02*
X72325000Y-123675000D01*
X72325000Y-123675000D02*
X72325000Y-126800000D01*
X72163247Y-123050000D02*
X72163247Y-123513247D01*
X74050000Y-121163247D02*
X72163247Y-123050000D01*
X74050000Y-120650000D02*
X74050000Y-121163247D01*
X82650000Y-120750000D02*
X81642500Y-120750000D01*
X84450000Y-120150000D02*
X84450000Y-119280000D01*
X80189411Y-93110589D02*
X80800000Y-92500000D01*
X80189411Y-93160589D02*
X80189411Y-93110589D01*
D53*
%TO.N,DAC_NCLR*%
X79250000Y-123250000D02*
X79250000Y-118912500D01*
X84000000Y-128000000D02*
X79250000Y-123250000D01*
X88500000Y-130750000D02*
X85750000Y-128000000D01*
X88500000Y-131969239D02*
X88500000Y-130750000D01*
X92100000Y-134500000D02*
X91030761Y-134500000D01*
X91030761Y-134500000D02*
X88500000Y-131969239D01*
X85750000Y-128000000D02*
X84000000Y-128000000D01*
D52*
%TO.N,+3V3A*%
X92625000Y-136900000D02*
X92655000Y-136870000D01*
X91700000Y-136900000D02*
X92625000Y-136900000D01*
X79100000Y-140100000D02*
X79050000Y-140100000D01*
X72575000Y-146575000D02*
X77032500Y-142117500D01*
X67300000Y-146575000D02*
X72575000Y-146575000D01*
X66367500Y-145642500D02*
X67300000Y-146575000D01*
X66367500Y-145237500D02*
X66367500Y-145642500D01*
X79050000Y-140100000D02*
X77032500Y-142117500D01*
X77032500Y-142117500D02*
X72450000Y-142117500D01*
X80800000Y-140100000D02*
X79100000Y-140100000D01*
%TO.N,VCOM*%
X86212500Y-142187500D02*
X86200000Y-142175000D01*
X86212500Y-143037500D02*
X86212500Y-142187500D01*
%TO.N,+3V3A*%
X80800000Y-140100000D02*
X80800000Y-143970000D01*
%TO.N,GND*%
X90200000Y-145320000D02*
X90190000Y-145330000D01*
X90200000Y-144467500D02*
X90200000Y-145320000D01*
D53*
%TO.N,VCOM*%
X87607500Y-144937500D02*
X88487500Y-144937500D01*
X87370000Y-144700000D02*
X87607500Y-144937500D01*
X87370000Y-143380000D02*
X87370000Y-144700000D01*
X87027500Y-143037500D02*
X87370000Y-143380000D01*
X86212500Y-143037500D02*
X87027500Y-143037500D01*
D52*
%TO.N,+3V3A*%
X83150000Y-140587500D02*
X86037500Y-140587500D01*
X86037500Y-140587500D02*
X88487500Y-143037500D01*
%TO.N,/power/+5V_FILT*%
X84912500Y-139087500D02*
X85050000Y-138950000D01*
X85050000Y-138950000D02*
X85050000Y-135150000D01*
X83237500Y-139087500D02*
X84912500Y-139087500D01*
X85100000Y-135100000D02*
X85050000Y-135150000D01*
X85100000Y-132862500D02*
X85100000Y-135100000D01*
%TO.N,+5V*%
X62207500Y-134330000D02*
X62212500Y-134325000D01*
X59800000Y-134330000D02*
X62207500Y-134330000D01*
%TO.N,GND*%
X101107500Y-98000000D02*
X101107500Y-96920000D01*
D54*
%TO.N,/power/LED_PWR_K*%
X100380000Y-95370000D02*
X101107500Y-95370000D01*
X100090000Y-95660000D02*
X100380000Y-95370000D01*
X99457500Y-95660000D02*
X100090000Y-95660000D01*
%TO.N,+3V3*%
X97132500Y-96620000D02*
X96632500Y-96120000D01*
X99457500Y-96620000D02*
X97132500Y-96620000D01*
D52*
%TO.N,+5V*%
X85100000Y-129850000D02*
X85100000Y-131037500D01*
D53*
%TO.N,DAC_NLDAC*%
X80746366Y-121750000D02*
X79750000Y-120753634D01*
X91400000Y-131619239D02*
X91400000Y-129900000D01*
X83250000Y-121750000D02*
X80746366Y-121750000D01*
X92030761Y-132250000D02*
X91400000Y-131619239D01*
X91400000Y-129900000D02*
X83250000Y-121750000D01*
X79750000Y-120753634D02*
X79750000Y-118912500D01*
X92050000Y-132250000D02*
X92030761Y-132250000D01*
D54*
%TO.N,+5V*%
X92250000Y-109750000D02*
X88250000Y-105750000D01*
X88250000Y-105750000D02*
X88250000Y-101000000D01*
X95250000Y-109750000D02*
X92250000Y-109750000D01*
X96000000Y-109000000D02*
X95250000Y-109750000D01*
X94745000Y-104495000D02*
X96000000Y-105750000D01*
X94745000Y-102870000D02*
X94745000Y-104495000D01*
X96000000Y-105750000D02*
X96000000Y-109000000D01*
D52*
X90127500Y-101000000D02*
X90157500Y-100970000D01*
X88250000Y-101000000D02*
X90127500Y-101000000D01*
X101050000Y-118450000D02*
X101050000Y-117240000D01*
D54*
%TO.N,+3V3*%
X97062500Y-100975000D02*
X97057500Y-100970000D01*
X98450000Y-100975000D02*
X97062500Y-100975000D01*
X94795000Y-107170000D02*
X94800000Y-107175000D01*
X93707500Y-107170000D02*
X94795000Y-107170000D01*
X93707500Y-106307500D02*
X93707500Y-107170000D01*
X93417500Y-106017500D02*
X93707500Y-106307500D01*
X93417500Y-105670000D02*
X93417500Y-106017500D01*
%TO.N,/power/BUCK_FB*%
X92157500Y-106242500D02*
X92157500Y-107170000D01*
X92457500Y-105942500D02*
X92157500Y-106242500D01*
X92457500Y-105670000D02*
X92457500Y-105942500D01*
X92480000Y-105647500D02*
X92457500Y-105670000D01*
X92480000Y-104500000D02*
X92480000Y-105647500D01*
X92470000Y-104490000D02*
X92480000Y-104500000D01*
X92470000Y-102870000D02*
X92470000Y-104490000D01*
%TO.N,+5V*%
X101030000Y-117260000D02*
X101050000Y-117240000D01*
X100020000Y-117260000D02*
X101030000Y-117260000D01*
%TO.N,VBUS*%
X101030000Y-116260000D02*
X101050000Y-116280000D01*
X100020000Y-116260000D02*
X101030000Y-116260000D01*
%TO.N,GND*%
X99380000Y-117260000D02*
X99380000Y-116260000D01*
%TO.N,VBUS*%
X101050000Y-114030000D02*
X101080000Y-114000000D01*
X101050000Y-116280000D02*
X101050000Y-114030000D01*
X101080000Y-114000000D02*
X101080000Y-111700000D01*
X99912500Y-114000000D02*
X101080000Y-114000000D01*
D52*
X103450000Y-111700000D02*
X101080000Y-111700000D01*
X103850000Y-112100000D02*
X103450000Y-111700000D01*
X105850000Y-112100000D02*
X103850000Y-112100000D01*
X105850000Y-116900000D02*
X103600000Y-116900000D01*
X103600000Y-116900000D02*
X102980000Y-116280000D01*
X102980000Y-116280000D02*
X101050000Y-116280000D01*
%TO.N,GND*%
X106350000Y-120550000D02*
X106300000Y-120500000D01*
X107270000Y-120550000D02*
X106350000Y-120550000D01*
X107270000Y-108450000D02*
X106300000Y-108450000D01*
D53*
%TO.N,/MCU/USB_CC2*%
X108230000Y-111446016D02*
X108230000Y-108450000D01*
X106926016Y-112750000D02*
X108230000Y-111446016D01*
X105850000Y-112750000D02*
X106926016Y-112750000D01*
%TO.N,/MCU/USB_CC1*%
X106720000Y-115750000D02*
X108230000Y-117260000D01*
X105850000Y-115750000D02*
X106720000Y-115750000D01*
X108230000Y-117260000D02*
X108230000Y-120550000D01*
%TO.N,/MCU/TIM4_CH3*%
X84100000Y-98478822D02*
X83460589Y-97839411D01*
X84100000Y-103550000D02*
X84100000Y-98478822D01*
X83200000Y-104450000D02*
X84100000Y-103550000D01*
%TO.N,/MCU/TIM4_CH1*%
X80950000Y-100350000D02*
X81610589Y-99689411D01*
X80950000Y-102200000D02*
X80950000Y-100350000D01*
%TO.N,/MCU/TIM4_CH3*%
X78750000Y-109450000D02*
X78750000Y-110587500D01*
X79969221Y-108230779D02*
X78750000Y-109450000D01*
X79969221Y-108170352D02*
X79969221Y-108230779D01*
%TO.N,/MCU/TIM4_CH1*%
X78792061Y-108514683D02*
X78250000Y-109056744D01*
X78792061Y-106607939D02*
X78792061Y-108514683D01*
X79500000Y-105900000D02*
X78792061Y-106607939D01*
X78250000Y-109056744D02*
X78250000Y-110587500D01*
%TO.N,/MCU/MCU_SWO*%
X72380000Y-100280000D02*
X71765000Y-100280000D01*
X76300000Y-104200000D02*
X72380000Y-100280000D01*
X81150000Y-108680761D02*
X81150000Y-106400000D01*
X81000000Y-108830761D02*
X81150000Y-108680761D01*
X80250000Y-109600000D02*
X81000000Y-108850000D01*
X81000000Y-108850000D02*
X81000000Y-108830761D01*
X80250000Y-110587500D02*
X80250000Y-109600000D01*
X81150000Y-106400000D02*
X78950000Y-104200000D01*
X78950000Y-104200000D02*
X76300000Y-104200000D01*
%TO.N,/MCU/MCU_NRST*%
X78125000Y-102650000D02*
X71765000Y-96290000D01*
X80150000Y-102650000D02*
X78125000Y-102650000D01*
X84750000Y-107250000D02*
X80150000Y-102650000D01*
X84750000Y-110250000D02*
X84750000Y-107250000D01*
%TO.N,/MCU/MCU_SWDIO*%
X81769239Y-113000000D02*
X82662500Y-113000000D01*
X81619239Y-113150000D02*
X81769239Y-113000000D01*
X77000000Y-113150000D02*
X81619239Y-113150000D01*
%TO.N,/MCU/MCU_SWCLK*%
X81650000Y-109100000D02*
X81250000Y-109500000D01*
X81250000Y-109500000D02*
X81250000Y-110587500D01*
%TO.N,/MCU/MCU_BOOT0*%
X78050000Y-108400000D02*
X78050000Y-107630000D01*
X77750000Y-108700000D02*
X78050000Y-108400000D01*
X77750000Y-110587500D02*
X77750000Y-108700000D01*
D52*
%TO.N,GND*%
X78050000Y-105789950D02*
X78050000Y-106670000D01*
D53*
%TO.N,/MCU/TIM4_CH2*%
X77250000Y-107700000D02*
X76150000Y-106600000D01*
X77250000Y-110587500D02*
X77250000Y-107700000D01*
X78400000Y-101450000D02*
X78400000Y-98928822D01*
X78400000Y-98928822D02*
X78889411Y-98439411D01*
%TO.N,/MCU/MCU_SWCLK*%
X59900000Y-102300000D02*
X59110000Y-102300000D01*
X63000000Y-105400000D02*
X59900000Y-102300000D01*
X67600000Y-105400000D02*
X63000000Y-105400000D01*
X69450000Y-107250000D02*
X67600000Y-105400000D01*
X73469240Y-107250000D02*
X69450000Y-107250000D01*
X74284620Y-108065380D02*
X73469240Y-107250000D01*
D52*
%TO.N,GND*%
X79510589Y-93839411D02*
X78850000Y-94500000D01*
D53*
%TO.N,+3V3*%
X80189411Y-93197769D02*
X81500652Y-94509010D01*
X80189411Y-93160589D02*
X80189411Y-93197769D01*
%TO.N,/MCU/LED_G_K*%
X79623690Y-96347488D02*
X79662174Y-96347488D01*
X78210589Y-97760589D02*
X79623690Y-96347488D01*
%TO.N,/MCU/LED_R_K*%
X82289411Y-98974725D02*
X81005677Y-97690991D01*
X82289411Y-99010589D02*
X82289411Y-98974725D01*
%TO.N,/MCU/LED_B_K*%
X84139411Y-97147769D02*
X82844155Y-95852513D01*
X84139411Y-97160589D02*
X84139411Y-97147769D01*
%TO.N,/MCU/MCU_SWDIO*%
X67925000Y-103525000D02*
X67925000Y-102240000D01*
X70900000Y-106500000D02*
X67925000Y-103525000D01*
X71800000Y-106500000D02*
X70900000Y-106500000D01*
%TO.N,/MCU/CONN_SWCLK*%
X58150000Y-100645000D02*
X58145000Y-100640000D01*
X58150000Y-102300000D02*
X58150000Y-100645000D01*
D52*
%TO.N,GND*%
X63285000Y-102250000D02*
X62050000Y-102250000D01*
%TO.N,+3V3*%
X58145000Y-92855000D02*
X58150000Y-92850000D01*
X58145000Y-94010000D02*
X58145000Y-92855000D01*
X60130000Y-94780000D02*
X59360000Y-94010000D01*
X59360000Y-94010000D02*
X58145000Y-94010000D01*
X61685000Y-94780000D02*
X60130000Y-94780000D01*
%TO.N,GND*%
X68345000Y-94780000D02*
X69135000Y-93990000D01*
X65585000Y-94780000D02*
X68345000Y-94780000D01*
X69980000Y-97980000D02*
X70000000Y-98000000D01*
X69135000Y-97980000D02*
X69980000Y-97980000D01*
X60200000Y-96050000D02*
X61685000Y-96050000D01*
X59900000Y-96350000D02*
X60200000Y-96050000D01*
X59900000Y-97000000D02*
X59900000Y-96350000D01*
X60220000Y-97320000D02*
X59900000Y-97000000D01*
X61685000Y-97320000D02*
X60220000Y-97320000D01*
D53*
%TO.N,/MCU/CONN_SWCLK*%
X58290000Y-99860000D02*
X61685000Y-99860000D01*
X58145000Y-100005000D02*
X58290000Y-99860000D01*
X58145000Y-100640000D02*
X58145000Y-100005000D01*
%TO.N,/MCU/CONN_NRST*%
X67330000Y-97320000D02*
X65585000Y-97320000D01*
X68360000Y-96290000D02*
X67330000Y-97320000D01*
X69135000Y-96290000D02*
X68360000Y-96290000D01*
X70805000Y-96290000D02*
X69135000Y-96290000D01*
%TO.N,/MCU/MCU_NRST*%
X71320000Y-95320000D02*
X70835000Y-95320000D01*
X71765000Y-95765000D02*
X71320000Y-95320000D01*
X71765000Y-96290000D02*
X71765000Y-95765000D01*
D52*
%TO.N,+3V3*%
X85270000Y-111520000D02*
X85300000Y-111550000D01*
X84400000Y-111520000D02*
X85270000Y-111520000D01*
D53*
%TO.N,/MCU/MCU_NRST*%
X75230761Y-115000000D02*
X74337500Y-115000000D01*
X75930761Y-114300000D02*
X75230761Y-115000000D01*
X80700000Y-114300000D02*
X75930761Y-114300000D01*
%TO.N,/MCU/CONN_SWO*%
X68190000Y-98590000D02*
X65585000Y-98590000D01*
X69135000Y-99535000D02*
X68190000Y-98590000D01*
X69135000Y-100280000D02*
X69135000Y-99535000D01*
X70805000Y-100280000D02*
X69135000Y-100280000D01*
%TO.N,/MCU/CONN_SWDIO*%
X65585000Y-102250000D02*
X65585000Y-99860000D01*
X65595000Y-102240000D02*
X65585000Y-102250000D01*
X66965000Y-102240000D02*
X65595000Y-102240000D01*
D52*
%TO.N,+3V3*%
X75520000Y-108020000D02*
X75500000Y-108000000D01*
X75520000Y-108900000D02*
X75520000Y-108020000D01*
D54*
%TO.N,GND*%
X82662500Y-112500000D02*
X81350000Y-112500000D01*
D53*
%TO.N,/DAC/OUT*%
X93920000Y-147565000D02*
X93920000Y-151300000D01*
X93992500Y-147492500D02*
X93920000Y-147565000D01*
X93992500Y-147350000D02*
X93992500Y-147492500D01*
D52*
X93992500Y-151227500D02*
X93920000Y-151300000D01*
%TO.N,GND*%
X96292500Y-147350000D02*
X97450000Y-147350000D01*
X92655000Y-138695000D02*
X92650000Y-138700000D01*
X92655000Y-137830000D02*
X92655000Y-138695000D01*
X97892500Y-142842500D02*
X97900000Y-142850000D01*
X97892500Y-141980000D02*
X97892500Y-142842500D01*
D53*
%TO.N,/DAC/OUT*%
X94000000Y-147342500D02*
X93992500Y-147350000D01*
X94000000Y-143880000D02*
X94000000Y-147342500D01*
%TO.N,/DAC/OUT_AA_BUFF_OUT*%
X93970000Y-141950000D02*
X93970000Y-142890000D01*
X93970000Y-142890000D02*
X94000000Y-142920000D01*
X94042500Y-141877500D02*
X93970000Y-141950000D01*
X94042500Y-138487500D02*
X94042500Y-141877500D01*
%TO.N,/DAC/OUT_AA_BUFF_IN*%
X95942500Y-140032500D02*
X95960000Y-140050000D01*
X95942500Y-138487500D02*
X95942500Y-140032500D01*
X95892500Y-140117500D02*
X95960000Y-140050000D01*
X95892500Y-141020000D02*
X95892500Y-140117500D01*
%TO.N,/DAC/OUT_AA_BUFF_IN_2*%
X95892500Y-141980000D02*
X94960000Y-141980000D01*
X94960000Y-141980000D02*
X94930000Y-141950000D01*
X96892500Y-141980000D02*
X95892500Y-141980000D01*
%TO.N,/DAC/DAC_OUT_A_2*%
X97892500Y-141020000D02*
X96892500Y-141020000D01*
X97892500Y-140080000D02*
X97892500Y-141020000D01*
%TO.N,/DAC/DAC_OUT_A*%
X97892500Y-134200000D02*
X97892500Y-139120000D01*
D52*
%TO.N,GND*%
X95000000Y-140050000D02*
X95000000Y-140950000D01*
X94992500Y-140042500D02*
X95000000Y-140050000D01*
X94992500Y-138487500D02*
X94992500Y-140042500D01*
D53*
%TO.N,/DAC/OUT_AA_BUFF_OUT*%
X95700000Y-137300000D02*
X95942500Y-137057500D01*
X94042500Y-137607500D02*
X94350000Y-137300000D01*
X94350000Y-137300000D02*
X95700000Y-137300000D01*
X94042500Y-138487500D02*
X94042500Y-137607500D01*
X95942500Y-137057500D02*
X95942500Y-136212500D01*
%TO.N,SPI2_SCK*%
X94300000Y-124750000D02*
X86550000Y-117000000D01*
X98440000Y-124750000D02*
X94300000Y-124750000D01*
X86550000Y-117000000D02*
X82662500Y-117000000D01*
%TO.N,/DAC/DAC_SCLK*%
X99392500Y-124757500D02*
X99400000Y-124750000D01*
X99392500Y-129800000D02*
X99392500Y-124757500D01*
D52*
%TO.N,GND*%
X100200000Y-136350000D02*
X100350000Y-136500000D01*
X99472500Y-136350000D02*
X100200000Y-136350000D01*
D53*
%TO.N,/DAC/DAC_OUT_B*%
X98392500Y-134200000D02*
X98392500Y-136230000D01*
X98392500Y-136230000D02*
X98512500Y-136350000D01*
%TO.N,DAC_NLDAC*%
X99650000Y-133119239D02*
X99650000Y-132250000D01*
X99392500Y-133376739D02*
X99650000Y-133119239D01*
X99392500Y-134200000D02*
X99392500Y-133376739D01*
D54*
%TO.N,GND*%
X98892500Y-132957500D02*
X98900000Y-132950000D01*
X98892500Y-134200000D02*
X98892500Y-132957500D01*
D52*
X95992500Y-133792500D02*
X96000000Y-133800000D01*
X95992500Y-132775000D02*
X95992500Y-133792500D01*
D54*
%TO.N,/DAC/DAC_VREF*%
X97892500Y-129800000D02*
X97892500Y-130807500D01*
X97892500Y-130807500D02*
X97475000Y-131225000D01*
X97475000Y-131225000D02*
X95992500Y-131225000D01*
D53*
%TO.N,SPI2_MOSI*%
X89200000Y-116000000D02*
X82662500Y-116000000D01*
X101400000Y-130350000D02*
X101400000Y-124650000D01*
X99142500Y-131000000D02*
X100750000Y-131000000D01*
X99900000Y-123150000D02*
X96350000Y-123150000D01*
X101400000Y-124650000D02*
X99900000Y-123150000D01*
X100750000Y-131000000D02*
X101400000Y-130350000D01*
X98892500Y-130750000D02*
X99142500Y-131000000D01*
X96350000Y-123150000D02*
X89200000Y-116000000D01*
X98892500Y-129800000D02*
X98892500Y-130750000D01*
%TO.N,SPI2_NSS*%
X84770000Y-118320000D02*
X84450000Y-118320000D01*
X94650000Y-128200000D02*
X84770000Y-118320000D01*
X99892500Y-128757500D02*
X100450000Y-128200000D01*
X99892500Y-129800000D02*
X99892500Y-128757500D01*
X84320000Y-118320000D02*
X84450000Y-118320000D01*
X83500000Y-117500000D02*
X84320000Y-118320000D01*
X82662500Y-117500000D02*
X83500000Y-117500000D01*
%TO.N,/DAC/DAC_SCLK*%
X99392500Y-124957500D02*
X99400000Y-124950000D01*
D52*
%TO.N,GND*%
X66257500Y-137007500D02*
X66250000Y-137000000D01*
X67137500Y-137007500D02*
X66257500Y-137007500D01*
D54*
X73450000Y-133200000D02*
X73450000Y-132900000D01*
X73450000Y-133200000D02*
X73600000Y-133200000D01*
X73300000Y-133200000D02*
X73450000Y-133200000D01*
X73700000Y-133300000D02*
X73700000Y-134150000D01*
X73600000Y-133200000D02*
X73700000Y-133300000D01*
X73200000Y-133300000D02*
X73300000Y-133200000D01*
X73200000Y-134150000D02*
X73200000Y-133300000D01*
D53*
%TO.N,/ADC/IN*%
X62920000Y-148330000D02*
X62920000Y-151300000D01*
X63050000Y-148200000D02*
X62920000Y-148330000D01*
X63050000Y-147350000D02*
X63050000Y-148200000D01*
D52*
%TO.N,GND*%
X72450000Y-141157500D02*
X72450000Y-140300000D01*
D53*
%TO.N,/ADC/IN_BUFF_OUT*%
X65250000Y-142600000D02*
X64950000Y-142900000D01*
X64950000Y-142900000D02*
X64950000Y-143725000D01*
X66600000Y-142600000D02*
X65250000Y-142600000D01*
X66850000Y-142350000D02*
X66600000Y-142600000D01*
X66850000Y-141450000D02*
X66850000Y-142350000D01*
D52*
%TO.N,VCOM*%
X64020000Y-140000000D02*
X63150000Y-140000000D01*
D53*
%TO.N,/ADC/IN*%
X63050000Y-145300000D02*
X63050000Y-147350000D01*
X62000000Y-144250000D02*
X63050000Y-145300000D01*
X62000000Y-140930000D02*
X62000000Y-144250000D01*
%TO.N,/ADC/IN_RF*%
X62000000Y-139030000D02*
X62000000Y-139970000D01*
X63000000Y-139030000D02*
X62000000Y-139030000D01*
X64020000Y-139000000D02*
X63030000Y-139000000D01*
X63030000Y-139000000D02*
X63000000Y-139030000D01*
%TO.N,/ADC/IN_BUFF*%
X64980000Y-140000000D02*
X64980000Y-139000000D01*
X64950000Y-140030000D02*
X64980000Y-140000000D01*
X64950000Y-141450000D02*
X64950000Y-140030000D01*
D52*
%TO.N,GND*%
X65900000Y-141450000D02*
X65900000Y-140200000D01*
D53*
%TO.N,/ADC/IN_AA_BUFF_OUT*%
X69150000Y-141900000D02*
X69150000Y-142775000D01*
X69400000Y-141650000D02*
X69150000Y-141900000D01*
X71050000Y-141350000D02*
X70750000Y-141650000D01*
X70750000Y-141650000D02*
X69400000Y-141650000D01*
X71050000Y-140500000D02*
X71050000Y-141350000D01*
D52*
%TO.N,GND*%
X70100000Y-138955000D02*
X70117500Y-138937500D01*
X70100000Y-140500000D02*
X70100000Y-138955000D01*
D53*
%TO.N,/ADC/IN_AA_BUFF_IN_2*%
X69180000Y-137050000D02*
X69137500Y-137007500D01*
X70120000Y-137050000D02*
X69180000Y-137050000D01*
%TO.N,/ADC/IN_AA_BUFF_OUT*%
X71057500Y-138937500D02*
X71057500Y-137072500D01*
X71057500Y-137072500D02*
X71080000Y-137050000D01*
D52*
%TO.N,GND*%
X70117500Y-138067500D02*
X70100000Y-138050000D01*
X70117500Y-138937500D02*
X70117500Y-138067500D01*
D53*
%TO.N,/ADC/IN_BUFF_OUT*%
X66850000Y-140500000D02*
X66850000Y-141450000D01*
X67137500Y-139867500D02*
X67137500Y-140212500D01*
X67137500Y-140212500D02*
X66850000Y-140500000D01*
%TO.N,/ADC/IN_BUFF_OUT_2*%
X67137500Y-137967500D02*
X67137500Y-138907500D01*
X68137500Y-137967500D02*
X67137500Y-137967500D01*
%TO.N,/ADC/IN_AA_BUFF_IN_2*%
X69137500Y-137007500D02*
X68137500Y-137007500D01*
%TO.N,/ADC/IN_AA_BUFF_OUT*%
X71050000Y-138945000D02*
X71057500Y-138937500D01*
X71050000Y-140500000D02*
X71050000Y-138945000D01*
%TO.N,/ADC/IN_AA_BUFF_IN*%
X69157500Y-140492500D02*
X69150000Y-140500000D01*
X69157500Y-138937500D02*
X69157500Y-140492500D01*
X69137500Y-138917500D02*
X69157500Y-138937500D01*
X69137500Y-137967500D02*
X69137500Y-138917500D01*
%TO.N,/ADC/ADC_IN-*%
X72967500Y-138927500D02*
X72957500Y-138937500D01*
X72967500Y-137937500D02*
X72967500Y-138927500D01*
%TO.N,/ADC/ADC_IN+*%
X72007500Y-138927500D02*
X72017500Y-138937500D01*
X72007500Y-137937500D02*
X72007500Y-138927500D01*
%TO.N,/ADC/ADC_IN-*%
X72700000Y-137670000D02*
X72967500Y-137937500D01*
X72700000Y-134150000D02*
X72700000Y-137670000D01*
%TO.N,/ADC/ADC_IN+*%
X72200000Y-137745000D02*
X72007500Y-137937500D01*
X72200000Y-134150000D02*
X72200000Y-137745000D01*
D52*
%TO.N,GND*%
X66337500Y-131312500D02*
X66350000Y-131300000D01*
X66337500Y-132612500D02*
X66337500Y-131312500D01*
%TO.N,+5V*%
X62237500Y-134350000D02*
X62212500Y-134325000D01*
X62237500Y-135850000D02*
X62237500Y-134350000D01*
%TO.N,/ADC/ADC_VREF_IN*%
X63800000Y-135837500D02*
X63787500Y-135850000D01*
X63800000Y-134325000D02*
X63800000Y-135837500D01*
X63962500Y-134487500D02*
X63800000Y-134325000D01*
%TO.N,/ADC/ADC_VREF*%
X67300000Y-134475000D02*
X67287500Y-134487500D01*
X68900000Y-134475000D02*
X67300000Y-134475000D01*
X69195000Y-134180000D02*
X68900000Y-134475000D01*
X70200000Y-134180000D02*
X69195000Y-134180000D01*
%TO.N,+3V3*%
X74920000Y-120650000D02*
X74050000Y-120650000D01*
D53*
%TO.N,SPI1_NSS*%
X75800000Y-121750000D02*
X75880000Y-121670000D01*
X75880000Y-121670000D02*
X75880000Y-120650000D01*
X73700000Y-128800000D02*
X73700000Y-129750000D01*
X75800000Y-126700000D02*
X73700000Y-128800000D01*
X75800000Y-124350000D02*
X75800000Y-126700000D01*
X75880000Y-120052410D02*
X75880000Y-120650000D01*
X76250000Y-119682410D02*
X75880000Y-120052410D01*
X76250000Y-118912500D02*
X76250000Y-119682410D01*
%TO.N,SPI1_MISO*%
X78250000Y-120791205D02*
X77250000Y-119791205D01*
X74050000Y-130850000D02*
X78250000Y-126650000D01*
X78250000Y-126650000D02*
X78250000Y-120791205D01*
X73200000Y-130700000D02*
X73350000Y-130850000D01*
X73350000Y-130850000D02*
X74050000Y-130850000D01*
X73200000Y-129750000D02*
X73200000Y-130700000D01*
X77250000Y-119791205D02*
X77250000Y-118912500D01*
%TO.N,SPI1_SCK*%
X74330000Y-124520000D02*
X76750000Y-122100000D01*
X73150000Y-124520000D02*
X74330000Y-124520000D01*
X76750000Y-122100000D02*
X76750000Y-118912500D01*
%TO.N,/ADC/ADC_SCK*%
X73175000Y-127941134D02*
X73175000Y-125505000D01*
X73175000Y-125505000D02*
X73150000Y-125480000D01*
X72700000Y-128416134D02*
X73175000Y-127941134D01*
X72700000Y-129750000D02*
X72700000Y-128416134D01*
%TO.N,/MCU/MCU_USB_DIFF_P*%
X83768751Y-113500000D02*
X82662500Y-113500000D01*
X83793751Y-113525000D02*
X83768751Y-113500000D01*
X95225000Y-113775000D02*
X94975000Y-113525000D01*
X94975000Y-113525000D02*
X83793751Y-113525000D01*
X98918749Y-113050000D02*
X98193749Y-113775000D01*
X98193749Y-113775000D02*
X95225000Y-113775000D01*
X99912500Y-113050000D02*
X98918749Y-113050000D01*
%TO.N,/MCU/USB_DIFF_P*%
X103375000Y-113050000D02*
X102187500Y-113050000D01*
X104894999Y-113775000D02*
X104100000Y-113775000D01*
X104100000Y-113775000D02*
X103375000Y-113050000D01*
X104919999Y-113750000D02*
X104894999Y-113775000D01*
X105850000Y-113750000D02*
X104919999Y-113750000D01*
%TO.N,/MCU/USB_DIFF_N*%
X103419239Y-114950000D02*
X102187500Y-114950000D01*
X104144239Y-114225000D02*
X103419239Y-114950000D01*
X104919999Y-114250000D02*
X104894999Y-114225000D01*
X105850000Y-114250000D02*
X104919999Y-114250000D01*
X104894999Y-114225000D02*
X104144239Y-114225000D01*
D52*
%TO.N,GND*%
X102187500Y-114000000D02*
X103350000Y-114000000D01*
D53*
%TO.N,/MCU/MCU_HSE_OUT*%
X71900000Y-113600000D02*
X69830000Y-113600000D01*
X74337500Y-114500000D02*
X72800000Y-114500000D01*
X72800000Y-114500000D02*
X71900000Y-113600000D01*
X69830000Y-113600000D02*
X69480000Y-113250000D01*
D54*
%TO.N,GND*%
X80750000Y-118912500D02*
X80750000Y-117600000D01*
X74337500Y-115500000D02*
X75650000Y-115500000D01*
X76250000Y-110587500D02*
X76250000Y-111900000D01*
D53*
%TO.N,/MCU/MCU_HSE_IN*%
X70240380Y-112800000D02*
X69500000Y-112059620D01*
X69500000Y-112059620D02*
X69500000Y-110530000D01*
X72200000Y-112800000D02*
X70240380Y-112800000D01*
X73400000Y-114000000D02*
X72200000Y-112800000D01*
X74337500Y-114000000D02*
X73400000Y-114000000D01*
X67317500Y-110530000D02*
X66400000Y-109612500D01*
X69500000Y-110530000D02*
X67317500Y-110530000D01*
X66400000Y-109612500D02*
X66400000Y-109500000D01*
%TO.N,/MCU/XTAL_IN*%
X67580000Y-112220000D02*
X68100000Y-111700000D01*
X67580000Y-113250000D02*
X67580000Y-112220000D01*
X68520000Y-113250000D02*
X67580000Y-113250000D01*
D54*
%TO.N,+3V3*%
X98392500Y-128370000D02*
X98172500Y-128150000D01*
X98392500Y-129800000D02*
X98392500Y-128370000D01*
%TO.N,+3V3A*%
X71792500Y-142775000D02*
X72450000Y-142117500D01*
X71050000Y-142775000D02*
X71792500Y-142775000D01*
X93312500Y-136212500D02*
X92655000Y-136870000D01*
X94042500Y-136212500D02*
X93312500Y-136212500D01*
X89730000Y-143037500D02*
X90200000Y-143507500D01*
X88487500Y-143037500D02*
X89730000Y-143037500D01*
X66850000Y-144755000D02*
X66367500Y-145237500D01*
X66850000Y-143725000D02*
X66850000Y-144755000D01*
%TO.N,+3V3*%
X72200000Y-129750000D02*
X72200000Y-128220000D01*
X72200000Y-128220000D02*
X72080000Y-128100000D01*
%TO.N,/ADC/ADC_VREF*%
X70230000Y-134150000D02*
X70200000Y-134180000D01*
X71700000Y-134150000D02*
X70230000Y-134150000D01*
%TO.N,+3V3A*%
X70270000Y-129750000D02*
X70200000Y-129820000D01*
X71700000Y-129750000D02*
X70270000Y-129750000D01*
%TO.N,+3V3*%
X83880000Y-111520000D02*
X84400000Y-111520000D01*
X82662500Y-112000000D02*
X83400000Y-112000000D01*
X83400000Y-112000000D02*
X83880000Y-111520000D01*
%TO.N,GND*%
X84380000Y-112500000D02*
X84400000Y-112480000D01*
X82662500Y-112500000D02*
X84380000Y-112500000D01*
X80750000Y-119750000D02*
X80682500Y-119817500D01*
X80750000Y-118912500D02*
X80750000Y-119750000D01*
X80682500Y-119817500D02*
X80682500Y-120750000D01*
%TO.N,+3V3*%
X81642500Y-120042500D02*
X81642500Y-120750000D01*
X81250000Y-119650000D02*
X81642500Y-120042500D01*
X81250000Y-118912500D02*
X81250000Y-119650000D01*
%TO.N,GND*%
X73216880Y-115220000D02*
X72662500Y-115220000D01*
X73496880Y-115500000D02*
X73216880Y-115220000D01*
X74337500Y-115500000D02*
X73496880Y-115500000D01*
%TO.N,VDDA*%
X74337500Y-116000000D02*
X73300000Y-116000000D01*
X73300000Y-116000000D02*
X73120000Y-116180000D01*
X73120000Y-116180000D02*
X72662500Y-116180000D01*
%TO.N,+3V3*%
X72782500Y-112000000D02*
X72712500Y-111930000D01*
X74337500Y-112000000D02*
X72782500Y-112000000D01*
X75520000Y-109520000D02*
X75520000Y-108900000D01*
X75750000Y-109750000D02*
X75520000Y-109520000D01*
X75750000Y-110587500D02*
X75750000Y-109750000D01*
%TO.N,GND*%
X76480000Y-109516880D02*
X76480000Y-108900000D01*
X76250000Y-109746880D02*
X76480000Y-109516880D01*
X76250000Y-110587500D02*
X76250000Y-109746880D01*
D53*
%TO.N,/DAC/DAC_OUT_A*%
X97882500Y-139110000D02*
X97892500Y-139120000D01*
X97892500Y-134200000D02*
X97882500Y-134210000D01*
%TO.N,+3V3*%
X70325000Y-111875000D02*
X70300000Y-111900000D01*
D52*
X71400000Y-111875000D02*
X70325000Y-111875000D01*
D53*
%TO.N,/MCU/MCU_USB_DIFF_N*%
X98193749Y-114225000D02*
X94975000Y-114225000D01*
X98918749Y-114950000D02*
X98193749Y-114225000D01*
X94975000Y-114225000D02*
X94750000Y-114000000D01*
X99912500Y-114950000D02*
X98918749Y-114950000D01*
X94750000Y-114000000D02*
X82662500Y-114000000D01*
D52*
%TO.N,/ADC/ADC_VREF_IN*%
X65387500Y-134487500D02*
X63962500Y-134487500D01*
%TO.N,VCOM*%
X73917500Y-138082500D02*
X73917500Y-138937500D01*
D53*
%TO.N,DAC_NCLR*%
X99892500Y-135042500D02*
X100400000Y-135550000D01*
X99892500Y-134200000D02*
X99892500Y-135042500D01*
D52*
%TO.N,+3V3*%
X97057500Y-100970000D02*
X99395000Y-100970000D01*
X99395000Y-100970000D02*
X99400000Y-100975000D01*
%TD*%
%TA.AperFunction,Conductor*%
%TO.N,+3V3*%
G36*
X71915677Y-111319685D02*
G01*
X71936319Y-111336319D01*
X72150000Y-111550000D01*
X72478302Y-111550000D01*
X72486537Y-111550385D01*
X72486538Y-111550365D01*
X72489423Y-111550500D01*
X72489434Y-111550500D01*
X72935577Y-111550500D01*
X72938462Y-111550365D01*
X72938462Y-111550385D01*
X72946698Y-111550000D01*
X72948638Y-111550000D01*
X73015677Y-111569685D01*
X73036319Y-111586319D01*
X73113681Y-111663681D01*
X73147166Y-111725004D01*
X73150000Y-111751362D01*
X73150000Y-112098638D01*
X73130315Y-112165677D01*
X73113681Y-112186319D01*
X73086319Y-112213681D01*
X73024996Y-112247166D01*
X72998638Y-112250000D01*
X72049999Y-112250000D01*
X71936819Y-112363181D01*
X71875496Y-112396666D01*
X71849138Y-112399500D01*
X70950862Y-112399500D01*
X70883823Y-112379815D01*
X70863181Y-112363181D01*
X70786319Y-112286319D01*
X70752834Y-112224996D01*
X70750000Y-112198638D01*
X70750000Y-111678400D01*
X70769685Y-111611361D01*
X70816373Y-111568604D01*
X70872240Y-111539283D01*
X70990483Y-111434530D01*
X71046372Y-111353559D01*
X71100654Y-111309570D01*
X71148422Y-111300000D01*
X71848638Y-111300000D01*
X71915677Y-111319685D01*
G37*
%TD.AperFunction*%
%TD*%
%TA.AperFunction,Conductor*%
%TO.N,GND*%
G36*
X72215677Y-108919685D02*
G01*
X72236319Y-108936319D01*
X73063681Y-109763681D01*
X73097166Y-109825004D01*
X73100000Y-109851362D01*
X73100000Y-111123159D01*
X73080315Y-111190198D01*
X73027511Y-111235953D01*
X72958353Y-111245896D01*
X72948638Y-111244500D01*
X72946698Y-111244500D01*
X72946693Y-111244500D01*
X72932451Y-111244832D01*
X72932292Y-111244839D01*
X72931715Y-111244866D01*
X72925966Y-111245000D01*
X72499036Y-111245000D01*
X72493286Y-111244866D01*
X72492623Y-111244835D01*
X72492549Y-111244832D01*
X72478308Y-111244500D01*
X72478302Y-111244500D01*
X72374000Y-111244500D01*
X72306961Y-111224815D01*
X72261206Y-111172011D01*
X72250000Y-111120500D01*
X72250000Y-111050000D01*
X72100000Y-110900000D01*
X70951362Y-110900000D01*
X70884323Y-110880315D01*
X70863681Y-110863681D01*
X70836319Y-110836319D01*
X70802834Y-110774996D01*
X70800000Y-110748638D01*
X70800000Y-109301362D01*
X70819685Y-109234323D01*
X70836319Y-109213681D01*
X71113681Y-108936319D01*
X71175004Y-108902834D01*
X71201362Y-108900000D01*
X72148638Y-108900000D01*
X72215677Y-108919685D01*
G37*
%TD.AperFunction*%
%TD*%
%TA.AperFunction,Conductor*%
%TO.N,GND*%
G36*
X69365677Y-107819685D02*
G01*
X69386319Y-107836319D01*
X69863681Y-108313681D01*
X69897166Y-108375004D01*
X69900000Y-108401362D01*
X69900000Y-109776000D01*
X69880315Y-109843039D01*
X69827511Y-109888794D01*
X69776000Y-109900000D01*
X68849999Y-109900000D01*
X68750000Y-109999999D01*
X68750000Y-110005500D01*
X68730315Y-110072539D01*
X68677511Y-110118294D01*
X68626000Y-110129500D01*
X67574000Y-110129500D01*
X67506961Y-110109815D01*
X67461206Y-110057011D01*
X67450000Y-110005500D01*
X67450000Y-108707341D01*
X67469685Y-108640302D01*
X67493685Y-108612867D01*
X68415272Y-107829518D01*
X68479099Y-107801100D01*
X68495579Y-107800000D01*
X69298638Y-107800000D01*
X69365677Y-107819685D01*
G37*
%TD.AperFunction*%
%TD*%
%TA.AperFunction,Conductor*%
%TO.N,GND*%
G36*
X66993039Y-110919685D02*
G01*
X67038794Y-110972489D01*
X67050000Y-111024000D01*
X67050000Y-112348638D01*
X67030315Y-112415677D01*
X67013681Y-112436319D01*
X66950000Y-112499999D01*
X66950000Y-113548638D01*
X66930315Y-113615677D01*
X66913681Y-113636319D01*
X66886319Y-113663681D01*
X66824996Y-113697166D01*
X66798638Y-113700000D01*
X65551362Y-113700000D01*
X65484323Y-113680315D01*
X65463681Y-113663681D01*
X65386319Y-113586319D01*
X65352834Y-113524996D01*
X65350000Y-113498638D01*
X65350000Y-113000000D01*
X65250000Y-112900000D01*
X65001362Y-112900000D01*
X64934323Y-112880315D01*
X64913681Y-112863681D01*
X64786319Y-112736319D01*
X64752834Y-112674996D01*
X64750000Y-112648638D01*
X64750000Y-112251362D01*
X64769685Y-112184323D01*
X64786319Y-112163681D01*
X64963681Y-111986319D01*
X65025004Y-111952834D01*
X65051362Y-111950000D01*
X65400000Y-111950000D01*
X65650000Y-111700000D01*
X65650000Y-111101362D01*
X65669685Y-111034323D01*
X65686319Y-111013681D01*
X65763681Y-110936319D01*
X65825004Y-110902834D01*
X65851362Y-110900000D01*
X66926000Y-110900000D01*
X66993039Y-110919685D01*
G37*
%TD.AperFunction*%
%TD*%
%TA.AperFunction,Conductor*%
%TO.N,+3V3*%
G36*
X70115677Y-115669685D02*
G01*
X70136319Y-115686319D01*
X70213681Y-115763681D01*
X70247166Y-115825004D01*
X70250000Y-115851362D01*
X70250000Y-117100000D01*
X70313681Y-117163681D01*
X70347166Y-117225004D01*
X70350000Y-117251362D01*
X70350000Y-117648638D01*
X70330315Y-117715677D01*
X70313681Y-117736319D01*
X70286319Y-117763681D01*
X70224996Y-117797166D01*
X70198638Y-117800000D01*
X69851362Y-117800000D01*
X69784323Y-117780315D01*
X69763681Y-117763681D01*
X69636319Y-117636319D01*
X69602834Y-117574996D01*
X69600000Y-117548638D01*
X69600000Y-117200000D01*
X69000000Y-116600000D01*
X68501362Y-116600000D01*
X68434323Y-116580315D01*
X68413681Y-116563681D01*
X68393592Y-116543592D01*
X68360107Y-116482269D01*
X68365091Y-116412577D01*
X68365190Y-116412312D01*
X68386237Y-116356818D01*
X68405278Y-116200000D01*
X68386237Y-116043182D01*
X68330220Y-115895477D01*
X68330215Y-115895470D01*
X68329357Y-115893834D01*
X68329088Y-115892494D01*
X68327560Y-115888464D01*
X68328230Y-115888209D01*
X68315631Y-115825326D01*
X68341122Y-115760273D01*
X68351450Y-115748549D01*
X68413684Y-115686315D01*
X68475006Y-115652833D01*
X68501362Y-115650000D01*
X70048638Y-115650000D01*
X70115677Y-115669685D01*
G37*
%TD.AperFunction*%
%TD*%
%TA.AperFunction,Conductor*%
%TO.N,VDDA*%
G36*
X71715677Y-115719685D02*
G01*
X71736319Y-115736319D01*
X71850000Y-115850000D01*
X72826000Y-115850000D01*
X72893039Y-115869685D01*
X72938794Y-115922489D01*
X72950000Y-115974000D01*
X72950000Y-116348638D01*
X72930315Y-116415677D01*
X72913681Y-116436319D01*
X72836319Y-116513681D01*
X72774996Y-116547166D01*
X72748638Y-116550000D01*
X71799999Y-116550000D01*
X71736319Y-116613681D01*
X71674996Y-116647166D01*
X71648638Y-116650000D01*
X71399999Y-116650000D01*
X71300000Y-116749999D01*
X71300000Y-117648638D01*
X71280315Y-117715677D01*
X71263681Y-117736319D01*
X71236319Y-117763681D01*
X71174996Y-117797166D01*
X71148638Y-117800000D01*
X70851362Y-117800000D01*
X70784323Y-117780315D01*
X70763681Y-117763681D01*
X70736319Y-117736319D01*
X70702834Y-117674996D01*
X70700000Y-117648638D01*
X70700000Y-117201362D01*
X70719685Y-117134323D01*
X70736319Y-117113681D01*
X70800000Y-117050000D01*
X70800000Y-115824000D01*
X70819685Y-115756961D01*
X70872489Y-115711206D01*
X70924000Y-115700000D01*
X71648638Y-115700000D01*
X71715677Y-115719685D01*
G37*
%TD.AperFunction*%
%TD*%
%TA.AperFunction,Conductor*%
%TO.N,GND*%
G36*
X71715677Y-114169685D02*
G01*
X71736319Y-114186319D01*
X71863681Y-114313681D01*
X71897166Y-114375004D01*
X71900000Y-114401362D01*
X71900000Y-114550000D01*
X72250000Y-114900000D01*
X72735349Y-114900000D01*
X72742978Y-114900500D01*
X72799138Y-114900500D01*
X72866177Y-114920185D01*
X72886819Y-114936819D01*
X72913681Y-114963681D01*
X72947166Y-115025004D01*
X72950000Y-115051362D01*
X72950000Y-115376000D01*
X72930315Y-115443039D01*
X72877511Y-115488794D01*
X72826000Y-115500000D01*
X72401362Y-115500000D01*
X72334323Y-115480315D01*
X72313681Y-115463681D01*
X72236319Y-115386319D01*
X72202834Y-115324996D01*
X72200000Y-115298638D01*
X72200000Y-115250000D01*
X72100000Y-115150000D01*
X69401362Y-115150000D01*
X69334323Y-115130315D01*
X69313681Y-115113681D01*
X69236319Y-115036319D01*
X69202834Y-114974996D01*
X69200000Y-114948638D01*
X69200000Y-114301362D01*
X69219685Y-114234323D01*
X69236319Y-114213681D01*
X69263681Y-114186319D01*
X69325004Y-114152834D01*
X69351362Y-114150000D01*
X71648638Y-114150000D01*
X71715677Y-114169685D01*
G37*
%TD.AperFunction*%
%TD*%
%TA.AperFunction,Conductor*%
%TO.N,GND*%
G36*
X71165677Y-126319685D02*
G01*
X71186319Y-126336319D01*
X71213681Y-126363681D01*
X71247166Y-126425004D01*
X71250000Y-126451362D01*
X71250000Y-127700000D01*
X71300000Y-127750000D01*
X71300001Y-127750000D01*
X71303318Y-127751374D01*
X71365677Y-127769685D01*
X71386319Y-127786319D01*
X71413681Y-127813681D01*
X71447166Y-127875004D01*
X71450000Y-127901362D01*
X71450000Y-128326000D01*
X71430315Y-128393039D01*
X71377511Y-128438794D01*
X71326000Y-128450000D01*
X70801362Y-128450000D01*
X70734323Y-128430315D01*
X70713681Y-128413681D01*
X70500000Y-128200000D01*
X70051362Y-128200000D01*
X69984323Y-128180315D01*
X69963681Y-128163681D01*
X69886319Y-128086319D01*
X69852834Y-128024996D01*
X69850000Y-127998638D01*
X69850000Y-127350000D01*
X69700000Y-127200000D01*
X69501362Y-127200000D01*
X69434323Y-127180315D01*
X69413681Y-127163681D01*
X69336319Y-127086319D01*
X69302834Y-127024996D01*
X69300000Y-126998638D01*
X69300000Y-126551362D01*
X69319685Y-126484323D01*
X69336319Y-126463681D01*
X69363681Y-126436319D01*
X69425004Y-126402834D01*
X69451362Y-126400000D01*
X70250000Y-126400000D01*
X70313681Y-126336319D01*
X70375004Y-126302834D01*
X70401362Y-126300000D01*
X71098638Y-126300000D01*
X71165677Y-126319685D01*
G37*
%TD.AperFunction*%
%TD*%
%TA.AperFunction,Conductor*%
%TO.N,GND*%
G36*
X69878639Y-130413467D02*
G01*
X69898251Y-130423439D01*
X69898253Y-130423439D01*
X69898254Y-130423440D01*
X69965283Y-130443122D01*
X69965290Y-130443124D01*
X70051362Y-130455500D01*
X70051365Y-130455500D01*
X70425990Y-130455500D01*
X70426000Y-130455500D01*
X70462745Y-130451549D01*
X70531503Y-130463953D01*
X70582641Y-130511563D01*
X70600000Y-130574838D01*
X70600000Y-130900000D01*
X70700000Y-131000000D01*
X71048638Y-131000000D01*
X71115677Y-131019685D01*
X71136319Y-131036319D01*
X71213681Y-131113681D01*
X71247166Y-131175004D01*
X71250000Y-131201362D01*
X71250000Y-132748638D01*
X71230315Y-132815677D01*
X71213681Y-132836319D01*
X71186319Y-132863681D01*
X71124996Y-132897166D01*
X71098638Y-132900000D01*
X70749999Y-132900000D01*
X70650000Y-132999999D01*
X70650000Y-133348638D01*
X70630315Y-133415677D01*
X70613681Y-133436319D01*
X70536319Y-133513681D01*
X70474996Y-133547166D01*
X70448638Y-133550000D01*
X68551362Y-133550000D01*
X68484323Y-133530315D01*
X68463681Y-133513681D01*
X68286319Y-133336319D01*
X68252834Y-133274996D01*
X68250000Y-133248638D01*
X68250000Y-132550000D01*
X68150000Y-132450000D01*
X68001362Y-132450000D01*
X67934323Y-132430315D01*
X67913681Y-132413681D01*
X67836319Y-132336319D01*
X67802834Y-132274996D01*
X67800000Y-132248638D01*
X67800000Y-131801362D01*
X67819685Y-131734323D01*
X67836319Y-131713681D01*
X67963681Y-131586319D01*
X68025004Y-131552834D01*
X68051362Y-131550000D01*
X68150000Y-131550000D01*
X68250000Y-131450000D01*
X68250000Y-130701362D01*
X68269685Y-130634323D01*
X68286319Y-130613681D01*
X68463681Y-130436319D01*
X68525004Y-130402834D01*
X68551362Y-130400000D01*
X69822440Y-130400000D01*
X69878639Y-130413467D01*
G37*
%TD.AperFunction*%
%TD*%
%TA.AperFunction,Conductor*%
%TO.N,+3V3A*%
G36*
X68190403Y-128569685D02*
G01*
X68234273Y-128618546D01*
X68256841Y-128663681D01*
X68267162Y-128684323D01*
X68350000Y-128850000D01*
X68400000Y-128950000D01*
X69398638Y-128950000D01*
X69465677Y-128969685D01*
X69486319Y-128986319D01*
X69613681Y-129113681D01*
X69647166Y-129175004D01*
X69650000Y-129201362D01*
X69650000Y-129400000D01*
X69750000Y-129500000D01*
X70398638Y-129500000D01*
X70465677Y-129519685D01*
X70486319Y-129536319D01*
X70513681Y-129563681D01*
X70547166Y-129625004D01*
X70550000Y-129651362D01*
X70550000Y-130026000D01*
X70530315Y-130093039D01*
X70477511Y-130138794D01*
X70426000Y-130150000D01*
X70051362Y-130150000D01*
X69984323Y-130130315D01*
X69963681Y-130113681D01*
X69850000Y-130000000D01*
X68450000Y-130000000D01*
X68449999Y-130000000D01*
X68136319Y-130313681D01*
X68074996Y-130347166D01*
X68048638Y-130350000D01*
X67701362Y-130350000D01*
X67634323Y-130330315D01*
X67613681Y-130313681D01*
X67536319Y-130236319D01*
X67502834Y-130174996D01*
X67500000Y-130148638D01*
X67500000Y-130038184D01*
X67519685Y-129971145D01*
X67541767Y-129945374D01*
X67568737Y-129921482D01*
X67658474Y-129791475D01*
X67714491Y-129643770D01*
X67733532Y-129486952D01*
X67714491Y-129330134D01*
X67658474Y-129182429D01*
X67568737Y-129052422D01*
X67541772Y-129028533D01*
X67504646Y-128969343D01*
X67500000Y-128935718D01*
X67500000Y-128751362D01*
X67519685Y-128684323D01*
X67536319Y-128663681D01*
X67613681Y-128586319D01*
X67675004Y-128552834D01*
X67701362Y-128550000D01*
X68123364Y-128550000D01*
X68190403Y-128569685D01*
G37*
%TD.AperFunction*%
%TD*%
%TA.AperFunction,Conductor*%
%TO.N,GND*%
G36*
X63865677Y-131369685D02*
G01*
X63886319Y-131386319D01*
X63913681Y-131413681D01*
X63947166Y-131475004D01*
X63950000Y-131501362D01*
X63950000Y-132150000D01*
X64050000Y-132250000D01*
X64198638Y-132250000D01*
X64265677Y-132269685D01*
X64286319Y-132286319D01*
X64313681Y-132313681D01*
X64347166Y-132375004D01*
X64350000Y-132401362D01*
X64350000Y-133148638D01*
X64330315Y-133215677D01*
X64313681Y-133236319D01*
X64286319Y-133263681D01*
X64224996Y-133297166D01*
X64198638Y-133300000D01*
X61801362Y-133300000D01*
X61734323Y-133280315D01*
X61713681Y-133263681D01*
X61686319Y-133236319D01*
X61652834Y-133174996D01*
X61650000Y-133148638D01*
X61650000Y-132451362D01*
X61669685Y-132384323D01*
X61686319Y-132363681D01*
X61763681Y-132286319D01*
X61825004Y-132252834D01*
X61851362Y-132250000D01*
X62050000Y-132250000D01*
X62150000Y-132150000D01*
X62150000Y-131551362D01*
X62169685Y-131484323D01*
X62186319Y-131463681D01*
X62263681Y-131386319D01*
X62325004Y-131352834D01*
X62351362Y-131350000D01*
X63798638Y-131350000D01*
X63865677Y-131369685D01*
G37*
%TD.AperFunction*%
%TD*%
%TA.AperFunction,Conductor*%
%TO.N,GND*%
G36*
X63365677Y-136819685D02*
G01*
X63386319Y-136836319D01*
X63413681Y-136863681D01*
X63447166Y-136925004D01*
X63450000Y-136951362D01*
X63450000Y-138248638D01*
X63430315Y-138315677D01*
X63413681Y-138336319D01*
X63386319Y-138363681D01*
X63324996Y-138397166D01*
X63298638Y-138400000D01*
X61751362Y-138400000D01*
X61684323Y-138380315D01*
X61663681Y-138363681D01*
X61636319Y-138336319D01*
X61602834Y-138274996D01*
X61600000Y-138248638D01*
X61600000Y-136951362D01*
X61619685Y-136884323D01*
X61636319Y-136863681D01*
X61663681Y-136836319D01*
X61725004Y-136802834D01*
X61751362Y-136800000D01*
X63298638Y-136800000D01*
X63365677Y-136819685D01*
G37*
%TD.AperFunction*%
%TD*%
%TA.AperFunction,Conductor*%
%TO.N,GND*%
G36*
X65665677Y-144919685D02*
G01*
X65686319Y-144936319D01*
X65713681Y-144963681D01*
X65747166Y-145025004D01*
X65750000Y-145051362D01*
X65750000Y-145800000D01*
X65910630Y-145960630D01*
X65921351Y-145974599D01*
X65922043Y-145974069D01*
X65926989Y-145980515D01*
X66213681Y-146267206D01*
X66247166Y-146328529D01*
X66250000Y-146354887D01*
X66250000Y-147498638D01*
X66230315Y-147565677D01*
X66213681Y-147586319D01*
X66086319Y-147713681D01*
X66024996Y-147747166D01*
X65998638Y-147750000D01*
X64851362Y-147750000D01*
X64784323Y-147730315D01*
X64763681Y-147713681D01*
X64636319Y-147586319D01*
X64602834Y-147524996D01*
X64600000Y-147498638D01*
X64600000Y-145451362D01*
X64619685Y-145384323D01*
X64636319Y-145363681D01*
X65063681Y-144936319D01*
X65125004Y-144902834D01*
X65151362Y-144900000D01*
X65598638Y-144900000D01*
X65665677Y-144919685D01*
G37*
%TD.AperFunction*%
%TD*%
%TA.AperFunction,Conductor*%
%TO.N,GND*%
G36*
X97154652Y-126319685D02*
G01*
X97175294Y-126336319D01*
X97397831Y-126558856D01*
X97513681Y-126674705D01*
X97547166Y-126736028D01*
X97550000Y-126762386D01*
X97550000Y-128398638D01*
X97530315Y-128465677D01*
X97513681Y-128486319D01*
X97486319Y-128513681D01*
X97424996Y-128547166D01*
X97398638Y-128550000D01*
X96151362Y-128550000D01*
X96084323Y-128530315D01*
X96063681Y-128513681D01*
X95486319Y-127936319D01*
X95452834Y-127874996D01*
X95450000Y-127848638D01*
X95450000Y-126551362D01*
X95469685Y-126484323D01*
X95486319Y-126463681D01*
X95613681Y-126336319D01*
X95675004Y-126302834D01*
X95701362Y-126300000D01*
X97087613Y-126300000D01*
X97154652Y-126319685D01*
G37*
%TD.AperFunction*%
%TD*%
%TA.AperFunction,Conductor*%
%TO.N,GND*%
G36*
X60065677Y-95569685D02*
G01*
X60086319Y-95586319D01*
X60113681Y-95613681D01*
X60147166Y-95675004D01*
X60150000Y-95701362D01*
X60150000Y-98948638D01*
X60130315Y-99015677D01*
X60113681Y-99036319D01*
X60086319Y-99063681D01*
X60024996Y-99097166D01*
X59998638Y-99100000D01*
X58001362Y-99100000D01*
X57934323Y-99080315D01*
X57913681Y-99063681D01*
X57736319Y-98886319D01*
X57702834Y-98824996D01*
X57700000Y-98798638D01*
X57700000Y-95801362D01*
X57719685Y-95734323D01*
X57736319Y-95713681D01*
X57863681Y-95586319D01*
X57925004Y-95552834D01*
X57951362Y-95550000D01*
X59998638Y-95550000D01*
X60065677Y-95569685D01*
G37*
%TD.AperFunction*%
%TD*%
%TA.AperFunction,Conductor*%
%TO.N,GND*%
G36*
X70315677Y-93069685D02*
G01*
X70336319Y-93086319D01*
X71213681Y-93963681D01*
X71247166Y-94025004D01*
X71250000Y-94051362D01*
X71250000Y-94548636D01*
X71230315Y-94615675D01*
X71213681Y-94636317D01*
X71146817Y-94703181D01*
X71085494Y-94736666D01*
X71059136Y-94739500D01*
X70611930Y-94739500D01*
X70582185Y-94742289D01*
X70582177Y-94742290D01*
X70580031Y-94743042D01*
X70539077Y-94750000D01*
X68951362Y-94750000D01*
X68884323Y-94730315D01*
X68863681Y-94713681D01*
X68736319Y-94586319D01*
X68702834Y-94524996D01*
X68700000Y-94498638D01*
X68700000Y-93251362D01*
X68719685Y-93184323D01*
X68736319Y-93163681D01*
X68813681Y-93086319D01*
X68875004Y-93052834D01*
X68901362Y-93050000D01*
X70248638Y-93050000D01*
X70315677Y-93069685D01*
G37*
%TD.AperFunction*%
%TD*%
%TA.AperFunction,Conductor*%
%TO.N,+3V3*%
G36*
X97765677Y-94169685D02*
G01*
X97786319Y-94186319D01*
X97913681Y-94313681D01*
X97947166Y-94375004D01*
X97950000Y-94401362D01*
X97950000Y-101298638D01*
X97930315Y-101365677D01*
X97913681Y-101386319D01*
X97811319Y-101488681D01*
X97749996Y-101522166D01*
X97723638Y-101525000D01*
X96301362Y-101525000D01*
X96234323Y-101505315D01*
X96213681Y-101488681D01*
X96111319Y-101386319D01*
X96077834Y-101324996D01*
X96075000Y-101298638D01*
X96075000Y-98900000D01*
X95286319Y-98111319D01*
X95252834Y-98049996D01*
X95250000Y-98023638D01*
X95250000Y-94401362D01*
X95269685Y-94334323D01*
X95286319Y-94313681D01*
X95413681Y-94186319D01*
X95475004Y-94152834D01*
X95501362Y-94150000D01*
X97698638Y-94150000D01*
X97765677Y-94169685D01*
G37*
%TD.AperFunction*%
%TD*%
%TA.AperFunction,Conductor*%
%TO.N,/power/BUCK_SW*%
G36*
X91690677Y-94019685D02*
G01*
X91711319Y-94036319D01*
X91988681Y-94313681D01*
X92022166Y-94375004D01*
X92025000Y-94401362D01*
X92025000Y-97050000D01*
X95463681Y-100488681D01*
X95497166Y-100550004D01*
X95500000Y-100576362D01*
X95500000Y-101145500D01*
X95480315Y-101212539D01*
X95427511Y-101258294D01*
X95376000Y-101269500D01*
X94045862Y-101269500D01*
X93978823Y-101249815D01*
X93958181Y-101233181D01*
X93936319Y-101211319D01*
X93902834Y-101149996D01*
X93900000Y-101123638D01*
X93900000Y-100375000D01*
X92400000Y-98875000D01*
X90151362Y-98875000D01*
X90084323Y-98855315D01*
X90063681Y-98838681D01*
X89161319Y-97936319D01*
X89127834Y-97874996D01*
X89125000Y-97848638D01*
X89125000Y-94476362D01*
X89144685Y-94409323D01*
X89161319Y-94388681D01*
X89513681Y-94036319D01*
X89575004Y-94002834D01*
X89601362Y-94000000D01*
X91623638Y-94000000D01*
X91690677Y-94019685D01*
G37*
%TD.AperFunction*%
%TD*%
%TA.AperFunction,Conductor*%
%TO.N,GND*%
G36*
X91584224Y-101575904D02*
G01*
X91590158Y-101576624D01*
X91622074Y-101580500D01*
X91622077Y-101580500D01*
X93048639Y-101580500D01*
X93050559Y-101580397D01*
X93081297Y-101578749D01*
X93082942Y-101578572D01*
X93107593Y-101575922D01*
X93107621Y-101575918D01*
X93107655Y-101575915D01*
X93108028Y-101575870D01*
X93108124Y-101575864D01*
X93108365Y-101575839D01*
X93108366Y-101575850D01*
X93122696Y-101575000D01*
X95748638Y-101575000D01*
X95815677Y-101594685D01*
X95836319Y-101611319D01*
X96250000Y-102025000D01*
X97398638Y-102025000D01*
X97465677Y-102044685D01*
X97486319Y-102061319D01*
X98113681Y-102688681D01*
X98147166Y-102750004D01*
X98150000Y-102776362D01*
X98150000Y-104173638D01*
X98130315Y-104240677D01*
X98113681Y-104261319D01*
X97961319Y-104413681D01*
X97899996Y-104447166D01*
X97873638Y-104450000D01*
X96401362Y-104450000D01*
X96334323Y-104430315D01*
X96313681Y-104413681D01*
X96186319Y-104286319D01*
X96152834Y-104224996D01*
X96150000Y-104198638D01*
X96150000Y-102650000D01*
X96150000Y-102275000D01*
X95775000Y-102275000D01*
X95367699Y-102275000D01*
X95349678Y-102273054D01*
X95311770Y-102269500D01*
X95311766Y-102269500D01*
X94178234Y-102269500D01*
X94178230Y-102269500D01*
X94140321Y-102273054D01*
X94122301Y-102275000D01*
X93092699Y-102275000D01*
X93074678Y-102273054D01*
X93036770Y-102269500D01*
X93036766Y-102269500D01*
X91903234Y-102269500D01*
X91903230Y-102269500D01*
X91865321Y-102273054D01*
X91847301Y-102275000D01*
X91024999Y-102275000D01*
X90900000Y-102399999D01*
X90900000Y-103300000D01*
X91788681Y-104188681D01*
X91822166Y-104250004D01*
X91825000Y-104276362D01*
X91825000Y-104748638D01*
X91805315Y-104815677D01*
X91788681Y-104836319D01*
X91711319Y-104913681D01*
X91649996Y-104947166D01*
X91623638Y-104950000D01*
X91226362Y-104950000D01*
X91159323Y-104930315D01*
X91138681Y-104913681D01*
X90725000Y-104500000D01*
X89401362Y-104500000D01*
X89334323Y-104480315D01*
X89313681Y-104463681D01*
X89111319Y-104261319D01*
X89077834Y-104199996D01*
X89075000Y-104173638D01*
X89075000Y-102751362D01*
X89094685Y-102684323D01*
X89111319Y-102663681D01*
X89513681Y-102261319D01*
X89575004Y-102227834D01*
X89601362Y-102225000D01*
X90400000Y-102225000D01*
X90964221Y-101660778D01*
X90976947Y-101649681D01*
X91025422Y-101612922D01*
X91025427Y-101612916D01*
X91027032Y-101611313D01*
X91028856Y-101610316D01*
X91032181Y-101607796D01*
X91032559Y-101608295D01*
X91088357Y-101577832D01*
X91114707Y-101575000D01*
X91569278Y-101575000D01*
X91584224Y-101575904D01*
G37*
%TD.AperFunction*%
%TD*%
%TA.AperFunction,Conductor*%
%TO.N,GND*%
G36*
X96150000Y-102650000D02*
G01*
X95775000Y-102275000D01*
X96150000Y-102275000D01*
X96150000Y-102650000D01*
G37*
%TD.AperFunction*%
%TD*%
%TA.AperFunction,Conductor*%
%TO.N,+5V*%
G36*
X92990677Y-100469685D02*
G01*
X93011319Y-100486319D01*
X93138681Y-100613681D01*
X93172166Y-100675004D01*
X93175000Y-100701362D01*
X93175000Y-101148638D01*
X93155315Y-101215677D01*
X93138681Y-101236319D01*
X93136319Y-101238681D01*
X93074996Y-101272166D01*
X93048638Y-101275000D01*
X91622074Y-101275000D01*
X91564448Y-101260796D01*
X91544642Y-101250401D01*
X91525224Y-101240209D01*
X91360056Y-101199500D01*
X91189944Y-101199500D01*
X91024773Y-101240210D01*
X90874150Y-101319263D01*
X90746809Y-101432077D01*
X90745789Y-101433230D01*
X90744831Y-101433830D01*
X90741203Y-101437045D01*
X90740668Y-101436441D01*
X90686599Y-101470355D01*
X90652977Y-101475000D01*
X89551362Y-101475000D01*
X89484323Y-101455315D01*
X89463681Y-101438681D01*
X89411319Y-101386319D01*
X89377834Y-101324996D01*
X89375000Y-101298638D01*
X89375000Y-100626362D01*
X89394685Y-100559323D01*
X89411319Y-100538681D01*
X89463681Y-100486319D01*
X89525004Y-100452834D01*
X89551362Y-100450000D01*
X92923638Y-100450000D01*
X92990677Y-100469685D01*
G37*
%TD.AperFunction*%
%TD*%
%TA.AperFunction,Conductor*%
%TO.N,GND*%
G36*
X83505677Y-134379685D02*
G01*
X83526319Y-134396319D01*
X83633681Y-134503681D01*
X83667166Y-134565004D01*
X83670000Y-134591362D01*
X83670000Y-137010000D01*
X83813681Y-137153681D01*
X83847166Y-137215004D01*
X83850000Y-137241362D01*
X83850000Y-137818638D01*
X83830315Y-137885677D01*
X83813681Y-137906319D01*
X83676319Y-138043681D01*
X83614996Y-138077166D01*
X83588638Y-138080000D01*
X82128807Y-138080000D01*
X82081354Y-138070561D01*
X82080000Y-138070000D01*
X82000000Y-138070000D01*
X81999999Y-138070000D01*
X81356319Y-138713681D01*
X81294996Y-138747166D01*
X81268638Y-138750000D01*
X79971362Y-138750000D01*
X79904323Y-138730315D01*
X79883681Y-138713681D01*
X79786319Y-138616319D01*
X79752834Y-138554996D01*
X79750000Y-138528638D01*
X79750000Y-137021362D01*
X79769685Y-136954323D01*
X79786319Y-136933681D01*
X80013681Y-136706319D01*
X80075004Y-136672834D01*
X80101362Y-136670000D01*
X81410000Y-136670000D01*
X81690000Y-136390000D01*
X81690000Y-134601362D01*
X81709685Y-134534323D01*
X81726319Y-134513681D01*
X81843681Y-134396319D01*
X81905004Y-134362834D01*
X81931362Y-134360000D01*
X83438638Y-134360000D01*
X83505677Y-134379685D01*
G37*
%TD.AperFunction*%
%TD*%
%TA.AperFunction,Conductor*%
%TO.N,+3V3A*%
G36*
X81475677Y-139599685D02*
G01*
X81496319Y-139616319D01*
X82000000Y-140120000D01*
X83608638Y-140120000D01*
X83675677Y-140139685D01*
X83696319Y-140156319D01*
X83833681Y-140293681D01*
X83867166Y-140355004D01*
X83870000Y-140381362D01*
X83870000Y-140858638D01*
X83850315Y-140925677D01*
X83833681Y-140946319D01*
X83736319Y-141043681D01*
X83674996Y-141077166D01*
X83648638Y-141080000D01*
X82591362Y-141080000D01*
X82524323Y-141060315D01*
X82503681Y-141043681D01*
X82120000Y-140660000D01*
X80291362Y-140660000D01*
X80224323Y-140640315D01*
X80203681Y-140623681D01*
X80086319Y-140506319D01*
X80052834Y-140444996D01*
X80050000Y-140418638D01*
X80050000Y-139771362D01*
X80069685Y-139704323D01*
X80086319Y-139683681D01*
X80153681Y-139616319D01*
X80215004Y-139582834D01*
X80241362Y-139580000D01*
X81408638Y-139580000D01*
X81475677Y-139599685D01*
G37*
%TD.AperFunction*%
%TD*%
%TA.AperFunction,Conductor*%
%TO.N,GND*%
G36*
X84140677Y-142394685D02*
G01*
X84161319Y-142411319D01*
X85400000Y-143650000D01*
X86748638Y-143650000D01*
X86815677Y-143669685D01*
X86836319Y-143686319D01*
X86863681Y-143713681D01*
X86897166Y-143775004D01*
X86900000Y-143801362D01*
X86900000Y-144148638D01*
X86880315Y-144215677D01*
X86863681Y-144236319D01*
X86836319Y-144263681D01*
X86774996Y-144297166D01*
X86748638Y-144300000D01*
X84951362Y-144300000D01*
X84884323Y-144280315D01*
X84863681Y-144263681D01*
X84625000Y-144025000D01*
X82400000Y-144025000D01*
X82399999Y-144025000D01*
X82186319Y-144238681D01*
X82124996Y-144272166D01*
X82098638Y-144275000D01*
X81701362Y-144275000D01*
X81634323Y-144255315D01*
X81613681Y-144238681D01*
X81611319Y-144236319D01*
X81577834Y-144174996D01*
X81575000Y-144148638D01*
X81575000Y-143525000D01*
X81386819Y-143336819D01*
X81353334Y-143275496D01*
X81350500Y-143249138D01*
X81350500Y-143025862D01*
X81370185Y-142958823D01*
X81386819Y-142938181D01*
X81913681Y-142411319D01*
X81975004Y-142377834D01*
X82001362Y-142375000D01*
X84073638Y-142375000D01*
X84140677Y-142394685D01*
G37*
%TD.AperFunction*%
%TD*%
%TA.AperFunction,Conductor*%
%TO.N,/power/VREF*%
G36*
X82140677Y-144644685D02*
G01*
X82161319Y-144661319D01*
X82375000Y-144875000D01*
X85375000Y-144875000D01*
X85588681Y-144661319D01*
X85650004Y-144627834D01*
X85676362Y-144625000D01*
X86773638Y-144625000D01*
X86840677Y-144644685D01*
X86861319Y-144661319D01*
X86863681Y-144663681D01*
X86897166Y-144725004D01*
X86900000Y-144751362D01*
X86900000Y-145098638D01*
X86880315Y-145165677D01*
X86863681Y-145186319D01*
X86836319Y-145213681D01*
X86774996Y-145247166D01*
X86748638Y-145250000D01*
X84999999Y-145250000D01*
X84361319Y-145888681D01*
X84299996Y-145922166D01*
X84273638Y-145925000D01*
X83101362Y-145925000D01*
X83034323Y-145905315D01*
X83013681Y-145888681D01*
X82375000Y-145250000D01*
X80601362Y-145250000D01*
X80534323Y-145230315D01*
X80513681Y-145213681D01*
X80486319Y-145186319D01*
X80452834Y-145124996D01*
X80450000Y-145098638D01*
X80450000Y-144749000D01*
X80469685Y-144681961D01*
X80522489Y-144636206D01*
X80574000Y-144625000D01*
X82073638Y-144625000D01*
X82140677Y-144644685D01*
G37*
%TD.AperFunction*%
%TD*%
M02*
