%TF.GenerationSoftware,KiCad,Pcbnew,8.0.7*%
%TF.CreationDate,2025-05-23T18:18:51-03:00*%
%TF.ProjectId,uDAQ,75444151-2e6b-4696-9361-645f70636258,rev?*%
%TF.SameCoordinates,Original*%
%TF.FileFunction,Copper,L4,Bot*%
%TF.FilePolarity,Positive*%
%FSLAX46Y46*%
G04 Gerber Fmt 4.6, Leading zero omitted, Abs format (unit mm)*
G04 Created by KiCad (PCBNEW 8.0.7) date 2025-05-23 18:18:51*
%MOMM*%
%LPD*%
G01*
G04 APERTURE LIST*
%TA.AperFunction,ComponentPad*%
%ADD10O,1.800000X1.000000*%
%TD*%
%TA.AperFunction,ComponentPad*%
%ADD11O,2.100000X1.000000*%
%TD*%
%TA.AperFunction,ComponentPad*%
%ADD12C,0.650000*%
%TD*%
%TA.AperFunction,ComponentPad*%
%ADD13C,6.400000*%
%TD*%
%TA.AperFunction,ComponentPad*%
%ADD14C,3.090000*%
%TD*%
%TA.AperFunction,ComponentPad*%
%ADD15C,1.509000*%
%TD*%
%TA.AperFunction,ViaPad*%
%ADD16C,0.800000*%
%TD*%
%TA.AperFunction,ViaPad*%
%ADD17C,0.700000*%
%TD*%
%TA.AperFunction,Conductor*%
%ADD18C,0.500000*%
%TD*%
%TA.AperFunction,Conductor*%
%ADD19C,0.300000*%
%TD*%
%TA.AperFunction,Conductor*%
%ADD20C,0.200000*%
%TD*%
G04 APERTURE END LIST*
D10*
%TO.P,J201,S1,SHIELD*%
%TO.N,unconnected-(J201-SHIELD-PadS1)*%
X110650000Y-110180000D03*
D11*
%TO.N,unconnected-(J201-SHIELD-PadS1)_1*%
X106470000Y-110180000D03*
D10*
%TO.N,unconnected-(J201-SHIELD-PadS1)_3*%
X110650000Y-118820000D03*
D11*
%TO.N,unconnected-(J201-SHIELD-PadS1)_2*%
X106470000Y-118820000D03*
D12*
%TO.P,J201,*%
%TO.N,*%
X106970000Y-111610000D03*
X106970000Y-117400000D03*
%TD*%
D13*
%TO.P,MH4,1,1*%
%TO.N,GND*%
X50075000Y-94000000D03*
%TD*%
%TO.P,MH3,1,1*%
%TO.N,GND*%
X107075000Y-94000000D03*
%TD*%
%TO.P,MH2,1,1*%
%TO.N,GND*%
X107000000Y-161000000D03*
%TD*%
%TO.P,MH1,1,1*%
%TO.N,GND*%
X50000000Y-161000000D03*
%TD*%
D14*
%TO.P,J401,2,Ext*%
%TO.N,GND*%
X88840000Y-156380000D03*
D15*
X96460000Y-151300000D03*
D14*
X99000000Y-156380000D03*
D15*
%TO.P,J401,1,In*%
%TO.N,/DAC/OUT*%
X93920000Y-151300000D03*
%TD*%
D14*
%TO.P,J301,2,Ext*%
%TO.N,GND*%
X57840000Y-156380000D03*
D15*
X65460000Y-151300000D03*
D14*
X68000000Y-156380000D03*
D15*
%TO.P,J301,1,In*%
%TO.N,/ADC/IN*%
X62920000Y-151300000D03*
%TD*%
D16*
%TO.N,GND*%
X85000000Y-115000000D03*
X88000000Y-117000000D03*
X90000000Y-119000000D03*
X93000000Y-121000000D03*
X94000000Y-123000000D03*
X89000000Y-137000000D03*
X91000000Y-141000000D03*
X89000000Y-141000000D03*
X79000000Y-142000000D03*
X66000000Y-139000000D03*
X65000000Y-137000000D03*
X77000000Y-130000000D03*
X76000000Y-137000000D03*
X69000000Y-120000000D03*
X67000000Y-119000000D03*
X67000000Y-121000000D03*
X85000000Y-104000000D03*
X85000000Y-102000000D03*
X85000000Y-100000000D03*
X77000000Y-94000000D03*
X77000000Y-96000000D03*
X74000000Y-104000000D03*
X72000000Y-104000000D03*
X70000000Y-104000000D03*
X63000000Y-107000000D03*
X63000000Y-109000000D03*
X63000000Y-111000000D03*
X65000000Y-116000000D03*
X63000000Y-115000000D03*
X65000000Y-118000000D03*
X63000000Y-117000000D03*
X63000000Y-119000000D03*
X63000000Y-121000000D03*
X65000000Y-120000000D03*
X65000000Y-124000000D03*
X69000000Y-124000000D03*
X67000000Y-125000000D03*
X65000000Y-126000000D03*
X63000000Y-127000000D03*
X61000000Y-130000000D03*
X61000000Y-128000000D03*
X87000000Y-123000000D03*
X89000000Y-124000000D03*
X90000000Y-127000000D03*
X92000000Y-127000000D03*
X91968304Y-128991726D03*
X88000000Y-134000000D03*
X90000000Y-132000000D03*
X90000000Y-130000000D03*
X88000000Y-129000000D03*
X86000000Y-126000000D03*
X84000000Y-124000000D03*
X82000000Y-124000000D03*
X84000000Y-126000000D03*
X82000000Y-128000000D03*
X78000000Y-131000000D03*
X82000000Y-132000000D03*
X80000000Y-132000000D03*
X80000000Y-128000000D03*
X80000000Y-126000000D03*
X91000000Y-147000000D03*
X105000000Y-108000000D03*
X103000000Y-109000000D03*
X103000000Y-99000000D03*
X109000000Y-100000000D03*
X105000000Y-100000000D03*
X103000000Y-101000000D03*
X107000000Y-101000000D03*
X109000000Y-102000000D03*
X105000000Y-102000000D03*
X103000000Y-103000000D03*
X103000000Y-105000000D03*
X105000000Y-104000000D03*
X107000000Y-103000000D03*
X109000000Y-104000000D03*
X107000000Y-105000000D03*
X105000000Y-106000000D03*
X103000000Y-107000000D03*
X101000000Y-108000000D03*
X99000000Y-109000000D03*
X97000000Y-110000000D03*
X91000000Y-111000000D03*
X93000000Y-112000000D03*
X95000000Y-117000000D03*
X95000000Y-115000000D03*
X91000000Y-115000000D03*
X93000000Y-116000000D03*
X105000000Y-120000000D03*
X103000000Y-119000000D03*
X107000000Y-123000000D03*
X105000000Y-122000000D03*
X97000000Y-120000000D03*
X97000000Y-122000000D03*
X99000000Y-121000000D03*
X101000000Y-122000000D03*
X103000000Y-121000000D03*
X103000000Y-123000000D03*
X105000000Y-124000000D03*
X103000000Y-125000000D03*
X105000000Y-126000000D03*
X107000000Y-125000000D03*
X99000000Y-145000000D03*
X99000000Y-149000000D03*
X99000000Y-151000000D03*
X99000000Y-153000000D03*
X85000000Y-148000000D03*
X83000000Y-149000000D03*
X87000000Y-149000000D03*
X91000000Y-151000000D03*
X89000000Y-150000000D03*
X87000000Y-151000000D03*
X89000000Y-152000000D03*
X87000000Y-153000000D03*
X89000000Y-154000000D03*
X91000000Y-153000000D03*
X95000000Y-153000000D03*
X97000000Y-154000000D03*
X95000000Y-155000000D03*
X93000000Y-154000000D03*
X91000000Y-155000000D03*
X93000000Y-156000000D03*
X101000000Y-148000000D03*
X101000000Y-144000000D03*
X101000000Y-142000000D03*
X101000000Y-146000000D03*
X101000000Y-152000000D03*
X101000000Y-150000000D03*
X101000000Y-154000000D03*
X105000000Y-134000000D03*
X105000000Y-130000000D03*
X105000000Y-128000000D03*
X105000000Y-132000000D03*
X103000000Y-139000000D03*
X103000000Y-135000000D03*
X103000000Y-133000000D03*
X105000000Y-142000000D03*
X105000000Y-138000000D03*
X105000000Y-136000000D03*
X105000000Y-140000000D03*
X103000000Y-147000000D03*
X103000000Y-143000000D03*
X103000000Y-141000000D03*
X103000000Y-145000000D03*
X105000000Y-150000000D03*
X105000000Y-146000000D03*
X105000000Y-144000000D03*
X105000000Y-148000000D03*
X103000000Y-155000000D03*
X103000000Y-151000000D03*
X103000000Y-149000000D03*
X103000000Y-153000000D03*
X107000000Y-129000000D03*
X107000000Y-127000000D03*
X109000000Y-126000000D03*
X109000000Y-124000000D03*
X109000000Y-134000000D03*
X109000000Y-130000000D03*
X109000000Y-128000000D03*
X109000000Y-132000000D03*
X109000000Y-142000000D03*
X109000000Y-138000000D03*
X109000000Y-136000000D03*
X109000000Y-140000000D03*
X109000000Y-150000000D03*
X109000000Y-146000000D03*
X109000000Y-144000000D03*
X109000000Y-148000000D03*
X109000000Y-154000000D03*
X109000000Y-152000000D03*
X109000000Y-156000000D03*
X107000000Y-157000000D03*
X107000000Y-155000000D03*
X105000000Y-154000000D03*
X105000000Y-152000000D03*
X105000000Y-156000000D03*
X103000000Y-163000000D03*
X103000000Y-159000000D03*
X103000000Y-157000000D03*
X101000000Y-164000000D03*
X101000000Y-160000000D03*
X101000000Y-158000000D03*
X101000000Y-162000000D03*
X99000000Y-163000000D03*
X99000000Y-159000000D03*
X99000000Y-161000000D03*
X97000000Y-164000000D03*
X97000000Y-160000000D03*
X97000000Y-158000000D03*
X97000000Y-162000000D03*
X95000000Y-163000000D03*
X95000000Y-159000000D03*
X95000000Y-157000000D03*
X95000000Y-161000000D03*
X93000000Y-164000000D03*
X93000000Y-160000000D03*
X93000000Y-158000000D03*
X93000000Y-162000000D03*
X91000000Y-163000000D03*
X91000000Y-159000000D03*
X91000000Y-157000000D03*
X91000000Y-161000000D03*
X89000000Y-164000000D03*
X89000000Y-160000000D03*
X89000000Y-162000000D03*
X87000000Y-163000000D03*
X87000000Y-159000000D03*
X87000000Y-161000000D03*
X73000000Y-164000000D03*
X75000000Y-163000000D03*
X77000000Y-164000000D03*
X77000000Y-162000000D03*
X79000000Y-163000000D03*
X79000000Y-161000000D03*
X81000000Y-162000000D03*
X81000000Y-160000000D03*
X81000000Y-164000000D03*
X83000000Y-161000000D03*
X83000000Y-159000000D03*
X83000000Y-163000000D03*
X85000000Y-164000000D03*
X85000000Y-160000000D03*
X85000000Y-158000000D03*
X85000000Y-162000000D03*
X71000000Y-155000000D03*
X71000000Y-151000000D03*
X71000000Y-149000000D03*
X71000000Y-153000000D03*
X81160000Y-150557836D03*
X81160000Y-148557836D03*
X79000000Y-151000000D03*
X79000000Y-147000000D03*
X79000000Y-149000000D03*
X77000000Y-152000000D03*
X77000000Y-148000000D03*
X77000000Y-146000000D03*
X77000000Y-150000000D03*
X75000000Y-153000000D03*
X75000000Y-149000000D03*
X75000000Y-147000000D03*
X75000000Y-151000000D03*
X73000000Y-154000000D03*
X73000000Y-150000000D03*
X73000000Y-148000000D03*
X73000000Y-152000000D03*
X85000000Y-156000000D03*
X85000000Y-152000000D03*
X85000000Y-150000000D03*
X85000000Y-154000000D03*
X83000000Y-157000000D03*
X83000000Y-153000000D03*
X83000000Y-151000000D03*
X83000000Y-155000000D03*
X81000000Y-158000000D03*
X81000000Y-154000000D03*
X81000000Y-152000000D03*
X81000000Y-156000000D03*
X79000000Y-159000000D03*
X79000000Y-155000000D03*
X79000000Y-153000000D03*
X79000000Y-157000000D03*
X77000000Y-160000000D03*
X77000000Y-156000000D03*
X77000000Y-154000000D03*
X77000000Y-158000000D03*
X75000000Y-161000000D03*
X75000000Y-157000000D03*
X75000000Y-155000000D03*
X75000000Y-159000000D03*
X73000000Y-162000000D03*
X73000000Y-158000000D03*
X73000000Y-156000000D03*
X73000000Y-160000000D03*
X71000000Y-157000000D03*
X71000000Y-161000000D03*
X71000000Y-163000000D03*
X71000000Y-159000000D03*
X69000000Y-148000000D03*
X69000000Y-150000000D03*
X67000000Y-151000000D03*
X69000000Y-152000000D03*
X67000000Y-153000000D03*
X69000000Y-154000000D03*
X69000000Y-164000000D03*
X69000000Y-162000000D03*
X69000000Y-160000000D03*
X67000000Y-159000000D03*
X67000000Y-161000000D03*
X67000000Y-163000000D03*
X65000000Y-154000000D03*
X65000000Y-156000000D03*
X65000000Y-158000000D03*
X65000000Y-160000000D03*
X65000000Y-162000000D03*
X65000000Y-164000000D03*
X63000000Y-163000000D03*
X63000000Y-161000000D03*
X63000000Y-159000000D03*
X63000000Y-153000000D03*
X63000000Y-155000000D03*
X63000000Y-157000000D03*
X61000000Y-158000000D03*
X61000000Y-156000000D03*
X61000000Y-154000000D03*
X61000000Y-152000000D03*
X61000000Y-146000000D03*
X61000000Y-144000000D03*
X59000000Y-143000000D03*
X59000000Y-145000000D03*
X59000000Y-147000000D03*
X59000000Y-151000000D03*
X59000000Y-153000000D03*
X57000000Y-154000000D03*
X57000000Y-152000000D03*
X57000000Y-150000000D03*
X61000000Y-164000000D03*
X61000000Y-162000000D03*
X61000000Y-160000000D03*
X59000000Y-159000000D03*
X59000000Y-161000000D03*
X59000000Y-163000000D03*
X57000000Y-164000000D03*
X57000000Y-162000000D03*
X57000000Y-160000000D03*
X55000000Y-163000000D03*
X55000000Y-161000000D03*
X55000000Y-159000000D03*
X55000000Y-157000000D03*
X55000000Y-155000000D03*
X55000000Y-153000000D03*
X55000000Y-151000000D03*
X55000000Y-149000000D03*
X49000000Y-156000000D03*
X53000000Y-156000000D03*
X51000000Y-155000000D03*
X53000000Y-154000000D03*
X49000000Y-154000000D03*
X47000000Y-157000000D03*
X47000000Y-155000000D03*
X47000000Y-153000000D03*
X53000000Y-152000000D03*
X53000000Y-150000000D03*
X47000000Y-151000000D03*
X55000000Y-147000000D03*
X53000000Y-148000000D03*
X47000000Y-149000000D03*
X57000000Y-138000000D03*
X57000000Y-148000000D03*
X57000000Y-132000000D03*
X57000000Y-140000000D03*
X57000000Y-146000000D03*
X57000000Y-134000000D03*
X57000000Y-142000000D03*
X57000000Y-136000000D03*
X57000000Y-144000000D03*
X57000000Y-130000000D03*
X61000000Y-114000000D03*
X61000000Y-124000000D03*
X61000000Y-108000000D03*
X61000000Y-116000000D03*
X61000000Y-122000000D03*
X61000000Y-110000000D03*
X61000000Y-118000000D03*
X61000000Y-112000000D03*
X61000000Y-120000000D03*
X61000000Y-106000000D03*
X59000000Y-125000000D03*
X59000000Y-113000000D03*
X59000000Y-107000000D03*
X59000000Y-109000000D03*
X59000000Y-111000000D03*
X59000000Y-105000000D03*
X57000000Y-126000000D03*
X57000000Y-128000000D03*
X57000000Y-108000000D03*
X57000000Y-110000000D03*
X57000000Y-112000000D03*
X57000000Y-106000000D03*
X55000000Y-143000000D03*
X55000000Y-145000000D03*
X55000000Y-131000000D03*
X55000000Y-141000000D03*
X55000000Y-125000000D03*
X55000000Y-133000000D03*
X55000000Y-139000000D03*
X55000000Y-127000000D03*
X55000000Y-135000000D03*
X55000000Y-129000000D03*
X55000000Y-137000000D03*
X55000000Y-123000000D03*
X53000000Y-144000000D03*
X53000000Y-146000000D03*
X53000000Y-132000000D03*
X53000000Y-142000000D03*
X53000000Y-126000000D03*
X53000000Y-134000000D03*
X53000000Y-140000000D03*
X53000000Y-128000000D03*
X53000000Y-136000000D03*
X53000000Y-130000000D03*
X53000000Y-138000000D03*
X53000000Y-124000000D03*
X51000000Y-131000000D03*
X51000000Y-125000000D03*
X51000000Y-133000000D03*
X51000000Y-139000000D03*
X51000000Y-127000000D03*
X51000000Y-135000000D03*
X51000000Y-129000000D03*
X51000000Y-137000000D03*
X49000000Y-132000000D03*
X49000000Y-126000000D03*
X49000000Y-134000000D03*
X49000000Y-140000000D03*
X49000000Y-128000000D03*
X49000000Y-136000000D03*
X49000000Y-130000000D03*
X49000000Y-138000000D03*
X49000000Y-124000000D03*
X55000000Y-107000000D03*
X55000000Y-101000000D03*
X55000000Y-109000000D03*
X55000000Y-115000000D03*
X55000000Y-103000000D03*
X55000000Y-111000000D03*
X55000000Y-105000000D03*
X55000000Y-113000000D03*
X55000000Y-99000000D03*
X53000000Y-108000000D03*
X53000000Y-102000000D03*
X53000000Y-110000000D03*
X53000000Y-104000000D03*
X53000000Y-112000000D03*
X53000000Y-106000000D03*
X53000000Y-114000000D03*
X53000000Y-100000000D03*
X51000000Y-107000000D03*
X51000000Y-101000000D03*
X51000000Y-109000000D03*
X51000000Y-103000000D03*
X51000000Y-111000000D03*
X51000000Y-105000000D03*
X51000000Y-113000000D03*
X51000000Y-99000000D03*
X49000000Y-108000000D03*
X49000000Y-102000000D03*
X49000000Y-110000000D03*
X49000000Y-104000000D03*
X49000000Y-112000000D03*
X49000000Y-106000000D03*
X49000000Y-114000000D03*
X49000000Y-100000000D03*
X47000000Y-145000000D03*
X47000000Y-147000000D03*
X47000000Y-133000000D03*
X47000000Y-143000000D03*
X47000000Y-127000000D03*
X47000000Y-135000000D03*
X47000000Y-141000000D03*
X47000000Y-129000000D03*
X47000000Y-137000000D03*
X47000000Y-131000000D03*
X47000000Y-139000000D03*
X47000000Y-125000000D03*
X47000000Y-121000000D03*
X47000000Y-123000000D03*
X47000000Y-109000000D03*
X47000000Y-119000000D03*
X47000000Y-103000000D03*
X47000000Y-111000000D03*
X47000000Y-117000000D03*
X47000000Y-105000000D03*
X47000000Y-113000000D03*
X47000000Y-107000000D03*
X47000000Y-115000000D03*
X47000000Y-101000000D03*
X47000000Y-99000000D03*
X102000000Y-91000000D03*
X100000000Y-91000000D03*
X98000000Y-91000000D03*
X96000000Y-91000000D03*
X94000000Y-91000000D03*
X92000000Y-91000000D03*
X90000000Y-91000000D03*
X88000000Y-91000000D03*
X86000000Y-91000000D03*
X84000000Y-91000000D03*
X58000000Y-91000000D03*
X56000000Y-91000000D03*
X54000000Y-91000000D03*
D17*
X76400000Y-108000000D03*
%TO.N,+3V3*%
X86900000Y-118700000D03*
%TO.N,GND*%
X70500000Y-111000000D03*
X67750000Y-116200000D03*
X73175252Y-120906624D03*
X83549997Y-120150000D03*
X82650000Y-119849997D03*
%TO.N,+3V3*%
X82650000Y-120750000D03*
X84450000Y-120150000D03*
%TO.N,GND*%
X85300000Y-112500000D03*
X81700003Y-92600000D03*
%TO.N,+3V3*%
X80800000Y-92500000D03*
%TO.N,GND*%
X57513602Y-92213602D03*
%TO.N,+3V3*%
X99400000Y-100975000D03*
%TO.N,GND*%
X63009314Y-140990686D03*
X74817326Y-138100344D03*
X67078254Y-129486952D03*
X78295013Y-139697507D03*
X90800000Y-136600000D03*
%TO.N,+3V3A*%
X91700000Y-136900000D03*
X79100000Y-140100000D03*
%TO.N,GND*%
X85300386Y-142201459D03*
%TO.N,VCOM*%
X86200000Y-142175000D03*
%TO.N,GND*%
X81725000Y-143125000D03*
X82575000Y-142775000D03*
X84975000Y-143825000D03*
X90190000Y-145330000D03*
X82070000Y-134750000D03*
X82060000Y-135680000D03*
X82080000Y-136680000D03*
X81230000Y-137080000D03*
X80120000Y-137160000D03*
X84690583Y-128992747D03*
X59790000Y-135260000D03*
%TO.N,+5V*%
X59800000Y-134330000D03*
D16*
%TO.N,GND*%
X87250000Y-101000000D03*
X101000000Y-119500000D03*
D17*
X101107500Y-98000000D03*
D16*
%TO.N,+5V*%
X85100000Y-129850000D03*
X88250000Y-101000000D03*
X101050000Y-118450000D03*
%TO.N,GND*%
X98475000Y-102000000D03*
X94800000Y-108175003D03*
%TO.N,+3V3*%
X98450000Y-100975000D03*
X94800000Y-107175000D03*
%TO.N,GND*%
X89500000Y-104025000D03*
X90600000Y-104050000D03*
X91275000Y-101900000D03*
X93400000Y-101925000D03*
X97725000Y-104000000D03*
X96575000Y-104025000D03*
X106300000Y-120500000D03*
X106300000Y-108450000D03*
D17*
X84000000Y-105000000D03*
D16*
%TO.N,/MCU/TIM4_CH3*%
X83200000Y-104450000D03*
D17*
%TO.N,GND*%
X81900000Y-102200000D03*
D16*
%TO.N,/MCU/TIM4_CH1*%
X80950000Y-102200000D03*
D17*
%TO.N,GND*%
X80350000Y-107300000D03*
D16*
%TO.N,/MCU/TIM4_CH3*%
X79969221Y-108170352D03*
D17*
%TO.N,GND*%
X79550000Y-106850000D03*
D16*
%TO.N,/MCU/TIM4_CH1*%
X79500000Y-105900000D03*
%TO.N,GND*%
X78050000Y-105789950D03*
D17*
X79350000Y-101450000D03*
D16*
%TO.N,/MCU/TIM4_CH2*%
X78400000Y-101450000D03*
D17*
X76150000Y-106600000D03*
%TO.N,GND*%
X77043838Y-106494843D03*
X78850000Y-94500000D03*
X62050000Y-102250000D03*
%TO.N,+3V3*%
X58150000Y-92850000D03*
%TO.N,GND*%
X70000000Y-93450000D03*
X69950000Y-94350000D03*
X70000000Y-98000000D03*
X59600000Y-96150000D03*
X59050000Y-96950000D03*
X59650000Y-97750000D03*
X59050000Y-98550000D03*
X83857893Y-110131053D03*
X80700000Y-115200000D03*
%TO.N,/MCU/MCU_NRST*%
X84750000Y-110250000D03*
%TO.N,+3V3*%
X85300000Y-111550000D03*
%TO.N,GND*%
X77523116Y-112417638D03*
X72450000Y-105800000D03*
X74284620Y-107146140D03*
X82550003Y-109100000D03*
%TO.N,/MCU/MCU_NRST*%
X80700000Y-114300000D03*
%TO.N,+3V3*%
X75500000Y-108000000D03*
%TO.N,/MCU/MCU_SWDIO*%
X71800000Y-106500000D03*
X77000000Y-113150000D03*
%TO.N,/MCU/MCU_SWCLK*%
X74284620Y-108065380D03*
X81650000Y-109100000D03*
%TO.N,GND*%
X97450000Y-147350000D03*
X92650000Y-138700000D03*
X97900000Y-142850000D03*
X95000000Y-140950000D03*
X100350000Y-136500000D03*
X100550000Y-132250000D03*
X101300000Y-135550000D03*
X93009620Y-134490380D03*
X92050000Y-131350000D03*
%TO.N,DAC_NLDAC*%
X99650000Y-132250000D03*
%TO.N,GND*%
X98900000Y-132950000D03*
%TO.N,DAC_NLDAC*%
X92050000Y-132250000D03*
%TO.N,GND*%
X96000000Y-133800000D03*
X94600000Y-129100000D03*
X100450000Y-127300000D03*
%TO.N,SPI2_NSS*%
X94650000Y-128200000D03*
%TO.N,GND*%
X95850000Y-127150000D03*
X96300000Y-128100000D03*
%TO.N,SPI2_NSS*%
X100450000Y-128200000D03*
%TO.N,GND*%
X66250000Y-137000000D03*
X73450000Y-132900000D03*
X65850000Y-146500000D03*
X65000000Y-146100000D03*
X62000000Y-137200000D03*
X63050000Y-137200000D03*
%TO.N,VCOM*%
X73917500Y-138082500D03*
%TO.N,GND*%
X72450000Y-140300000D03*
%TO.N,VCOM*%
X63150000Y-140000000D03*
%TO.N,GND*%
X65900000Y-140200000D03*
X70100000Y-138050000D03*
X66350000Y-131300000D03*
X62550000Y-131750000D03*
X63500000Y-131750000D03*
%TO.N,+3V3A*%
X67850000Y-129000000D03*
X67850000Y-129950000D03*
%TO.N,GND*%
X68250000Y-132000000D03*
X69550000Y-132000000D03*
X70850000Y-131450000D03*
X70850000Y-132500000D03*
X70250000Y-127800000D03*
X69700000Y-126800000D03*
X76700000Y-124350000D03*
X74900000Y-121750000D03*
%TO.N,+3V3*%
X74050000Y-120650000D03*
%TO.N,SPI1_NSS*%
X75800000Y-124350000D03*
X75800000Y-121750000D03*
%TO.N,GND*%
X103400000Y-114050000D03*
%TO.N,+3V3*%
X68650000Y-116150000D03*
%TO.N,GND*%
X81350000Y-112500000D03*
X80750000Y-117600000D03*
X75650000Y-115500000D03*
X76250000Y-111900000D03*
X65200000Y-112450000D03*
X65750000Y-113250000D03*
X69500000Y-108700000D03*
X68650000Y-108200000D03*
X72500000Y-110100000D03*
X71400000Y-109300000D03*
%TO.N,+3V3*%
X70300000Y-111900000D03*
%TO.N,DAC_NCLR*%
X100400000Y-135550000D03*
X92100000Y-134500000D03*
%TD*%
D18*
%TO.N,+3V3A*%
X67878254Y-129028254D02*
X67850000Y-129000000D01*
X67878254Y-129818323D02*
X67878254Y-129028254D01*
X67850000Y-129846577D02*
X67878254Y-129818323D01*
X67850000Y-129950000D02*
X67850000Y-129846577D01*
%TO.N,+3V3*%
X75350000Y-91850000D02*
X75400000Y-91800000D01*
X75350000Y-107850000D02*
X75350000Y-91850000D01*
X75500000Y-108000000D02*
X75350000Y-107850000D01*
X75400000Y-91800000D02*
X59200000Y-91800000D01*
X80600000Y-91800000D02*
X75400000Y-91800000D01*
X86900000Y-118700000D02*
X86900000Y-119600000D01*
X68650000Y-113550000D02*
X68650000Y-116150000D01*
X70300000Y-111900000D02*
X68650000Y-113550000D01*
X72100000Y-118700000D02*
X72100000Y-113700000D01*
X72100000Y-113700000D02*
X70300000Y-111900000D01*
X74050000Y-120650000D02*
X72100000Y-118700000D01*
X74050000Y-119750000D02*
X74050000Y-120650000D01*
X74400000Y-119400000D02*
X74050000Y-119750000D01*
X81068632Y-119400000D02*
X74400000Y-119400000D01*
X82418632Y-120750000D02*
X81068632Y-119400000D01*
X82650000Y-120750000D02*
X82418632Y-120750000D01*
X86100000Y-110750000D02*
X85300000Y-111550000D01*
X86100000Y-100100000D02*
X86100000Y-110750000D01*
X86900000Y-112968629D02*
X86900000Y-118700000D01*
X85300000Y-111550000D02*
X85481371Y-111550000D01*
X85481371Y-111550000D02*
X86900000Y-112968629D01*
X83881368Y-120950000D02*
X82850000Y-120950000D01*
X84450000Y-120381368D02*
X83881368Y-120950000D01*
X82850000Y-120950000D02*
X82650000Y-120750000D01*
X84450000Y-120150000D02*
X84450000Y-120381368D01*
X86350000Y-120150000D02*
X84450000Y-120150000D01*
X86900000Y-119600000D02*
X86350000Y-120150000D01*
X80600000Y-91800000D02*
X80800000Y-91800000D01*
X80800000Y-91800000D02*
X80800000Y-92500000D01*
X82500000Y-91800000D02*
X80600000Y-91800000D01*
X59200000Y-91800000D02*
X58150000Y-92850000D01*
X86100000Y-95400000D02*
X82500000Y-91800000D01*
X86100000Y-100100000D02*
X86100000Y-95400000D01*
X86150000Y-100150000D02*
X86100000Y-100100000D01*
X98575000Y-100150000D02*
X86150000Y-100150000D01*
X99400000Y-100975000D02*
X98575000Y-100150000D01*
D19*
X99450000Y-100975000D02*
X100825000Y-102350000D01*
X99400000Y-100975000D02*
X99450000Y-100975000D01*
X99400000Y-100975000D02*
X98450000Y-100975000D01*
X100825000Y-102350000D02*
X100825000Y-105825000D01*
X100825000Y-105825000D02*
X99475000Y-107175000D01*
X99475000Y-107175000D02*
X94800000Y-107175000D01*
D18*
%TO.N,+3V3A*%
X88600000Y-140100000D02*
X91700000Y-137000000D01*
X91700000Y-137000000D02*
X91700000Y-136900000D01*
X79100000Y-140100000D02*
X88600000Y-140100000D01*
%TO.N,VCOM*%
X73917500Y-144625000D02*
X73917500Y-138082500D01*
X75425000Y-144625000D02*
X73917500Y-144625000D01*
X67775000Y-144625000D02*
X63150000Y-140000000D01*
X75425000Y-144625000D02*
X67775000Y-144625000D01*
X85306371Y-144625000D02*
X75425000Y-144625000D01*
X86200000Y-143731371D02*
X85306371Y-144625000D01*
X86200000Y-142175000D02*
X86200000Y-143731371D01*
D20*
%TO.N,DAC_NCLR*%
X93150000Y-135550000D02*
X92100000Y-134500000D01*
X100400000Y-135550000D02*
X93150000Y-135550000D01*
D18*
%TO.N,+3V3A*%
X73450000Y-129950000D02*
X67850000Y-129950000D01*
X73500000Y-130000000D02*
X73450000Y-129950000D01*
X73900000Y-130000000D02*
X73500000Y-130000000D01*
X79100000Y-135200000D02*
X73900000Y-130000000D01*
X79100000Y-140100000D02*
X79100000Y-135200000D01*
%TO.N,+5V*%
X58250000Y-132780000D02*
X59800000Y-134330000D01*
X58250000Y-132750000D02*
X58250000Y-132780000D01*
X58250000Y-128750000D02*
X58250000Y-132750000D01*
X72500000Y-122750000D02*
X64250000Y-122750000D01*
X79600000Y-129850000D02*
X72500000Y-122750000D01*
X64250000Y-122750000D02*
X58250000Y-128750000D01*
X85100000Y-129850000D02*
X79600000Y-129850000D01*
X91450000Y-123500000D02*
X91450000Y-118450000D01*
X85100000Y-129850000D02*
X91450000Y-123500000D01*
X88250000Y-115250000D02*
X88250000Y-101000000D01*
X91450000Y-118450000D02*
X88250000Y-115250000D01*
X101050000Y-118450000D02*
X91450000Y-118450000D01*
D20*
%TO.N,/MCU/TIM4_CH3*%
X83200000Y-106130764D02*
X83200000Y-104450000D01*
X81160412Y-108170352D02*
X83200000Y-106130764D01*
X79969221Y-108170352D02*
X81160412Y-108170352D01*
%TO.N,/MCU/TIM4_CH1*%
X80950000Y-104450000D02*
X80950000Y-102200000D01*
X79500000Y-105900000D02*
X80950000Y-104450000D01*
%TO.N,/MCU/MCU_SWDIO*%
X76200000Y-113150000D02*
X74150000Y-111100000D01*
X74150000Y-111100000D02*
X74150000Y-110150000D01*
X74150000Y-110150000D02*
X71800000Y-107800000D01*
X71800000Y-107800000D02*
X71800000Y-106500000D01*
X77000000Y-113150000D02*
X76200000Y-113150000D01*
%TO.N,/MCU/MCU_SWCLK*%
X75319240Y-109100000D02*
X74284620Y-108065380D01*
X81650000Y-109100000D02*
X75319240Y-109100000D01*
%TO.N,/MCU/TIM4_CH2*%
X78400000Y-103050000D02*
X78400000Y-101450000D01*
X76150000Y-105300000D02*
X78400000Y-103050000D01*
X76150000Y-106600000D02*
X76150000Y-105300000D01*
D18*
%TO.N,/MCU/MCU_NRST*%
X84731371Y-110250000D02*
X84750000Y-110250000D01*
D20*
X80700000Y-114281371D02*
X84731371Y-110250000D01*
D18*
X80700000Y-114300000D02*
X80700000Y-114281371D01*
D20*
%TO.N,DAC_NLDAC*%
X92050000Y-132250000D02*
X99650000Y-132250000D01*
%TO.N,SPI2_NSS*%
X99900000Y-128750000D02*
X100450000Y-128200000D01*
X95200000Y-128750000D02*
X99900000Y-128750000D01*
X94650000Y-128200000D02*
X95200000Y-128750000D01*
%TO.N,SPI1_NSS*%
X75800000Y-121750000D02*
X75800000Y-124350000D01*
%TD*%
M02*
